%TF.GenerationSoftware,Altium Limited,Altium Designer,18.1.9 (240)*%
G04 Layer_Color=65535*
%FSLAX25Y25*%
%MOIN*%
%TF.FileFunction,Legend,Top*%
%TF.Part,Single*%
G01*
G75*
%TA.AperFunction,NonConductor*%
%ADD83C,0.02362*%
%ADD84C,0.01000*%
%ADD85C,0.00984*%
%ADD86C,0.00787*%
%ADD87C,0.00591*%
%ADD88C,0.00630*%
%ADD126C,0.00394*%
G36*
X738024Y418902D02*
X738071D01*
X738170Y418890D01*
X738281Y418873D01*
X738410Y418849D01*
X738539Y418814D01*
X738668Y418767D01*
X738673D01*
X738685Y418761D01*
X738703Y418756D01*
X738726Y418744D01*
X738785Y418715D01*
X738861Y418668D01*
X738948Y418615D01*
X739036Y418551D01*
X739124Y418481D01*
X739200Y418393D01*
X739206Y418381D01*
X739229Y418352D01*
X739264Y418299D01*
X739311Y418223D01*
X739358Y418136D01*
X739405Y418030D01*
X739452Y417907D01*
X739493Y417767D01*
X739030Y417638D01*
Y417644D01*
X739024Y417650D01*
X739019Y417685D01*
X738995Y417738D01*
X738972Y417808D01*
X738943Y417878D01*
X738907Y417954D01*
X738867Y418030D01*
X738820Y418101D01*
X738814Y418106D01*
X738796Y418130D01*
X738767Y418159D01*
X738726Y418200D01*
X738673Y418241D01*
X738609Y418288D01*
X738539Y418329D01*
X738451Y418370D01*
X738440Y418375D01*
X738410Y418387D01*
X738357Y418405D01*
X738293Y418422D01*
X738217Y418440D01*
X738129Y418457D01*
X738030Y418469D01*
X737925Y418475D01*
X737866D01*
X737802Y418469D01*
X737720Y418463D01*
X737626Y418446D01*
X737521Y418428D01*
X737422Y418399D01*
X737322Y418364D01*
X737310Y418358D01*
X737281Y418346D01*
X737234Y418323D01*
X737176Y418288D01*
X737112Y418247D01*
X737041Y418200D01*
X736977Y418147D01*
X736913Y418083D01*
X736907Y418077D01*
X736889Y418054D01*
X736860Y418019D01*
X736825Y417972D01*
X736784Y417913D01*
X736743Y417849D01*
X736708Y417779D01*
X736673Y417703D01*
Y417697D01*
X736667Y417685D01*
X736661Y417668D01*
X736649Y417638D01*
X736638Y417609D01*
X736626Y417568D01*
X736602Y417475D01*
X736573Y417357D01*
X736550Y417229D01*
X736532Y417083D01*
X736526Y416930D01*
Y416925D01*
Y416907D01*
Y416884D01*
X736532Y416843D01*
Y416802D01*
X736538Y416749D01*
X736544Y416691D01*
X736550Y416632D01*
X736567Y416492D01*
X736602Y416346D01*
X736644Y416205D01*
X736702Y416065D01*
Y416059D01*
X736708Y416047D01*
X736720Y416030D01*
X736737Y416006D01*
X736778Y415948D01*
X736831Y415872D01*
X736901Y415790D01*
X736989Y415702D01*
X737094Y415620D01*
X737211Y415550D01*
X737217D01*
X737228Y415544D01*
X737246Y415532D01*
X737269Y415526D01*
X737299Y415515D01*
X737340Y415497D01*
X737427Y415468D01*
X737539Y415439D01*
X737656Y415410D01*
X737790Y415392D01*
X737930Y415386D01*
X737989D01*
X738053Y415392D01*
X738135Y415404D01*
X738229Y415415D01*
X738340Y415439D01*
X738457Y415468D01*
X738574Y415509D01*
X738580D01*
X738586Y415515D01*
X738603Y415521D01*
X738627Y415532D01*
X738685Y415556D01*
X738755Y415591D01*
X738831Y415632D01*
X738907Y415679D01*
X738983Y415731D01*
X739054Y415784D01*
Y416509D01*
X737925D01*
Y416960D01*
X739551D01*
Y415532D01*
X739545Y415526D01*
X739533Y415521D01*
X739516Y415503D01*
X739487Y415485D01*
X739452Y415456D01*
X739410Y415433D01*
X739311Y415363D01*
X739194Y415293D01*
X739065Y415216D01*
X738919Y415146D01*
X738773Y415082D01*
X738767D01*
X738755Y415076D01*
X738732Y415070D01*
X738703Y415059D01*
X738668Y415047D01*
X738627Y415035D01*
X738574Y415023D01*
X738521Y415012D01*
X738399Y414982D01*
X738264Y414959D01*
X738112Y414942D01*
X737960Y414936D01*
X737907D01*
X737866Y414942D01*
X737814D01*
X737755Y414947D01*
X737691Y414953D01*
X737620Y414965D01*
X737457Y414994D01*
X737287Y415035D01*
X737106Y415094D01*
X736930Y415175D01*
X736924Y415181D01*
X736913Y415187D01*
X736883Y415199D01*
X736854Y415222D01*
X736813Y415246D01*
X736772Y415275D01*
X736673Y415351D01*
X736556Y415450D01*
X736445Y415573D01*
X736333Y415714D01*
X736234Y415872D01*
Y415877D01*
X736222Y415895D01*
X736211Y415918D01*
X736199Y415953D01*
X736181Y415995D01*
X736158Y416047D01*
X736140Y416106D01*
X736117Y416176D01*
X736094Y416246D01*
X736076Y416328D01*
X736035Y416503D01*
X736012Y416697D01*
X736000Y416901D01*
Y416907D01*
Y416925D01*
Y416954D01*
X736006Y416995D01*
Y417048D01*
X736012Y417106D01*
X736018Y417170D01*
X736029Y417240D01*
X736059Y417404D01*
X736099Y417580D01*
X736158Y417767D01*
X736234Y417948D01*
Y417954D01*
X736246Y417972D01*
X736257Y417995D01*
X736275Y418030D01*
X736304Y418071D01*
X736333Y418112D01*
X736404Y418223D01*
X736503Y418340D01*
X736614Y418457D01*
X736755Y418569D01*
X736825Y418621D01*
X736907Y418668D01*
X736913D01*
X736924Y418680D01*
X736953Y418691D01*
X736983Y418703D01*
X737024Y418726D01*
X737076Y418744D01*
X737135Y418767D01*
X737199Y418791D01*
X737269Y418808D01*
X737346Y418832D01*
X737521Y418873D01*
X737708Y418896D01*
X737919Y418908D01*
X737989D01*
X738024Y418902D01*
D02*
G37*
G36*
X743318Y415000D02*
X742798D01*
X740779Y418019D01*
Y415000D01*
X740294D01*
Y418844D01*
X740809D01*
X742833Y415825D01*
Y418844D01*
X743318D01*
Y415000D01*
D02*
G37*
G36*
X745746Y418838D02*
X745851Y418832D01*
X745968Y418820D01*
X746080Y418802D01*
X746173Y418785D01*
X746179D01*
X746191Y418779D01*
X746202D01*
X746226Y418767D01*
X746290Y418750D01*
X746366Y418721D01*
X746454Y418685D01*
X746548Y418639D01*
X746641Y418580D01*
X746735Y418510D01*
X746741D01*
X746746Y418498D01*
X746787Y418463D01*
X746840Y418405D01*
X746904Y418329D01*
X746980Y418235D01*
X747056Y418124D01*
X747127Y417995D01*
X747191Y417849D01*
Y417843D01*
X747197Y417831D01*
X747203Y417808D01*
X747215Y417779D01*
X747226Y417744D01*
X747238Y417697D01*
X747255Y417644D01*
X747267Y417586D01*
X747279Y417521D01*
X747296Y417451D01*
X747320Y417299D01*
X747337Y417129D01*
X747343Y416942D01*
Y416936D01*
Y416925D01*
Y416901D01*
Y416866D01*
X747337Y416831D01*
Y416784D01*
X747331Y416679D01*
X747320Y416562D01*
X747296Y416427D01*
X747273Y416293D01*
X747238Y416164D01*
Y416158D01*
X747232Y416147D01*
X747226Y416129D01*
X747220Y416106D01*
X747197Y416047D01*
X747168Y415965D01*
X747132Y415877D01*
X747086Y415784D01*
X747033Y415690D01*
X746975Y415602D01*
X746969Y415591D01*
X746945Y415567D01*
X746916Y415526D01*
X746869Y415474D01*
X746823Y415421D01*
X746758Y415363D01*
X746694Y415304D01*
X746624Y415252D01*
X746618Y415246D01*
X746589Y415234D01*
X746548Y415211D01*
X746495Y415181D01*
X746431Y415152D01*
X746354Y415123D01*
X746267Y415094D01*
X746167Y415064D01*
X746156D01*
X746121Y415053D01*
X746068Y415047D01*
X745992Y415035D01*
X745904Y415023D01*
X745799Y415012D01*
X745682Y415006D01*
X745553Y415000D01*
X744172D01*
Y418844D01*
X745647D01*
X745746Y418838D01*
D02*
G37*
G36*
X715176Y407320D02*
X715252Y407308D01*
X715340Y407291D01*
X715439Y407267D01*
X715539Y407232D01*
X715638Y407185D01*
X715644D01*
X715650Y407179D01*
X715685Y407162D01*
X715732Y407132D01*
X715790Y407092D01*
X715855Y407039D01*
X715925Y406975D01*
X715989Y406898D01*
X716047Y406817D01*
X716053Y406805D01*
X716071Y406776D01*
X716094Y406729D01*
X716118Y406670D01*
X716141Y406594D01*
X716164Y406512D01*
X716182Y406425D01*
X716188Y406325D01*
Y406314D01*
Y406284D01*
X716182Y406238D01*
X716170Y406179D01*
X716153Y406109D01*
X716129Y406033D01*
X716100Y405951D01*
X716053Y405875D01*
X716047Y405863D01*
X716030Y405840D01*
X715995Y405805D01*
X715954Y405758D01*
X715895Y405705D01*
X715831Y405653D01*
X715749Y405594D01*
X715656Y405547D01*
X715661D01*
X715673Y405541D01*
X715691D01*
X715714Y405530D01*
X715773Y405512D01*
X715849Y405477D01*
X715931Y405436D01*
X716018Y405377D01*
X716106Y405307D01*
X716182Y405220D01*
X716188Y405208D01*
X716211Y405173D01*
X716241Y405120D01*
X716282Y405050D01*
X716317Y404962D01*
X716346Y404857D01*
X716369Y404734D01*
X716375Y404600D01*
Y404594D01*
Y404576D01*
Y404553D01*
X716369Y404518D01*
X716363Y404471D01*
X716358Y404424D01*
X716346Y404365D01*
X716328Y404307D01*
X716287Y404172D01*
X716258Y404096D01*
X716217Y404026D01*
X716176Y403956D01*
X716129Y403886D01*
X716071Y403816D01*
X716007Y403745D01*
X716001Y403740D01*
X715989Y403728D01*
X715972Y403716D01*
X715942Y403693D01*
X715907Y403663D01*
X715860Y403634D01*
X715808Y403605D01*
X715755Y403576D01*
X715691Y403541D01*
X715621Y403511D01*
X715544Y403482D01*
X715463Y403453D01*
X715375Y403430D01*
X715281Y403418D01*
X715182Y403406D01*
X715082Y403400D01*
X715035D01*
X715000Y403406D01*
X714954Y403412D01*
X714907Y403418D01*
X714848Y403424D01*
X714790Y403435D01*
X714655Y403470D01*
X714515Y403529D01*
X714445Y403558D01*
X714380Y403599D01*
X714310Y403646D01*
X714246Y403699D01*
X714240Y403704D01*
X714234Y403710D01*
X714217Y403728D01*
X714193Y403751D01*
X714170Y403786D01*
X714140Y403821D01*
X714105Y403862D01*
X714076Y403909D01*
X714006Y404026D01*
X713947Y404161D01*
X713895Y404313D01*
X713877Y404395D01*
X713866Y404483D01*
X714339Y404547D01*
Y404541D01*
X714345Y404529D01*
Y404506D01*
X714357Y404483D01*
X714374Y404412D01*
X714404Y404324D01*
X714439Y404231D01*
X714486Y404132D01*
X714544Y404044D01*
X714608Y403968D01*
X714620Y403962D01*
X714643Y403938D01*
X714684Y403915D01*
X714743Y403880D01*
X714807Y403851D01*
X714889Y403821D01*
X714983Y403798D01*
X715082Y403792D01*
X715117D01*
X715141Y403798D01*
X715199Y403804D01*
X715275Y403821D01*
X715369Y403851D01*
X715463Y403886D01*
X715556Y403944D01*
X715644Y404020D01*
X715656Y404032D01*
X715679Y404061D01*
X715714Y404108D01*
X715761Y404178D01*
X715802Y404260D01*
X715837Y404360D01*
X715860Y404471D01*
X715872Y404594D01*
Y404600D01*
Y404605D01*
Y404623D01*
X715866Y404646D01*
X715860Y404705D01*
X715843Y404781D01*
X715819Y404863D01*
X715778Y404956D01*
X715726Y405044D01*
X715656Y405126D01*
X715644Y405138D01*
X715621Y405161D01*
X715574Y405190D01*
X715509Y405231D01*
X715433Y405272D01*
X715340Y405302D01*
X715240Y405325D01*
X715123Y405337D01*
X715071D01*
X715030Y405331D01*
X714983Y405325D01*
X714924Y405319D01*
X714860Y405307D01*
X714790Y405290D01*
X714843Y405705D01*
X714872D01*
X714895Y405699D01*
X714971D01*
X715024Y405705D01*
X715100Y405717D01*
X715182Y405734D01*
X715270Y405764D01*
X715363Y405799D01*
X715457Y405851D01*
X715468Y405857D01*
X715498Y405881D01*
X715533Y405922D01*
X715580Y405974D01*
X715626Y406039D01*
X715661Y406120D01*
X715691Y406220D01*
X715702Y406337D01*
Y406343D01*
Y406349D01*
Y406378D01*
X715691Y406425D01*
X715679Y406489D01*
X715661Y406553D01*
X715626Y406624D01*
X715585Y406700D01*
X715527Y406764D01*
X715521Y406770D01*
X715498Y406793D01*
X715457Y406822D01*
X715404Y406852D01*
X715340Y406887D01*
X715264Y406910D01*
X715176Y406934D01*
X715076Y406940D01*
X715030D01*
X714977Y406928D01*
X714919Y406916D01*
X714843Y406898D01*
X714766Y406863D01*
X714690Y406822D01*
X714614Y406764D01*
X714608Y406758D01*
X714585Y406735D01*
X714556Y406694D01*
X714521Y406635D01*
X714480Y406565D01*
X714445Y406477D01*
X714410Y406372D01*
X714386Y406249D01*
X713912Y406331D01*
Y406337D01*
X713918Y406355D01*
X713924Y406378D01*
X713930Y406407D01*
X713942Y406448D01*
X713953Y406495D01*
X713994Y406600D01*
X714041Y406717D01*
X714111Y406840D01*
X714193Y406957D01*
X714298Y407062D01*
X714304Y407068D01*
X714310Y407074D01*
X714328Y407086D01*
X714357Y407103D01*
X714386Y407121D01*
X714421Y407144D01*
X714509Y407197D01*
X714620Y407244D01*
X714755Y407285D01*
X714901Y407314D01*
X714983Y407326D01*
X715117D01*
X715176Y407320D01*
D02*
G37*
G36*
X709923Y403465D02*
X709402D01*
X707384Y406483D01*
Y403465D01*
X706898D01*
Y407308D01*
X707413D01*
X709437Y404289D01*
Y407308D01*
X709923D01*
Y403465D01*
D02*
G37*
G36*
X713526Y406858D02*
X712263D01*
Y403465D01*
X711754D01*
Y406858D01*
X710490D01*
Y407308D01*
X713526D01*
Y406858D01*
D02*
G37*
G36*
X706009Y403465D02*
X705500D01*
Y407308D01*
X706009D01*
Y403465D01*
D02*
G37*
G36*
X704423Y324000D02*
X703902D01*
X701884Y327019D01*
Y324000D01*
X701398D01*
Y327843D01*
X701913D01*
X703937Y324825D01*
Y327843D01*
X704423D01*
Y324000D01*
D02*
G37*
G36*
X710138D02*
X709664D01*
Y327007D01*
X709658Y327001D01*
X709635Y326978D01*
X709594Y326948D01*
X709541Y326907D01*
X709477Y326855D01*
X709401Y326802D01*
X709313Y326738D01*
X709214Y326679D01*
X709208D01*
X709202Y326674D01*
X709167Y326650D01*
X709114Y326621D01*
X709050Y326586D01*
X708974Y326545D01*
X708892Y326510D01*
X708804Y326469D01*
X708722Y326434D01*
Y326896D01*
X708728D01*
X708740Y326902D01*
X708763Y326913D01*
X708787Y326931D01*
X708822Y326948D01*
X708863Y326966D01*
X708956Y327019D01*
X709062Y327083D01*
X709179Y327159D01*
X709296Y327247D01*
X709407Y327340D01*
X709413Y327346D01*
X709418Y327352D01*
X709454Y327387D01*
X709506Y327440D01*
X709571Y327504D01*
X709641Y327586D01*
X709711Y327674D01*
X709775Y327767D01*
X709828Y327861D01*
X710138D01*
Y324000D01*
D02*
G37*
G36*
X708026Y327393D02*
X706763D01*
Y324000D01*
X706254D01*
Y327393D01*
X704990D01*
Y327843D01*
X708026D01*
Y327393D01*
D02*
G37*
G36*
X700509Y324000D02*
X700000D01*
Y327843D01*
X700509D01*
Y324000D01*
D02*
G37*
G36*
X711616Y302972D02*
X711096D01*
X709077Y305991D01*
Y302972D01*
X708592D01*
Y306816D01*
X709106D01*
X711131Y303797D01*
Y306816D01*
X711616D01*
Y302972D01*
D02*
G37*
G36*
X716916Y306828D02*
X716963Y306822D01*
X717016Y306816D01*
X717074Y306810D01*
X717139Y306792D01*
X717279Y306757D01*
X717425Y306705D01*
X717501Y306670D01*
X717571Y306629D01*
X717636Y306576D01*
X717700Y306523D01*
X717706Y306518D01*
X717712Y306512D01*
X717729Y306494D01*
X717753Y306471D01*
X717776Y306436D01*
X717805Y306400D01*
X717864Y306313D01*
X717922Y306202D01*
X717975Y306073D01*
X718016Y305927D01*
X718022Y305845D01*
X718028Y305763D01*
Y305751D01*
Y305722D01*
X718022Y305675D01*
X718016Y305617D01*
X718004Y305546D01*
X717987Y305470D01*
X717963Y305388D01*
X717928Y305307D01*
X717922Y305295D01*
X717911Y305266D01*
X717887Y305225D01*
X717852Y305166D01*
X717811Y305096D01*
X717759Y305014D01*
X717689Y304932D01*
X717612Y304839D01*
X717601Y304827D01*
X717571Y304792D01*
X717519Y304739D01*
X717484Y304704D01*
X717443Y304663D01*
X717396Y304616D01*
X717337Y304564D01*
X717279Y304511D01*
X717215Y304447D01*
X717144Y304382D01*
X717063Y304312D01*
X716981Y304242D01*
X716887Y304160D01*
X716881Y304154D01*
X716869Y304142D01*
X716846Y304125D01*
X716817Y304101D01*
X716747Y304043D01*
X716659Y303967D01*
X716571Y303885D01*
X716477Y303803D01*
X716401Y303733D01*
X716372Y303704D01*
X716343Y303674D01*
X716337Y303669D01*
X716325Y303651D01*
X716302Y303628D01*
X716273Y303592D01*
X716208Y303517D01*
X716144Y303423D01*
X718034D01*
Y302972D01*
X715489D01*
Y302978D01*
Y303002D01*
Y303037D01*
X715495Y303078D01*
X715501Y303124D01*
X715506Y303177D01*
X715524Y303236D01*
X715542Y303294D01*
Y303300D01*
X715547Y303306D01*
X715559Y303341D01*
X715582Y303388D01*
X715618Y303458D01*
X715659Y303534D01*
X715717Y303622D01*
X715775Y303710D01*
X715852Y303803D01*
Y303809D01*
X715863Y303815D01*
X715893Y303850D01*
X715939Y303903D01*
X716010Y303973D01*
X716097Y304055D01*
X716202Y304154D01*
X716331Y304265D01*
X716472Y304388D01*
X716477Y304394D01*
X716501Y304412D01*
X716530Y304435D01*
X716571Y304476D01*
X716624Y304517D01*
X716682Y304570D01*
X716811Y304681D01*
X716951Y304815D01*
X717092Y304950D01*
X717162Y305014D01*
X717220Y305078D01*
X717273Y305143D01*
X717320Y305201D01*
Y305207D01*
X717332Y305213D01*
X717343Y305230D01*
X717355Y305254D01*
X717390Y305312D01*
X717431Y305388D01*
X717472Y305476D01*
X717507Y305570D01*
X717530Y305675D01*
X717542Y305775D01*
Y305780D01*
Y305786D01*
X717536Y305821D01*
X717530Y305874D01*
X717519Y305938D01*
X717489Y306014D01*
X717454Y306090D01*
X717408Y306172D01*
X717337Y306248D01*
X717326Y306254D01*
X717302Y306278D01*
X717256Y306307D01*
X717197Y306348D01*
X717121Y306383D01*
X717033Y306412D01*
X716928Y306436D01*
X716811Y306441D01*
X716776D01*
X716752Y306436D01*
X716694Y306430D01*
X716618Y306418D01*
X716530Y306389D01*
X716436Y306354D01*
X716349Y306301D01*
X716267Y306231D01*
X716261Y306219D01*
X716238Y306196D01*
X716202Y306149D01*
X716167Y306085D01*
X716126Y306003D01*
X716097Y305909D01*
X716074Y305798D01*
X716062Y305669D01*
X715577Y305722D01*
Y305728D01*
Y305745D01*
X715582Y305775D01*
X715588Y305810D01*
X715600Y305856D01*
X715606Y305909D01*
X715641Y306026D01*
X715688Y306161D01*
X715752Y306295D01*
X715840Y306430D01*
X715887Y306488D01*
X715945Y306547D01*
X715951Y306553D01*
X715963Y306558D01*
X715980Y306576D01*
X716004Y306594D01*
X716039Y306611D01*
X716080Y306640D01*
X716126Y306664D01*
X716179Y306693D01*
X716238Y306716D01*
X716302Y306746D01*
X716378Y306769D01*
X716454Y306787D01*
X716630Y306822D01*
X716723Y306828D01*
X716823Y306833D01*
X716875D01*
X716916Y306828D01*
D02*
G37*
G36*
X715220Y306365D02*
X713956D01*
Y302972D01*
X713447D01*
Y306365D01*
X712184D01*
Y306816D01*
X715220D01*
Y306365D01*
D02*
G37*
G36*
X707702Y302972D02*
X707194D01*
Y306816D01*
X707702D01*
Y302972D01*
D02*
G37*
G36*
X722603Y324402D02*
X722644D01*
X722743Y324390D01*
X722860Y324373D01*
X722989Y324349D01*
X723118Y324314D01*
X723241Y324267D01*
X723246D01*
X723252Y324261D01*
X723270Y324256D01*
X723293Y324244D01*
X723352Y324209D01*
X723428Y324168D01*
X723510Y324110D01*
X723592Y324039D01*
X723673Y323957D01*
X723744Y323864D01*
X723749Y323852D01*
X723773Y323817D01*
X723802Y323758D01*
X723831Y323688D01*
X723867Y323601D01*
X723902Y323495D01*
X723925Y323384D01*
X723937Y323261D01*
X723451Y323226D01*
Y323232D01*
Y323244D01*
X723445Y323261D01*
X723440Y323285D01*
X723428Y323349D01*
X723404Y323431D01*
X723369Y323519D01*
X723322Y323606D01*
X723258Y323694D01*
X723182Y323770D01*
X723170Y323776D01*
X723141Y323799D01*
X723089Y323829D01*
X723018Y323864D01*
X722925Y323899D01*
X722808Y323928D01*
X722673Y323952D01*
X722515Y323957D01*
X722439D01*
X722404Y323952D01*
X722357D01*
X722258Y323934D01*
X722147Y323916D01*
X722036Y323887D01*
X721930Y323846D01*
X721883Y323817D01*
X721842Y323788D01*
X721837Y323782D01*
X721813Y323758D01*
X721778Y323723D01*
X721743Y323671D01*
X721702Y323612D01*
X721673Y323542D01*
X721649Y323466D01*
X721638Y323378D01*
Y323366D01*
Y323343D01*
X721643Y323302D01*
X721655Y323255D01*
X721673Y323203D01*
X721702Y323144D01*
X721737Y323092D01*
X721784Y323039D01*
X721790Y323033D01*
X721819Y323015D01*
X721837Y323004D01*
X721860Y322986D01*
X721895Y322974D01*
X721936Y322957D01*
X721983Y322934D01*
X722036Y322910D01*
X722094Y322893D01*
X722164Y322869D01*
X722246Y322840D01*
X722334Y322817D01*
X722433Y322793D01*
X722544Y322764D01*
X722550D01*
X722574Y322758D01*
X722603Y322752D01*
X722644Y322741D01*
X722696Y322729D01*
X722755Y322711D01*
X722884Y322682D01*
X723024Y322641D01*
X723165Y322600D01*
X723235Y322583D01*
X723293Y322559D01*
X723352Y322536D01*
X723398Y322518D01*
X723404D01*
X723416Y322512D01*
X723428Y322501D01*
X723451Y322489D01*
X723510Y322454D01*
X723586Y322413D01*
X723668Y322354D01*
X723749Y322284D01*
X723826Y322208D01*
X723890Y322126D01*
X723896Y322115D01*
X723913Y322085D01*
X723943Y322039D01*
X723972Y321968D01*
X724001Y321892D01*
X724030Y321799D01*
X724048Y321693D01*
X724054Y321582D01*
Y321576D01*
Y321571D01*
Y321553D01*
Y321530D01*
X724042Y321471D01*
X724030Y321395D01*
X724013Y321307D01*
X723978Y321208D01*
X723937Y321103D01*
X723878Y321003D01*
X723872Y320991D01*
X723843Y320956D01*
X723808Y320910D01*
X723749Y320851D01*
X723679Y320781D01*
X723592Y320711D01*
X723486Y320646D01*
X723369Y320582D01*
X723363D01*
X723352Y320576D01*
X723334Y320570D01*
X723311Y320559D01*
X723281Y320547D01*
X723246Y320535D01*
X723153Y320512D01*
X723047Y320482D01*
X722919Y320459D01*
X722784Y320442D01*
X722632Y320436D01*
X722544D01*
X722503Y320442D01*
X722451D01*
X722392Y320447D01*
X722328Y320453D01*
X722193Y320471D01*
X722047Y320500D01*
X721901Y320535D01*
X721761Y320582D01*
X721755D01*
X721743Y320588D01*
X721725Y320599D01*
X721702Y320611D01*
X721638Y320646D01*
X721562Y320699D01*
X721468Y320763D01*
X721380Y320839D01*
X721287Y320933D01*
X721205Y321038D01*
Y321044D01*
X721199Y321050D01*
X721187Y321068D01*
X721175Y321091D01*
X721158Y321120D01*
X721140Y321155D01*
X721105Y321243D01*
X721070Y321342D01*
X721035Y321465D01*
X721012Y321594D01*
X721000Y321734D01*
X721480Y321775D01*
Y321769D01*
Y321764D01*
X721486Y321728D01*
X721497Y321676D01*
X721509Y321606D01*
X721532Y321530D01*
X721556Y321448D01*
X721591Y321372D01*
X721632Y321296D01*
X721638Y321290D01*
X721655Y321266D01*
X721685Y321231D01*
X721731Y321190D01*
X721784Y321144D01*
X721848Y321091D01*
X721930Y321044D01*
X722018Y320997D01*
X722024D01*
X722030Y320991D01*
X722065Y320980D01*
X722117Y320962D01*
X722193Y320945D01*
X722275Y320921D01*
X722381Y320904D01*
X722492Y320892D01*
X722609Y320886D01*
X722656D01*
X722714Y320892D01*
X722778Y320898D01*
X722860Y320904D01*
X722942Y320921D01*
X723030Y320939D01*
X723118Y320968D01*
X723129Y320974D01*
X723153Y320986D01*
X723194Y321003D01*
X723241Y321032D01*
X723299Y321068D01*
X723352Y321108D01*
X723404Y321155D01*
X723451Y321208D01*
X723457Y321214D01*
X723469Y321237D01*
X723486Y321266D01*
X723510Y321307D01*
X723527Y321354D01*
X723545Y321413D01*
X723557Y321471D01*
X723562Y321535D01*
Y321541D01*
Y321565D01*
X723557Y321600D01*
X723551Y321641D01*
X723539Y321693D01*
X723516Y321746D01*
X723492Y321799D01*
X723457Y321851D01*
X723451Y321857D01*
X723440Y321875D01*
X723410Y321898D01*
X723375Y321933D01*
X723328Y321968D01*
X723270Y322004D01*
X723194Y322044D01*
X723112Y322079D01*
X723106Y322085D01*
X723083Y322091D01*
X723036Y322103D01*
X723006Y322115D01*
X722971Y322126D01*
X722925Y322138D01*
X722878Y322150D01*
X722819Y322167D01*
X722761Y322185D01*
X722691Y322202D01*
X722609Y322220D01*
X722521Y322243D01*
X722427Y322267D01*
X722422D01*
X722404Y322273D01*
X722375Y322278D01*
X722340Y322290D01*
X722299Y322302D01*
X722252Y322313D01*
X722141Y322343D01*
X722018Y322384D01*
X721895Y322425D01*
X721784Y322466D01*
X721731Y322483D01*
X721690Y322507D01*
X721685D01*
X721679Y322512D01*
X721643Y322536D01*
X721597Y322565D01*
X721538Y322606D01*
X721468Y322659D01*
X721404Y322717D01*
X721339Y322787D01*
X721281Y322863D01*
X721275Y322875D01*
X721257Y322904D01*
X721240Y322945D01*
X721216Y323004D01*
X721187Y323074D01*
X721170Y323156D01*
X721152Y323250D01*
X721146Y323343D01*
Y323349D01*
Y323355D01*
Y323372D01*
Y323396D01*
X721158Y323448D01*
X721170Y323519D01*
X721187Y323606D01*
X721216Y323694D01*
X721257Y323794D01*
X721310Y323887D01*
Y323893D01*
X721316Y323899D01*
X721339Y323928D01*
X721380Y323975D01*
X721433Y324033D01*
X721497Y324092D01*
X721579Y324156D01*
X721679Y324221D01*
X721790Y324273D01*
X721796D01*
X721802Y324279D01*
X721819Y324285D01*
X721848Y324297D01*
X721877Y324303D01*
X721913Y324314D01*
X721994Y324343D01*
X722100Y324367D01*
X722217Y324384D01*
X722351Y324402D01*
X722492Y324408D01*
X722562D01*
X722603Y324402D01*
D02*
G37*
G36*
X726511D02*
X726557Y324396D01*
X726616Y324390D01*
X726680Y324384D01*
X726751Y324373D01*
X726903Y324338D01*
X727066Y324285D01*
X727148Y324250D01*
X727230Y324209D01*
X727306Y324162D01*
X727382Y324110D01*
X727388Y324104D01*
X727400Y324098D01*
X727418Y324080D01*
X727447Y324057D01*
X727476Y324028D01*
X727517Y323987D01*
X727558Y323946D01*
X727599Y323899D01*
X727646Y323840D01*
X727687Y323782D01*
X727733Y323712D01*
X727780Y323636D01*
X727821Y323559D01*
X727862Y323472D01*
X727932Y323285D01*
X727429Y323168D01*
Y323173D01*
X727423Y323185D01*
X727418Y323209D01*
X727406Y323238D01*
X727388Y323273D01*
X727371Y323314D01*
X727330Y323402D01*
X727277Y323501D01*
X727207Y323606D01*
X727131Y323700D01*
X727037Y323782D01*
X727026Y323788D01*
X726990Y323811D01*
X726938Y323840D01*
X726862Y323881D01*
X726774Y323916D01*
X726663Y323946D01*
X726540Y323969D01*
X726400Y323975D01*
X726359D01*
X726329Y323969D01*
X726288D01*
X726248Y323963D01*
X726142Y323946D01*
X726025Y323922D01*
X725902Y323881D01*
X725779Y323829D01*
X725662Y323758D01*
X725657D01*
X725651Y323747D01*
X725616Y323717D01*
X725563Y323671D01*
X725499Y323606D01*
X725434Y323524D01*
X725364Y323431D01*
X725300Y323314D01*
X725247Y323185D01*
Y323179D01*
X725241Y323168D01*
X725235Y323150D01*
X725230Y323121D01*
X725218Y323092D01*
X725212Y323051D01*
X725189Y322957D01*
X725165Y322846D01*
X725148Y322723D01*
X725136Y322588D01*
X725130Y322448D01*
Y322442D01*
Y322425D01*
Y322401D01*
Y322366D01*
X725136Y322325D01*
Y322273D01*
X725142Y322220D01*
X725148Y322161D01*
X725165Y322027D01*
X725189Y321881D01*
X725224Y321734D01*
X725271Y321594D01*
Y321588D01*
X725276Y321576D01*
X725288Y321559D01*
X725300Y321535D01*
X725329Y321465D01*
X725376Y321389D01*
X725440Y321296D01*
X725516Y321208D01*
X725604Y321120D01*
X725709Y321044D01*
X725715D01*
X725721Y321038D01*
X725738Y321026D01*
X725762Y321015D01*
X725826Y320991D01*
X725908Y320956D01*
X726002Y320927D01*
X726113Y320898D01*
X726236Y320874D01*
X726365Y320869D01*
X726405D01*
X726435Y320874D01*
X726470D01*
X726517Y320880D01*
X726616Y320898D01*
X726727Y320927D01*
X726850Y320974D01*
X726967Y321032D01*
X727084Y321114D01*
X727090Y321120D01*
X727096Y321126D01*
X727131Y321161D01*
X727183Y321219D01*
X727248Y321296D01*
X727312Y321401D01*
X727382Y321524D01*
X727441Y321676D01*
X727488Y321846D01*
X727997Y321717D01*
Y321711D01*
X727991Y321688D01*
X727979Y321658D01*
X727967Y321611D01*
X727944Y321565D01*
X727921Y321500D01*
X727897Y321436D01*
X727862Y321366D01*
X727786Y321208D01*
X727681Y321050D01*
X727564Y320898D01*
X727493Y320828D01*
X727418Y320763D01*
X727412Y320757D01*
X727400Y320752D01*
X727377Y320734D01*
X727341Y320711D01*
X727301Y320687D01*
X727254Y320658D01*
X727201Y320629D01*
X727137Y320599D01*
X727066Y320570D01*
X726990Y320541D01*
X726903Y320512D01*
X726815Y320488D01*
X726622Y320447D01*
X726517Y320442D01*
X726405Y320436D01*
X726347D01*
X726300Y320442D01*
X726248D01*
X726189Y320447D01*
X726119Y320459D01*
X726049Y320465D01*
X725885Y320500D01*
X725715Y320541D01*
X725551Y320605D01*
X725469Y320640D01*
X725393Y320687D01*
X725387Y320693D01*
X725376Y320699D01*
X725358Y320716D01*
X725329Y320734D01*
X725259Y320793D01*
X725177Y320874D01*
X725077Y320974D01*
X724984Y321103D01*
X724884Y321249D01*
X724802Y321418D01*
Y321424D01*
X724797Y321442D01*
X724785Y321465D01*
X724773Y321500D01*
X724756Y321547D01*
X724738Y321600D01*
X724721Y321658D01*
X724703Y321728D01*
X724685Y321799D01*
X724668Y321881D01*
X724633Y322056D01*
X724610Y322243D01*
X724604Y322448D01*
Y322454D01*
Y322477D01*
Y322507D01*
X724610Y322548D01*
Y322600D01*
X724615Y322664D01*
X724621Y322729D01*
X724633Y322805D01*
X724662Y322969D01*
X724697Y323144D01*
X724756Y323326D01*
X724832Y323495D01*
Y323501D01*
X724844Y323513D01*
X724855Y323536D01*
X724873Y323571D01*
X724896Y323606D01*
X724925Y323647D01*
X725001Y323747D01*
X725089Y323858D01*
X725200Y323969D01*
X725335Y324080D01*
X725481Y324174D01*
X725487D01*
X725499Y324185D01*
X725522Y324197D01*
X725557Y324209D01*
X725592Y324226D01*
X725639Y324250D01*
X725698Y324267D01*
X725756Y324291D01*
X725820Y324314D01*
X725891Y324332D01*
X726049Y324373D01*
X726224Y324396D01*
X726411Y324408D01*
X726470D01*
X726511Y324402D01*
D02*
G37*
G36*
X729108Y320951D02*
X730998D01*
Y320500D01*
X728599D01*
Y324343D01*
X729108D01*
Y320951D01*
D02*
G37*
G36*
X703603Y311521D02*
X703644D01*
X703743Y311509D01*
X703860Y311492D01*
X703989Y311469D01*
X704118Y311433D01*
X704241Y311387D01*
X704246D01*
X704252Y311381D01*
X704270Y311375D01*
X704293Y311363D01*
X704352Y311328D01*
X704428Y311287D01*
X704510Y311229D01*
X704592Y311158D01*
X704673Y311077D01*
X704744Y310983D01*
X704749Y310971D01*
X704773Y310936D01*
X704802Y310878D01*
X704831Y310807D01*
X704867Y310720D01*
X704902Y310614D01*
X704925Y310503D01*
X704937Y310380D01*
X704451Y310345D01*
Y310351D01*
Y310363D01*
X704445Y310380D01*
X704439Y310404D01*
X704428Y310468D01*
X704404Y310550D01*
X704369Y310638D01*
X704322Y310726D01*
X704258Y310813D01*
X704182Y310889D01*
X704170Y310895D01*
X704141Y310919D01*
X704088Y310948D01*
X704018Y310983D01*
X703925Y311018D01*
X703808Y311047D01*
X703673Y311071D01*
X703515Y311077D01*
X703439D01*
X703404Y311071D01*
X703357D01*
X703258Y311053D01*
X703147Y311036D01*
X703035Y311006D01*
X702930Y310965D01*
X702883Y310936D01*
X702842Y310907D01*
X702837Y310901D01*
X702813Y310878D01*
X702778Y310843D01*
X702743Y310790D01*
X702702Y310731D01*
X702673Y310661D01*
X702649Y310585D01*
X702638Y310497D01*
Y310486D01*
Y310462D01*
X702643Y310421D01*
X702655Y310375D01*
X702673Y310322D01*
X702702Y310263D01*
X702737Y310211D01*
X702784Y310158D01*
X702790Y310152D01*
X702819Y310135D01*
X702837Y310123D01*
X702860Y310105D01*
X702895Y310094D01*
X702936Y310076D01*
X702983Y310053D01*
X703035Y310029D01*
X703094Y310012D01*
X703164Y309988D01*
X703246Y309959D01*
X703334Y309936D01*
X703433Y309912D01*
X703544Y309883D01*
X703550D01*
X703574Y309877D01*
X703603Y309872D01*
X703644Y309860D01*
X703696Y309848D01*
X703755Y309830D01*
X703884Y309801D01*
X704024Y309760D01*
X704165Y309719D01*
X704235Y309702D01*
X704293Y309678D01*
X704352Y309655D01*
X704398Y309637D01*
X704404D01*
X704416Y309632D01*
X704428Y309620D01*
X704451Y309608D01*
X704510Y309573D01*
X704586Y309532D01*
X704668Y309474D01*
X704749Y309403D01*
X704826Y309327D01*
X704890Y309245D01*
X704896Y309234D01*
X704913Y309205D01*
X704943Y309158D01*
X704972Y309088D01*
X705001Y309012D01*
X705030Y308918D01*
X705048Y308813D01*
X705054Y308701D01*
Y308696D01*
Y308690D01*
Y308672D01*
Y308649D01*
X705042Y308590D01*
X705030Y308514D01*
X705013Y308426D01*
X704978Y308327D01*
X704937Y308222D01*
X704878Y308122D01*
X704872Y308111D01*
X704843Y308075D01*
X704808Y308029D01*
X704749Y307970D01*
X704679Y307900D01*
X704592Y307830D01*
X704486Y307766D01*
X704369Y307701D01*
X704363D01*
X704352Y307695D01*
X704334Y307689D01*
X704311Y307678D01*
X704282Y307666D01*
X704246Y307654D01*
X704153Y307631D01*
X704047Y307602D01*
X703919Y307578D01*
X703784Y307561D01*
X703632Y307555D01*
X703544D01*
X703503Y307561D01*
X703451D01*
X703392Y307567D01*
X703328Y307572D01*
X703193Y307590D01*
X703047Y307619D01*
X702901Y307654D01*
X702761Y307701D01*
X702755D01*
X702743Y307707D01*
X702725Y307719D01*
X702702Y307730D01*
X702638Y307766D01*
X702562Y307818D01*
X702468Y307882D01*
X702380Y307959D01*
X702287Y308052D01*
X702205Y308157D01*
Y308163D01*
X702199Y308169D01*
X702187Y308187D01*
X702176Y308210D01*
X702158Y308239D01*
X702140Y308274D01*
X702105Y308362D01*
X702070Y308462D01*
X702035Y308584D01*
X702012Y308713D01*
X702000Y308854D01*
X702480Y308894D01*
Y308889D01*
Y308883D01*
X702486Y308848D01*
X702497Y308795D01*
X702509Y308725D01*
X702532Y308649D01*
X702556Y308567D01*
X702591Y308491D01*
X702632Y308415D01*
X702638Y308409D01*
X702655Y308386D01*
X702684Y308350D01*
X702731Y308310D01*
X702784Y308263D01*
X702848Y308210D01*
X702930Y308163D01*
X703018Y308117D01*
X703024D01*
X703030Y308111D01*
X703065Y308099D01*
X703117Y308081D01*
X703193Y308064D01*
X703275Y308040D01*
X703381Y308023D01*
X703492Y308011D01*
X703609Y308005D01*
X703656D01*
X703714Y308011D01*
X703778Y308017D01*
X703860Y308023D01*
X703942Y308040D01*
X704030Y308058D01*
X704118Y308087D01*
X704129Y308093D01*
X704153Y308105D01*
X704194Y308122D01*
X704241Y308152D01*
X704299Y308187D01*
X704352Y308228D01*
X704404Y308274D01*
X704451Y308327D01*
X704457Y308333D01*
X704469Y308356D01*
X704486Y308386D01*
X704510Y308426D01*
X704527Y308473D01*
X704545Y308532D01*
X704557Y308590D01*
X704562Y308655D01*
Y308661D01*
Y308684D01*
X704557Y308719D01*
X704551Y308760D01*
X704539Y308813D01*
X704516Y308865D01*
X704492Y308918D01*
X704457Y308971D01*
X704451Y308976D01*
X704439Y308994D01*
X704410Y309017D01*
X704375Y309052D01*
X704328Y309088D01*
X704270Y309123D01*
X704194Y309164D01*
X704112Y309199D01*
X704106Y309205D01*
X704083Y309210D01*
X704036Y309222D01*
X704006Y309234D01*
X703971Y309245D01*
X703925Y309257D01*
X703878Y309269D01*
X703819Y309286D01*
X703761Y309304D01*
X703691Y309322D01*
X703609Y309339D01*
X703521Y309363D01*
X703427Y309386D01*
X703422D01*
X703404Y309392D01*
X703375Y309398D01*
X703340Y309409D01*
X703299Y309421D01*
X703252Y309433D01*
X703141Y309462D01*
X703018Y309503D01*
X702895Y309544D01*
X702784Y309585D01*
X702731Y309602D01*
X702690Y309626D01*
X702684D01*
X702679Y309632D01*
X702643Y309655D01*
X702597Y309684D01*
X702538Y309725D01*
X702468Y309778D01*
X702404Y309836D01*
X702339Y309907D01*
X702281Y309983D01*
X702275Y309994D01*
X702257Y310024D01*
X702240Y310065D01*
X702216Y310123D01*
X702187Y310193D01*
X702170Y310275D01*
X702152Y310369D01*
X702146Y310462D01*
Y310468D01*
Y310474D01*
Y310492D01*
Y310515D01*
X702158Y310568D01*
X702170Y310638D01*
X702187Y310726D01*
X702216Y310813D01*
X702257Y310913D01*
X702310Y311006D01*
Y311012D01*
X702316Y311018D01*
X702339Y311047D01*
X702380Y311094D01*
X702433Y311153D01*
X702497Y311211D01*
X702579Y311276D01*
X702679Y311340D01*
X702790Y311392D01*
X702796D01*
X702802Y311398D01*
X702819Y311404D01*
X702848Y311416D01*
X702878Y311422D01*
X702913Y311433D01*
X702994Y311463D01*
X703100Y311486D01*
X703217Y311504D01*
X703351Y311521D01*
X703492Y311527D01*
X703562D01*
X703603Y311521D01*
D02*
G37*
G36*
X712787Y307619D02*
X712214D01*
X711769Y308783D01*
X710155D01*
X709739Y307619D01*
X709201D01*
X710670Y311463D01*
X711226D01*
X712787Y307619D01*
D02*
G37*
G36*
X707324Y311457D02*
X707429Y311451D01*
X707546Y311439D01*
X707657Y311422D01*
X707751Y311404D01*
X707756D01*
X707768Y311398D01*
X707780D01*
X707803Y311387D01*
X707868Y311369D01*
X707944Y311340D01*
X708031Y311305D01*
X708125Y311258D01*
X708218Y311199D01*
X708312Y311129D01*
X708318D01*
X708324Y311118D01*
X708365Y311082D01*
X708418Y311024D01*
X708482Y310948D01*
X708558Y310854D01*
X708634Y310743D01*
X708704Y310614D01*
X708769Y310468D01*
Y310462D01*
X708774Y310451D01*
X708780Y310427D01*
X708792Y310398D01*
X708804Y310363D01*
X708815Y310316D01*
X708833Y310263D01*
X708845Y310205D01*
X708856Y310141D01*
X708874Y310070D01*
X708897Y309918D01*
X708915Y309749D01*
X708921Y309561D01*
Y309556D01*
Y309544D01*
Y309521D01*
Y309485D01*
X708915Y309450D01*
Y309403D01*
X708909Y309298D01*
X708897Y309181D01*
X708874Y309047D01*
X708850Y308912D01*
X708815Y308783D01*
Y308777D01*
X708809Y308766D01*
X708804Y308748D01*
X708798Y308725D01*
X708774Y308666D01*
X708745Y308584D01*
X708710Y308497D01*
X708663Y308403D01*
X708610Y308310D01*
X708552Y308222D01*
X708546Y308210D01*
X708523Y308187D01*
X708494Y308146D01*
X708447Y308093D01*
X708400Y308040D01*
X708335Y307982D01*
X708271Y307923D01*
X708201Y307871D01*
X708195Y307865D01*
X708166Y307853D01*
X708125Y307830D01*
X708072Y307801D01*
X708008Y307771D01*
X707932Y307742D01*
X707844Y307713D01*
X707745Y307684D01*
X707733D01*
X707698Y307672D01*
X707645Y307666D01*
X707569Y307654D01*
X707481Y307643D01*
X707376Y307631D01*
X707259Y307625D01*
X707130Y307619D01*
X705750D01*
Y311463D01*
X707224D01*
X707324Y311457D01*
D02*
G37*
G36*
X683881Y296738D02*
X683957Y296726D01*
X684045Y296708D01*
X684144Y296685D01*
X684244Y296650D01*
X684343Y296603D01*
X684349D01*
X684355Y296597D01*
X684390Y296580D01*
X684437Y296550D01*
X684495Y296510D01*
X684559Y296457D01*
X684630Y296392D01*
X684694Y296316D01*
X684753Y296234D01*
X684758Y296223D01*
X684776Y296194D01*
X684799Y296147D01*
X684823Y296088D01*
X684846Y296012D01*
X684869Y295930D01*
X684887Y295843D01*
X684893Y295743D01*
Y295731D01*
Y295702D01*
X684887Y295655D01*
X684875Y295597D01*
X684858Y295527D01*
X684834Y295451D01*
X684805Y295369D01*
X684758Y295293D01*
X684753Y295281D01*
X684735Y295258D01*
X684700Y295222D01*
X684659Y295176D01*
X684600Y295123D01*
X684536Y295070D01*
X684454Y295012D01*
X684361Y294965D01*
X684366D01*
X684378Y294959D01*
X684396D01*
X684419Y294948D01*
X684478Y294930D01*
X684554Y294895D01*
X684635Y294854D01*
X684723Y294795D01*
X684811Y294725D01*
X684887Y294637D01*
X684893Y294626D01*
X684916Y294591D01*
X684946Y294538D01*
X684986Y294468D01*
X685022Y294380D01*
X685051Y294275D01*
X685074Y294152D01*
X685080Y294017D01*
Y294011D01*
Y293994D01*
Y293971D01*
X685074Y293935D01*
X685068Y293889D01*
X685063Y293842D01*
X685051Y293783D01*
X685033Y293725D01*
X684992Y293590D01*
X684963Y293514D01*
X684922Y293444D01*
X684881Y293374D01*
X684834Y293304D01*
X684776Y293233D01*
X684712Y293163D01*
X684706Y293157D01*
X684694Y293146D01*
X684677Y293134D01*
X684647Y293111D01*
X684612Y293081D01*
X684565Y293052D01*
X684513Y293023D01*
X684460Y292994D01*
X684396Y292958D01*
X684326Y292929D01*
X684249Y292900D01*
X684167Y292871D01*
X684080Y292847D01*
X683986Y292836D01*
X683887Y292824D01*
X683787Y292818D01*
X683741D01*
X683705Y292824D01*
X683659Y292830D01*
X683612Y292836D01*
X683553Y292842D01*
X683495Y292853D01*
X683360Y292888D01*
X683220Y292947D01*
X683150Y292976D01*
X683085Y293017D01*
X683015Y293064D01*
X682951Y293116D01*
X682945Y293122D01*
X682939Y293128D01*
X682922Y293146D01*
X682898Y293169D01*
X682875Y293204D01*
X682845Y293239D01*
X682810Y293280D01*
X682781Y293327D01*
X682711Y293444D01*
X682652Y293579D01*
X682600Y293731D01*
X682582Y293813D01*
X682571Y293900D01*
X683044Y293965D01*
Y293959D01*
X683050Y293947D01*
Y293924D01*
X683062Y293900D01*
X683079Y293830D01*
X683109Y293742D01*
X683144Y293649D01*
X683191Y293549D01*
X683249Y293462D01*
X683313Y293386D01*
X683325Y293380D01*
X683349Y293356D01*
X683390Y293333D01*
X683448Y293298D01*
X683512Y293269D01*
X683594Y293239D01*
X683688Y293216D01*
X683787Y293210D01*
X683822D01*
X683846Y293216D01*
X683904Y293222D01*
X683980Y293239D01*
X684074Y293269D01*
X684167Y293304D01*
X684261Y293362D01*
X684349Y293438D01*
X684361Y293450D01*
X684384Y293479D01*
X684419Y293526D01*
X684466Y293596D01*
X684507Y293678D01*
X684542Y293777D01*
X684565Y293889D01*
X684577Y294011D01*
Y294017D01*
Y294023D01*
Y294041D01*
X684571Y294064D01*
X684565Y294123D01*
X684548Y294199D01*
X684524Y294281D01*
X684483Y294374D01*
X684431Y294462D01*
X684361Y294544D01*
X684349Y294556D01*
X684326Y294579D01*
X684279Y294608D01*
X684214Y294649D01*
X684138Y294690D01*
X684045Y294719D01*
X683945Y294743D01*
X683828Y294755D01*
X683776D01*
X683735Y294749D01*
X683688Y294743D01*
X683629Y294737D01*
X683565Y294725D01*
X683495Y294708D01*
X683547Y295123D01*
X683577D01*
X683600Y295117D01*
X683676D01*
X683729Y295123D01*
X683805Y295135D01*
X683887Y295152D01*
X683975Y295181D01*
X684068Y295217D01*
X684162Y295269D01*
X684173Y295275D01*
X684203Y295299D01*
X684238Y295339D01*
X684284Y295392D01*
X684331Y295457D01*
X684366Y295538D01*
X684396Y295638D01*
X684407Y295755D01*
Y295761D01*
Y295766D01*
Y295796D01*
X684396Y295843D01*
X684384Y295907D01*
X684366Y295971D01*
X684331Y296041D01*
X684290Y296117D01*
X684232Y296182D01*
X684226Y296188D01*
X684203Y296211D01*
X684162Y296240D01*
X684109Y296270D01*
X684045Y296305D01*
X683969Y296328D01*
X683881Y296352D01*
X683781Y296357D01*
X683735D01*
X683682Y296346D01*
X683624Y296334D01*
X683547Y296316D01*
X683471Y296281D01*
X683395Y296240D01*
X683319Y296182D01*
X683313Y296176D01*
X683290Y296153D01*
X683261Y296112D01*
X683226Y296053D01*
X683185Y295983D01*
X683150Y295895D01*
X683114Y295790D01*
X683091Y295667D01*
X682617Y295749D01*
Y295755D01*
X682623Y295772D01*
X682629Y295796D01*
X682635Y295825D01*
X682647Y295866D01*
X682658Y295913D01*
X682699Y296018D01*
X682746Y296135D01*
X682816Y296258D01*
X682898Y296375D01*
X683003Y296480D01*
X683009Y296486D01*
X683015Y296492D01*
X683033Y296504D01*
X683062Y296521D01*
X683091Y296539D01*
X683126Y296562D01*
X683214Y296615D01*
X683325Y296662D01*
X683460Y296703D01*
X683606Y296732D01*
X683688Y296743D01*
X683822D01*
X683881Y296738D01*
D02*
G37*
G36*
X693141Y299851D02*
X693662D01*
Y299418D01*
X693141D01*
Y298500D01*
X692667D01*
Y299418D01*
X691000D01*
Y299851D01*
X692755Y302338D01*
X693141D01*
Y299851D01*
D02*
G37*
G36*
X685457Y310855D02*
X685492D01*
X685539Y310849D01*
X685644Y310832D01*
X685761Y310797D01*
X685884Y310750D01*
X686006Y310691D01*
X686065Y310650D01*
X686124Y310604D01*
X686129D01*
X686135Y310592D01*
X686170Y310557D01*
X686217Y310498D01*
X686276Y310422D01*
X686340Y310323D01*
X686393Y310206D01*
X686445Y310065D01*
X686475Y309908D01*
X686006Y309872D01*
Y309878D01*
Y309884D01*
X685995Y309919D01*
X685977Y309966D01*
X685960Y310024D01*
X685901Y310159D01*
X685866Y310217D01*
X685825Y310270D01*
X685819Y310282D01*
X685790Y310305D01*
X685749Y310334D01*
X685697Y310375D01*
X685626Y310411D01*
X685544Y310446D01*
X685451Y310469D01*
X685351Y310475D01*
X685310D01*
X685269Y310469D01*
X685217Y310457D01*
X685152Y310446D01*
X685082Y310422D01*
X685018Y310387D01*
X684948Y310346D01*
X684936Y310340D01*
X684913Y310317D01*
X684872Y310276D01*
X684825Y310223D01*
X684766Y310159D01*
X684708Y310077D01*
X684649Y309978D01*
X684597Y309866D01*
Y309861D01*
X684591Y309855D01*
X684585Y309831D01*
X684579Y309808D01*
X684567Y309779D01*
X684556Y309738D01*
X684544Y309691D01*
X684532Y309638D01*
X684521Y309580D01*
X684509Y309516D01*
X684497Y309439D01*
X684485Y309363D01*
X684480Y309276D01*
X684474Y309182D01*
X684468Y309083D01*
Y308983D01*
X684474Y308989D01*
X684497Y309018D01*
X684532Y309065D01*
X684585Y309123D01*
X684644Y309188D01*
X684714Y309252D01*
X684796Y309311D01*
X684883Y309363D01*
X684895Y309369D01*
X684924Y309381D01*
X684977Y309404D01*
X685041Y309428D01*
X685117Y309451D01*
X685205Y309474D01*
X685299Y309486D01*
X685398Y309492D01*
X685445D01*
X685480Y309486D01*
X685521Y309480D01*
X685568Y309474D01*
X685679Y309451D01*
X685802Y309404D01*
X685872Y309381D01*
X685936Y309346D01*
X686006Y309305D01*
X686077Y309258D01*
X686141Y309206D01*
X686205Y309141D01*
X686211Y309135D01*
X686217Y309123D01*
X686235Y309106D01*
X686258Y309077D01*
X686281Y309042D01*
X686311Y309001D01*
X686340Y308954D01*
X686375Y308901D01*
X686404Y308837D01*
X686434Y308773D01*
X686463Y308697D01*
X686486Y308620D01*
X686510Y308533D01*
X686527Y308445D01*
X686533Y308346D01*
X686539Y308246D01*
Y308240D01*
Y308228D01*
Y308211D01*
Y308188D01*
X686533Y308152D01*
Y308117D01*
X686521Y308024D01*
X686498Y307924D01*
X686475Y307807D01*
X686434Y307690D01*
X686381Y307573D01*
Y307568D01*
X686375Y307562D01*
X686363Y307544D01*
X686352Y307521D01*
X686317Y307468D01*
X686270Y307398D01*
X686205Y307322D01*
X686129Y307246D01*
X686048Y307170D01*
X685948Y307099D01*
X685936Y307094D01*
X685901Y307076D01*
X685843Y307047D01*
X685773Y307017D01*
X685679Y306988D01*
X685574Y306959D01*
X685457Y306942D01*
X685334Y306936D01*
X685310D01*
X685275Y306942D01*
X685234D01*
X685188Y306947D01*
X685129Y306959D01*
X685065Y306971D01*
X684995Y306988D01*
X684918Y307012D01*
X684836Y307041D01*
X684761Y307076D01*
X684679Y307117D01*
X684597Y307170D01*
X684515Y307228D01*
X684439Y307293D01*
X684369Y307369D01*
X684363Y307374D01*
X684351Y307392D01*
X684333Y307415D01*
X684310Y307451D01*
X684281Y307497D01*
X684252Y307556D01*
X684216Y307626D01*
X684187Y307708D01*
X684152Y307802D01*
X684117Y307907D01*
X684088Y308024D01*
X684059Y308152D01*
X684035Y308293D01*
X684018Y308451D01*
X684006Y308615D01*
X684000Y308796D01*
Y308802D01*
Y308808D01*
Y308825D01*
Y308843D01*
Y308901D01*
X684006Y308977D01*
X684012Y309071D01*
X684023Y309176D01*
X684035Y309293D01*
X684053Y309416D01*
X684070Y309551D01*
X684099Y309685D01*
X684135Y309820D01*
X684175Y309948D01*
X684222Y310083D01*
X684275Y310200D01*
X684339Y310317D01*
X684410Y310416D01*
X684415Y310422D01*
X684427Y310434D01*
X684445Y310457D01*
X684474Y310487D01*
X684515Y310522D01*
X684556Y310557D01*
X684608Y310598D01*
X684667Y310639D01*
X684731Y310680D01*
X684807Y310721D01*
X684883Y310756D01*
X684971Y310791D01*
X685065Y310820D01*
X685164Y310843D01*
X685269Y310855D01*
X685381Y310861D01*
X685422D01*
X685457Y310855D01*
D02*
G37*
G36*
X692863Y310461D02*
X691331D01*
X691120Y309425D01*
X691126Y309431D01*
X691138Y309437D01*
X691155Y309449D01*
X691179Y309466D01*
X691214Y309484D01*
X691249Y309502D01*
X691342Y309548D01*
X691448Y309595D01*
X691571Y309630D01*
X691705Y309660D01*
X691846Y309671D01*
X691892D01*
X691927Y309665D01*
X691974Y309660D01*
X692021Y309654D01*
X692079Y309642D01*
X692138Y309630D01*
X692273Y309583D01*
X692343Y309560D01*
X692413Y309525D01*
X692489Y309484D01*
X692559Y309437D01*
X692629Y309384D01*
X692694Y309320D01*
X692700Y309314D01*
X692711Y309303D01*
X692729Y309285D01*
X692746Y309256D01*
X692776Y309221D01*
X692805Y309180D01*
X692834Y309133D01*
X692869Y309080D01*
X692904Y309016D01*
X692934Y308952D01*
X692963Y308876D01*
X692992Y308800D01*
X693010Y308712D01*
X693027Y308624D01*
X693039Y308525D01*
X693045Y308425D01*
Y308419D01*
Y308402D01*
Y308372D01*
X693039Y308337D01*
X693033Y308291D01*
X693027Y308238D01*
X693021Y308179D01*
X693010Y308115D01*
X692969Y307975D01*
X692916Y307828D01*
X692881Y307747D01*
X692840Y307670D01*
X692793Y307594D01*
X692740Y307524D01*
X692735Y307518D01*
X692723Y307507D01*
X692700Y307483D01*
X692670Y307454D01*
X692635Y307419D01*
X692589Y307378D01*
X692536Y307337D01*
X692472Y307296D01*
X692407Y307249D01*
X692331Y307208D01*
X692243Y307167D01*
X692156Y307132D01*
X692056Y307103D01*
X691957Y307080D01*
X691846Y307068D01*
X691728Y307062D01*
X691676D01*
X691641Y307068D01*
X691600Y307074D01*
X691547Y307080D01*
X691489Y307085D01*
X691424Y307097D01*
X691290Y307132D01*
X691149Y307185D01*
X691079Y307220D01*
X691009Y307261D01*
X690939Y307302D01*
X690874Y307355D01*
X690869Y307360D01*
X690863Y307366D01*
X690845Y307384D01*
X690822Y307407D01*
X690798Y307436D01*
X690769Y307472D01*
X690740Y307512D01*
X690705Y307559D01*
X690640Y307670D01*
X690576Y307805D01*
X690529Y307957D01*
X690512Y308045D01*
X690500Y308133D01*
X690997Y308168D01*
Y308162D01*
Y308150D01*
X691003Y308133D01*
X691009Y308109D01*
X691026Y308045D01*
X691050Y307963D01*
X691079Y307875D01*
X691126Y307787D01*
X691179Y307700D01*
X691249Y307624D01*
X691260Y307618D01*
X691284Y307594D01*
X691325Y307571D01*
X691383Y307536D01*
X691454Y307507D01*
X691536Y307477D01*
X691629Y307454D01*
X691728Y307448D01*
X691764D01*
X691787Y307454D01*
X691851Y307460D01*
X691933Y307477D01*
X692021Y307512D01*
X692120Y307554D01*
X692214Y307618D01*
X692261Y307653D01*
X692308Y307700D01*
Y307706D01*
X692319Y307711D01*
X692343Y307747D01*
X692384Y307805D01*
X692425Y307881D01*
X692466Y307980D01*
X692507Y308098D01*
X692530Y308232D01*
X692542Y308384D01*
Y308390D01*
Y308402D01*
Y308425D01*
X692536Y308449D01*
Y308484D01*
X692530Y308525D01*
X692512Y308618D01*
X692489Y308718D01*
X692448Y308823D01*
X692389Y308928D01*
X692313Y309022D01*
X692302Y309033D01*
X692273Y309057D01*
X692226Y309098D01*
X692156Y309139D01*
X692074Y309180D01*
X691968Y309221D01*
X691851Y309244D01*
X691723Y309256D01*
X691682D01*
X691641Y309250D01*
X691582Y309244D01*
X691518Y309227D01*
X691448Y309209D01*
X691377Y309180D01*
X691307Y309145D01*
X691301Y309139D01*
X691278Y309127D01*
X691243Y309104D01*
X691202Y309074D01*
X691161Y309033D01*
X691114Y308987D01*
X691068Y308934D01*
X691026Y308876D01*
X690582Y308940D01*
X690956Y310911D01*
X692863D01*
Y310461D01*
D02*
G37*
G36*
X472433Y289458D02*
X472480Y289453D01*
X472533Y289447D01*
X472591Y289441D01*
X472656Y289423D01*
X472796Y289388D01*
X472942Y289335D01*
X473018Y289300D01*
X473089Y289260D01*
X473153Y289207D01*
X473217Y289154D01*
X473223Y289148D01*
X473229Y289142D01*
X473246Y289125D01*
X473270Y289102D01*
X473293Y289066D01*
X473322Y289031D01*
X473381Y288944D01*
X473440Y288832D01*
X473492Y288704D01*
X473533Y288558D01*
X473539Y288476D01*
X473545Y288394D01*
Y288382D01*
Y288353D01*
X473539Y288306D01*
X473533Y288247D01*
X473521Y288177D01*
X473504Y288101D01*
X473480Y288019D01*
X473445Y287937D01*
X473440Y287926D01*
X473428Y287896D01*
X473404Y287856D01*
X473369Y287797D01*
X473328Y287727D01*
X473276Y287645D01*
X473206Y287563D01*
X473129Y287469D01*
X473118Y287458D01*
X473089Y287423D01*
X473036Y287370D01*
X473001Y287335D01*
X472960Y287294D01*
X472913Y287247D01*
X472854Y287194D01*
X472796Y287142D01*
X472732Y287077D01*
X472661Y287013D01*
X472579Y286943D01*
X472498Y286873D01*
X472404Y286791D01*
X472398Y286785D01*
X472386Y286773D01*
X472363Y286756D01*
X472334Y286732D01*
X472264Y286674D01*
X472176Y286598D01*
X472088Y286516D01*
X471994Y286434D01*
X471918Y286364D01*
X471889Y286334D01*
X471860Y286305D01*
X471854Y286299D01*
X471842Y286282D01*
X471819Y286258D01*
X471790Y286223D01*
X471725Y286147D01*
X471661Y286054D01*
X473551D01*
Y285603D01*
X471006D01*
Y285609D01*
Y285632D01*
Y285667D01*
X471012Y285708D01*
X471018Y285755D01*
X471023Y285808D01*
X471041Y285866D01*
X471059Y285925D01*
Y285931D01*
X471064Y285937D01*
X471076Y285972D01*
X471099Y286019D01*
X471135Y286089D01*
X471175Y286165D01*
X471234Y286253D01*
X471292Y286340D01*
X471369Y286434D01*
Y286440D01*
X471380Y286446D01*
X471410Y286481D01*
X471456Y286533D01*
X471526Y286603D01*
X471614Y286685D01*
X471720Y286785D01*
X471848Y286896D01*
X471989Y287019D01*
X471994Y287025D01*
X472018Y287042D01*
X472047Y287066D01*
X472088Y287107D01*
X472141Y287148D01*
X472199Y287200D01*
X472328Y287311D01*
X472468Y287446D01*
X472609Y287580D01*
X472679Y287645D01*
X472737Y287709D01*
X472790Y287773D01*
X472837Y287832D01*
Y287838D01*
X472849Y287844D01*
X472860Y287861D01*
X472872Y287885D01*
X472907Y287943D01*
X472948Y288019D01*
X472989Y288107D01*
X473024Y288201D01*
X473047Y288306D01*
X473059Y288405D01*
Y288411D01*
Y288417D01*
X473053Y288452D01*
X473047Y288505D01*
X473036Y288569D01*
X473006Y288645D01*
X472971Y288721D01*
X472925Y288803D01*
X472854Y288879D01*
X472843Y288885D01*
X472819Y288908D01*
X472773Y288938D01*
X472714Y288979D01*
X472638Y289014D01*
X472550Y289043D01*
X472445Y289066D01*
X472328Y289072D01*
X472293D01*
X472269Y289066D01*
X472211Y289061D01*
X472135Y289049D01*
X472047Y289020D01*
X471953Y288984D01*
X471866Y288932D01*
X471784Y288862D01*
X471778Y288850D01*
X471755Y288826D01*
X471720Y288780D01*
X471685Y288715D01*
X471643Y288633D01*
X471614Y288540D01*
X471591Y288429D01*
X471579Y288300D01*
X471094Y288353D01*
Y288359D01*
Y288376D01*
X471099Y288405D01*
X471105Y288440D01*
X471117Y288487D01*
X471123Y288540D01*
X471158Y288657D01*
X471205Y288791D01*
X471269Y288926D01*
X471357Y289061D01*
X471404Y289119D01*
X471462Y289178D01*
X471468Y289183D01*
X471480Y289189D01*
X471497Y289207D01*
X471521Y289224D01*
X471556Y289242D01*
X471597Y289271D01*
X471643Y289295D01*
X471696Y289324D01*
X471755Y289347D01*
X471819Y289376D01*
X471895Y289400D01*
X471971Y289417D01*
X472147Y289453D01*
X472240Y289458D01*
X472340Y289464D01*
X472392D01*
X472433Y289458D01*
D02*
G37*
G36*
X479416Y294529D02*
X478942D01*
Y297536D01*
X478936Y297531D01*
X478913Y297507D01*
X478872Y297478D01*
X478819Y297437D01*
X478755Y297384D01*
X478679Y297332D01*
X478591Y297267D01*
X478491Y297209D01*
X478485D01*
X478480Y297203D01*
X478445Y297180D01*
X478392Y297150D01*
X478328Y297115D01*
X478252Y297074D01*
X478170Y297039D01*
X478082Y296998D01*
X478000Y296963D01*
Y297425D01*
X478006D01*
X478018Y297431D01*
X478041Y297443D01*
X478064Y297460D01*
X478099Y297478D01*
X478140Y297495D01*
X478234Y297548D01*
X478339Y297612D01*
X478456Y297688D01*
X478573Y297776D01*
X478685Y297870D01*
X478690Y297876D01*
X478696Y297882D01*
X478731Y297917D01*
X478784Y297969D01*
X478848Y298034D01*
X478919Y298115D01*
X478989Y298203D01*
X479053Y298297D01*
X479106Y298390D01*
X479416D01*
Y294529D01*
D02*
G37*
G36*
X467128Y308290D02*
X467122Y308284D01*
X467110Y308273D01*
X467092Y308249D01*
X467063Y308220D01*
X467034Y308179D01*
X466993Y308132D01*
X466946Y308074D01*
X466899Y308015D01*
X466847Y307945D01*
X466788Y307863D01*
X466724Y307781D01*
X466665Y307688D01*
X466601Y307588D01*
X466531Y307483D01*
X466466Y307366D01*
X466396Y307249D01*
X466390Y307243D01*
X466379Y307220D01*
X466361Y307185D01*
X466338Y307138D01*
X466308Y307079D01*
X466273Y307009D01*
X466232Y306927D01*
X466191Y306839D01*
X466151Y306746D01*
X466104Y306641D01*
X466057Y306529D01*
X466010Y306413D01*
X465922Y306173D01*
X465840Y305915D01*
Y305909D01*
X465835Y305892D01*
X465829Y305868D01*
X465817Y305833D01*
X465805Y305786D01*
X465794Y305734D01*
X465782Y305669D01*
X465764Y305605D01*
X465753Y305529D01*
X465735Y305447D01*
X465706Y305272D01*
X465683Y305073D01*
X465665Y304862D01*
X465179D01*
Y304868D01*
Y304886D01*
Y304909D01*
X465185Y304944D01*
Y304985D01*
X465191Y305038D01*
X465197Y305102D01*
X465203Y305166D01*
X465214Y305242D01*
X465226Y305330D01*
X465238Y305418D01*
X465255Y305512D01*
X465273Y305617D01*
X465296Y305722D01*
X465355Y305956D01*
Y305962D01*
X465361Y305985D01*
X465373Y306020D01*
X465384Y306067D01*
X465402Y306126D01*
X465425Y306190D01*
X465449Y306266D01*
X465478Y306354D01*
X465513Y306442D01*
X465548Y306541D01*
X465630Y306752D01*
X465729Y306974D01*
X465840Y307196D01*
X465846Y307202D01*
X465858Y307226D01*
X465876Y307255D01*
X465899Y307296D01*
X465928Y307348D01*
X465963Y307407D01*
X466004Y307471D01*
X466045Y307547D01*
X466151Y307705D01*
X466267Y307875D01*
X466390Y308045D01*
X466525Y308208D01*
X464641D01*
Y308659D01*
X467128D01*
Y308290D01*
D02*
G37*
G36*
X466834Y326855D02*
X466881D01*
X466927Y326843D01*
X467044Y326826D01*
X467173Y326791D01*
X467308Y326738D01*
X467378Y326703D01*
X467442Y326668D01*
X467507Y326621D01*
X467565Y326569D01*
X467571Y326563D01*
X467577Y326557D01*
X467594Y326539D01*
X467612Y326516D01*
X467635Y326487D01*
X467664Y326451D01*
X467723Y326370D01*
X467776Y326264D01*
X467828Y326141D01*
X467863Y326007D01*
X467869Y325931D01*
X467875Y325855D01*
Y325843D01*
Y325808D01*
X467869Y325761D01*
X467858Y325697D01*
X467840Y325621D01*
X467817Y325545D01*
X467781Y325463D01*
X467735Y325387D01*
X467729Y325381D01*
X467711Y325358D01*
X467676Y325322D01*
X467629Y325276D01*
X467571Y325229D01*
X467495Y325182D01*
X467407Y325129D01*
X467308Y325089D01*
X467313D01*
X467325Y325083D01*
X467343Y325077D01*
X467366Y325065D01*
X467430Y325036D01*
X467507Y325001D01*
X467594Y324948D01*
X467682Y324884D01*
X467770Y324802D01*
X467846Y324714D01*
X467852Y324702D01*
X467875Y324667D01*
X467904Y324615D01*
X467940Y324538D01*
X467975Y324451D01*
X468004Y324345D01*
X468027Y324229D01*
X468033Y324100D01*
Y324094D01*
Y324076D01*
Y324053D01*
X468027Y324018D01*
X468021Y323977D01*
X468015Y323924D01*
X467992Y323807D01*
X467945Y323679D01*
X467922Y323608D01*
X467887Y323538D01*
X467846Y323468D01*
X467799Y323398D01*
X467746Y323333D01*
X467682Y323269D01*
X467676Y323263D01*
X467664Y323257D01*
X467647Y323240D01*
X467618Y323216D01*
X467583Y323193D01*
X467542Y323164D01*
X467495Y323134D01*
X467436Y323105D01*
X467372Y323070D01*
X467302Y323041D01*
X467226Y323012D01*
X467144Y322988D01*
X467062Y322965D01*
X466968Y322947D01*
X466869Y322941D01*
X466764Y322936D01*
X466711D01*
X466670Y322941D01*
X466623Y322947D01*
X466565Y322953D01*
X466506Y322965D01*
X466436Y322977D01*
X466290Y323018D01*
X466214Y323047D01*
X466138Y323076D01*
X466062Y323117D01*
X465985Y323158D01*
X465915Y323211D01*
X465845Y323269D01*
X465839Y323275D01*
X465828Y323287D01*
X465816Y323304D01*
X465793Y323328D01*
X465763Y323363D01*
X465734Y323404D01*
X465705Y323450D01*
X465675Y323503D01*
X465640Y323562D01*
X465611Y323626D01*
X465553Y323766D01*
X465529Y323848D01*
X465518Y323930D01*
X465506Y324018D01*
X465500Y324112D01*
Y324117D01*
Y324129D01*
Y324147D01*
X465506Y324176D01*
Y324205D01*
X465512Y324246D01*
X465523Y324328D01*
X465547Y324427D01*
X465582Y324533D01*
X465623Y324638D01*
X465687Y324737D01*
Y324743D01*
X465699Y324749D01*
X465722Y324778D01*
X465769Y324825D01*
X465828Y324878D01*
X465904Y324936D01*
X465997Y324995D01*
X466108Y325047D01*
X466231Y325089D01*
X466225D01*
X466220Y325094D01*
X466185Y325106D01*
X466132Y325135D01*
X466068Y325165D01*
X465991Y325211D01*
X465921Y325264D01*
X465851Y325322D01*
X465793Y325393D01*
X465787Y325404D01*
X465769Y325428D01*
X465746Y325469D01*
X465722Y325527D01*
X465699Y325597D01*
X465675Y325679D01*
X465658Y325767D01*
X465652Y325867D01*
Y325872D01*
Y325884D01*
Y325907D01*
X465658Y325937D01*
X465664Y325972D01*
X465670Y326013D01*
X465687Y326112D01*
X465722Y326223D01*
X465781Y326340D01*
X465810Y326405D01*
X465851Y326463D01*
X465898Y326522D01*
X465950Y326574D01*
X465956Y326580D01*
X465962Y326586D01*
X465980Y326604D01*
X466003Y326621D01*
X466038Y326639D01*
X466073Y326668D01*
X466114Y326691D01*
X466167Y326721D01*
X466278Y326773D01*
X466419Y326814D01*
X466576Y326849D01*
X466658Y326855D01*
X466752Y326861D01*
X466799D01*
X466834Y326855D01*
D02*
G37*
%LPC*%
G36*
X745483Y418393D02*
X744681D01*
Y415450D01*
X745559D01*
X745623Y415456D01*
X745711Y415462D01*
X745805Y415468D01*
X745904Y415480D01*
X745998Y415497D01*
X746085Y415521D01*
X746097Y415526D01*
X746121Y415532D01*
X746161Y415550D01*
X746208Y415573D01*
X746267Y415602D01*
X746325Y415632D01*
X746378Y415673D01*
X746431Y415720D01*
X746436Y415725D01*
X746460Y415755D01*
X746495Y415796D01*
X746536Y415848D01*
X746577Y415918D01*
X746624Y416000D01*
X746670Y416100D01*
X746711Y416205D01*
Y416211D01*
X746717Y416217D01*
X746723Y416234D01*
X746729Y416258D01*
X746735Y416287D01*
X746746Y416322D01*
X746764Y416410D01*
X746781Y416521D01*
X746799Y416650D01*
X746811Y416790D01*
X746817Y416948D01*
Y416954D01*
Y416977D01*
Y417006D01*
Y417048D01*
X746811Y417100D01*
X746805Y417159D01*
X746799Y417223D01*
X746793Y417287D01*
X746770Y417440D01*
X746735Y417592D01*
X746682Y417738D01*
X746653Y417808D01*
X746618Y417872D01*
Y417878D01*
X746606Y417884D01*
X746600Y417902D01*
X746583Y417925D01*
X746542Y417983D01*
X746483Y418048D01*
X746413Y418124D01*
X746331Y418194D01*
X746238Y418258D01*
X746138Y418311D01*
X746126Y418317D01*
X746097Y418323D01*
X746050Y418334D01*
X745980Y418352D01*
X745887Y418370D01*
X745775Y418381D01*
X745641Y418387D01*
X745483Y418393D01*
D02*
G37*
G36*
X710933Y311065D02*
Y311059D01*
X710927Y311047D01*
Y311030D01*
X710921Y311000D01*
X710910Y310965D01*
X710898Y310925D01*
X710874Y310831D01*
X710845Y310714D01*
X710810Y310591D01*
X710769Y310456D01*
X710722Y310322D01*
X710301Y309199D01*
X711606D01*
X711208Y310258D01*
Y310263D01*
X711202Y310281D01*
X711190Y310304D01*
X711179Y310339D01*
X711161Y310380D01*
X711143Y310427D01*
X711108Y310538D01*
X711062Y310667D01*
X711015Y310802D01*
X710974Y310936D01*
X710933Y311065D01*
D02*
G37*
G36*
X707060Y311012D02*
X706259D01*
Y308070D01*
X707136D01*
X707201Y308075D01*
X707288Y308081D01*
X707382Y308087D01*
X707481Y308099D01*
X707575Y308117D01*
X707663Y308140D01*
X707675Y308146D01*
X707698Y308152D01*
X707739Y308169D01*
X707786Y308192D01*
X707844Y308222D01*
X707903Y308251D01*
X707955Y308292D01*
X708008Y308339D01*
X708014Y308345D01*
X708037Y308374D01*
X708072Y308415D01*
X708113Y308468D01*
X708154Y308538D01*
X708201Y308620D01*
X708248Y308719D01*
X708289Y308824D01*
Y308830D01*
X708295Y308836D01*
X708300Y308854D01*
X708306Y308877D01*
X708312Y308906D01*
X708324Y308941D01*
X708341Y309029D01*
X708359Y309140D01*
X708377Y309269D01*
X708388Y309409D01*
X708394Y309567D01*
Y309573D01*
Y309596D01*
Y309626D01*
Y309667D01*
X708388Y309719D01*
X708382Y309778D01*
X708377Y309842D01*
X708371Y309907D01*
X708347Y310059D01*
X708312Y310211D01*
X708259Y310357D01*
X708230Y310427D01*
X708195Y310492D01*
Y310497D01*
X708183Y310503D01*
X708178Y310521D01*
X708160Y310544D01*
X708119Y310603D01*
X708061Y310667D01*
X707990Y310743D01*
X707908Y310813D01*
X707815Y310878D01*
X707715Y310930D01*
X707704Y310936D01*
X707675Y310942D01*
X707628Y310954D01*
X707557Y310971D01*
X707464Y310989D01*
X707353Y311000D01*
X707218Y311006D01*
X707060Y311012D01*
D02*
G37*
G36*
X692667Y301571D02*
X691462Y299851D01*
X692667D01*
Y301571D01*
D02*
G37*
G36*
X685305Y309077D02*
X685275D01*
X685252Y309071D01*
X685193Y309065D01*
X685117Y309048D01*
X685036Y309018D01*
X684942Y308977D01*
X684854Y308919D01*
X684766Y308843D01*
X684755Y308831D01*
X684731Y308802D01*
X684696Y308749D01*
X684655Y308685D01*
X684614Y308597D01*
X684579Y308492D01*
X684556Y308375D01*
X684544Y308240D01*
Y308228D01*
Y308199D01*
X684550Y308152D01*
X684556Y308094D01*
X684567Y308018D01*
X684585Y307942D01*
X684608Y307860D01*
X684644Y307772D01*
X684649Y307761D01*
X684661Y307737D01*
X684685Y307696D01*
X684720Y307649D01*
X684761Y307591D01*
X684807Y307538D01*
X684866Y307480D01*
X684930Y307433D01*
X684936Y307427D01*
X684965Y307415D01*
X685000Y307398D01*
X685047Y307380D01*
X685106Y307357D01*
X685176Y307339D01*
X685246Y307328D01*
X685322Y307322D01*
X685351D01*
X685375Y307328D01*
X685427Y307333D01*
X685503Y307351D01*
X685579Y307380D01*
X685667Y307421D01*
X685755Y307480D01*
X685837Y307562D01*
X685849Y307573D01*
X685872Y307608D01*
X685907Y307661D01*
X685948Y307731D01*
X685983Y307825D01*
X686018Y307942D01*
X686042Y308071D01*
X686053Y308217D01*
Y308223D01*
Y308234D01*
Y308258D01*
X686048Y308281D01*
Y308316D01*
X686042Y308357D01*
X686030Y308445D01*
X686001Y308544D01*
X685966Y308650D01*
X685913Y308749D01*
X685843Y308843D01*
X685831Y308854D01*
X685808Y308878D01*
X685761Y308919D01*
X685697Y308960D01*
X685620Y309001D01*
X685527Y309042D01*
X685422Y309065D01*
X685305Y309077D01*
D02*
G37*
G36*
X466764Y326475D02*
X466717D01*
X466670Y326463D01*
X466606Y326451D01*
X466536Y326434D01*
X466459Y326399D01*
X466383Y326358D01*
X466313Y326299D01*
X466307Y326294D01*
X466284Y326270D01*
X466260Y326229D01*
X466225Y326182D01*
X466196Y326124D01*
X466167Y326048D01*
X466144Y325972D01*
X466138Y325884D01*
Y325872D01*
Y325837D01*
X466149Y325791D01*
X466161Y325726D01*
X466179Y325656D01*
X466208Y325586D01*
X466249Y325510D01*
X466307Y325439D01*
X466313Y325434D01*
X466336Y325416D01*
X466377Y325387D01*
X466430Y325358D01*
X466495Y325322D01*
X466576Y325299D01*
X466664Y325276D01*
X466764Y325270D01*
X466810D01*
X466857Y325282D01*
X466922Y325293D01*
X466992Y325311D01*
X467068Y325340D01*
X467144Y325381D01*
X467214Y325439D01*
X467220Y325445D01*
X467243Y325469D01*
X467273Y325504D01*
X467302Y325556D01*
X467337Y325615D01*
X467360Y325691D01*
X467384Y325773D01*
X467389Y325861D01*
Y325867D01*
Y325872D01*
Y325902D01*
X467378Y325954D01*
X467366Y326013D01*
X467343Y326077D01*
X467313Y326153D01*
X467267Y326223D01*
X467208Y326294D01*
X467202Y326299D01*
X467179Y326323D01*
X467138Y326352D01*
X467085Y326387D01*
X467021Y326416D01*
X466945Y326446D01*
X466863Y326469D01*
X466764Y326475D01*
D02*
G37*
G36*
X466752Y324884D02*
X466723D01*
X466699Y324878D01*
X466635Y324872D01*
X466559Y324854D01*
X466471Y324831D01*
X466377Y324790D01*
X466290Y324737D01*
X466202Y324661D01*
X466190Y324650D01*
X466167Y324620D01*
X466132Y324574D01*
X466097Y324509D01*
X466056Y324427D01*
X466021Y324334D01*
X465997Y324223D01*
X465985Y324106D01*
Y324100D01*
Y324071D01*
X465991Y324035D01*
X465997Y323983D01*
X466009Y323924D01*
X466026Y323854D01*
X466050Y323784D01*
X466079Y323714D01*
X466085Y323708D01*
X466097Y323685D01*
X466120Y323649D01*
X466149Y323608D01*
X466190Y323562D01*
X466237Y323509D01*
X466296Y323462D01*
X466360Y323421D01*
X466372Y323415D01*
X466395Y323404D01*
X466430Y323392D01*
X466483Y323374D01*
X466547Y323351D01*
X466611Y323339D01*
X466688Y323328D01*
X466769Y323322D01*
X466805D01*
X466828Y323328D01*
X466886Y323333D01*
X466968Y323351D01*
X467056Y323374D01*
X467150Y323415D01*
X467237Y323468D01*
X467325Y323538D01*
X467337Y323550D01*
X467360Y323579D01*
X467395Y323626D01*
X467436Y323690D01*
X467477Y323766D01*
X467512Y323866D01*
X467536Y323971D01*
X467548Y324094D01*
Y324100D01*
Y324112D01*
Y324129D01*
X467542Y324152D01*
X467536Y324211D01*
X467518Y324293D01*
X467495Y324381D01*
X467454Y324474D01*
X467395Y324568D01*
X467319Y324656D01*
X467308Y324667D01*
X467278Y324691D01*
X467232Y324726D01*
X467167Y324773D01*
X467085Y324814D01*
X466986Y324849D01*
X466875Y324872D01*
X466752Y324884D01*
D02*
G37*
%LPD*%
D83*
X297181Y260000D02*
G03*
X297181Y260000I-1181J0D01*
G01*
X328177D02*
G03*
X328177Y260000I-1181J0D01*
G01*
X385681D02*
G03*
X385681Y260000I-1181J0D01*
G01*
X417181D02*
G03*
X417181Y260000I-1181J0D01*
G01*
X437681Y350000D02*
G03*
X437681Y350000I-1181J0D01*
G01*
X406681D02*
G03*
X406681Y350000I-1181J0D01*
G01*
X349177D02*
G03*
X349177Y350000I-1181J0D01*
G01*
X317681D02*
G03*
X317681Y350000I-1181J0D01*
G01*
X599764Y324232D02*
G03*
X599764Y324232I-1181J0D01*
G01*
X639764D02*
G03*
X639764Y324232I-1181J0D01*
G01*
X662598Y285768D02*
G03*
X662598Y285768I-1181J0D01*
G01*
X622598D02*
G03*
X622598Y285768I-1181J0D01*
G01*
X550098D02*
G03*
X550098Y285768I-1181J0D01*
G01*
X510098D02*
G03*
X510098Y285768I-1181J0D01*
G01*
X487264Y324331D02*
G03*
X487264Y324331I-1181J0D01*
G01*
X567126Y301654D02*
G03*
X567126Y301654I-1181J0D01*
G01*
X527264Y324232D02*
G03*
X527264Y324232I-1181J0D01*
G01*
X357126Y301654D02*
G03*
X357126Y301654I-1181J0D01*
G01*
X743500Y249480D02*
G03*
X743500Y249480I-1181J0D01*
G01*
D84*
X813500Y138500D02*
G03*
X788500Y138500I-12500J-77625D01*
G01*
X808390Y254500D02*
G03*
X808390Y254500I-3512J0D01*
G01*
X845596Y370584D02*
G03*
X845596Y370584I-3512J0D01*
G01*
X679071Y320000D02*
G03*
X679071Y320000I-3512J0D01*
G01*
X682571Y287500D02*
G03*
X682571Y287500I-3512J0D01*
G01*
X463512Y285953D02*
G03*
X463512Y285953I-3512J0D01*
G01*
X461012Y319857D02*
G03*
X461012Y319857I-3512J0D01*
G01*
X287012Y326000D02*
G03*
X287012Y326000I-3512J0D01*
G01*
X445914Y312638D02*
G03*
X445914Y312638I-3512J0D01*
G01*
X369759Y326977D02*
G03*
X369759Y326977I-3512J0D01*
G01*
X813512Y302468D02*
G03*
X813512Y302468I-3512J0D01*
G01*
X792012Y292572D02*
G03*
X792012Y292572I-3512J0D01*
G01*
X723374Y257500D02*
G03*
X723374Y257500I-3512J0D01*
G01*
X798905Y275494D02*
G03*
X798905Y269443I11095J-3026D01*
G01*
X821095D02*
G03*
X821095Y275494I-11095J3026D01*
G01*
X820020Y134622D02*
Y167122D01*
X828933Y176000D01*
X856225D01*
X865088Y167102D01*
Y134602D02*
Y167102D01*
X820020Y134622D02*
X865088D01*
X812417Y192378D02*
X818717D01*
X783284D02*
X789583D01*
X812417D01*
X818717Y136472D02*
Y192378D01*
X783284Y136472D02*
Y192378D01*
Y136472D02*
X818717D01*
X783284Y148311D02*
X818717D01*
X788500Y136500D02*
Y138500D01*
X813500Y136472D02*
Y138500D01*
X663724Y134363D02*
Y166863D01*
X672637Y175741D01*
X699929D01*
X708791Y166843D01*
Y134343D02*
Y166843D01*
X663724Y134363D02*
X708791D01*
X685743Y165741D02*
X686743D01*
X668743Y148241D02*
Y158241D01*
X703743Y148241D02*
Y158241D01*
X668743Y134741D02*
Y136241D01*
Y134741D02*
X703743D01*
Y136241D01*
X672243Y165741D02*
X672743D01*
X699743D02*
X700243D01*
X476279Y194567D02*
Y265433D01*
X448721Y194567D02*
Y265433D01*
X476279D01*
X448721Y194567D02*
X476279D01*
X552933Y221220D02*
Y248780D01*
X482067Y221220D02*
Y248780D01*
Y221220D02*
X552933D01*
X482067Y248780D02*
X552933D01*
X594567Y221220D02*
X665433D01*
X594567Y248780D02*
X665433D01*
Y221220D02*
Y248780D01*
X594567Y221220D02*
Y248780D01*
X671220Y194567D02*
X698779D01*
X671220Y265433D02*
X698779D01*
X671220Y194567D02*
Y265433D01*
X698779Y194567D02*
Y265433D01*
X671220Y344567D02*
Y415433D01*
X698779Y344567D02*
Y415433D01*
X671220Y344567D02*
X698779D01*
X671220Y415433D02*
X698779D01*
X589567Y361221D02*
Y388779D01*
X660433Y361221D02*
Y388779D01*
X589567D02*
X660433D01*
X589567Y361221D02*
X660433D01*
X487083Y388779D02*
X557949D01*
X487083Y361221D02*
X557949D01*
X487083D02*
Y388779D01*
X557949Y361221D02*
Y388779D01*
X448721Y415512D02*
X476279D01*
X448721Y344646D02*
X476279D01*
Y415512D01*
X448721Y344646D02*
Y415512D01*
X821000Y316079D02*
Y342079D01*
X749000Y316079D02*
X821000D01*
X749000D02*
Y342079D01*
X821000Y414079D02*
Y418079D01*
X811000D02*
X821000D01*
X749000D02*
X759000D01*
X749000Y414079D02*
Y418079D01*
X719055Y336327D02*
X736555D01*
X714114D02*
X716555D01*
X719055Y395327D02*
X736555D01*
X714114D02*
X716555D01*
X719055Y393339D02*
Y395327D01*
X716555Y393339D02*
X719055D01*
X716555D02*
Y395327D01*
Y336327D02*
Y338315D01*
X719055D01*
Y336327D02*
Y338315D01*
X736555Y336327D02*
Y395327D01*
X714114Y336327D02*
Y395327D01*
X710000Y257500D02*
X715000D01*
X313500Y355000D02*
Y360000D01*
X345000Y355000D02*
Y360000D01*
X433500Y355000D02*
Y360000D01*
X402500Y355000D02*
Y360000D01*
X299000Y249500D02*
Y254500D01*
X418922Y249500D02*
Y254500D01*
X387422Y249500D02*
Y254500D01*
X329918Y249500D02*
Y254500D01*
X497319Y427627D02*
X502445D01*
X502374Y432627D02*
X502445Y427627D01*
X482319D02*
X487319D01*
X482319D02*
X482445Y432627D01*
X487913Y430627D02*
X497319Y427627D01*
X537319D02*
X542445D01*
X542374Y432627D02*
X542445Y427627D01*
X522319D02*
X527319D01*
X522319D02*
X522445Y432627D01*
X527913Y430627D02*
X537319Y427627D01*
X597319D02*
X602445D01*
X602374Y432627D02*
X602445Y427627D01*
X582319D02*
X587319D01*
X582319D02*
X582445Y432627D01*
X587913Y430627D02*
X597319Y427627D01*
X637319D02*
X642445D01*
X642374Y432627D02*
X642445Y427627D01*
X622319D02*
X627319D01*
X622319D02*
X622445Y432627D01*
X627913Y430627D02*
X637319Y427627D01*
X627429Y182500D02*
X636834Y179500D01*
X587429Y182500D02*
X596834Y179500D01*
X527500Y182472D02*
X536905Y179472D01*
X487500Y182500D02*
X496906Y179500D01*
X642374Y177500D02*
X642500Y182500D01*
X637456D02*
X642500D01*
X622374D02*
X622445Y177500D01*
X622374Y182500D02*
X627429D01*
X602374Y177500D02*
X602500Y182500D01*
X597456D02*
X602500D01*
X582374D02*
X582445Y177500D01*
X582374Y182500D02*
X587429D01*
X522445Y182472D02*
X527500D01*
X522445D02*
X522516Y177472D01*
X537528Y182472D02*
X542571D01*
X542445Y177472D02*
X542571Y182472D01*
X502374Y177500D02*
X502500Y182500D01*
X497500D02*
X502500D01*
X482374D02*
X482445Y177500D01*
X482374Y182500D02*
X487500D01*
X810032Y472915D02*
X864993D01*
X735032D02*
X790032D01*
Y467002D02*
Y472915D01*
Y467002D02*
X810032D01*
Y472915D01*
X735032Y434904D02*
Y472915D01*
X864993Y434904D02*
Y472915D01*
X735032Y434904D02*
X864993D01*
X665500Y196500D02*
Y215000D01*
X624500Y196500D02*
X665500D01*
X624500Y215000D02*
X665500D01*
X625000Y210000D02*
X665500D01*
X624500Y196500D02*
Y215000D01*
X618000Y196500D02*
Y215000D01*
X577000Y196500D02*
X618000D01*
X577000Y215000D02*
X618000D01*
X577500Y210000D02*
X618000D01*
X577000Y196500D02*
Y215000D01*
X570500Y196500D02*
Y215000D01*
X529500Y196500D02*
X570500D01*
X529500Y215000D02*
X570500D01*
X530000Y210000D02*
X570500D01*
X529500Y196500D02*
Y215000D01*
X522874Y196500D02*
Y215000D01*
X481874Y196500D02*
X522874D01*
X481874Y215000D02*
X522874D01*
X482374Y210000D02*
X522874D01*
X481874Y196500D02*
Y215000D01*
X624500Y395000D02*
Y413500D01*
X665500D01*
X624500Y395000D02*
X665500D01*
X624500Y400000D02*
X665000D01*
X665500Y395000D02*
Y413500D01*
X577000Y395000D02*
Y413500D01*
X618000D01*
X577000Y395000D02*
X618000D01*
X577000Y400000D02*
X617500D01*
X618000Y395000D02*
Y413500D01*
X529500Y395000D02*
Y413500D01*
X570500D01*
X529500Y395000D02*
X570500D01*
X529500Y400000D02*
X570000D01*
X570500Y395000D02*
Y413500D01*
X482000Y395000D02*
Y413500D01*
X523000D01*
X482000Y395000D02*
X523000D01*
X482000Y400000D02*
X522500D01*
X523000Y395000D02*
Y413500D01*
X857000Y192000D02*
X868000D01*
X862500Y232500D02*
X867500D01*
X757500Y305500D02*
X758613Y306500D01*
X763807D01*
X762556Y309000D02*
X777500D01*
X748500Y308000D02*
X748534Y312534D01*
X750133Y314108D01*
X764386Y314000D01*
X754516Y224215D02*
X755008Y223723D01*
X763807Y225385D02*
X766115D01*
X762145Y223723D02*
X763807Y225385D01*
X755008Y223723D02*
X762145D01*
X835453Y381532D02*
Y385469D01*
X829547Y381532D02*
Y385469D01*
X847500Y352500D02*
X852500D01*
X782032Y136500D02*
Y186000D01*
Y198000D02*
Y222000D01*
X718032Y222500D02*
X782032Y222000D01*
X718032Y198000D02*
Y222500D01*
Y136500D02*
Y186000D01*
Y136500D02*
X782032D01*
X831000Y177500D02*
Y181499D01*
X832999Y183498D01*
X834999Y181499D01*
Y177500D01*
Y180499D01*
X831000D01*
X840997Y177500D02*
X836998D01*
X840997Y181499D01*
Y182498D01*
X839997Y183498D01*
X837998D01*
X836998Y182498D01*
X257163Y199352D02*
X263161D01*
Y203351D01*
Y205350D02*
Y207350D01*
Y206350D01*
X259163D01*
Y205350D01*
X265161Y212348D02*
Y213348D01*
X264161Y214347D01*
X259163D01*
Y211348D01*
X260162Y210349D01*
X262162D01*
X263161Y211348D01*
Y214347D01*
X257163Y216347D02*
X263161D01*
X260162D01*
X259163Y217346D01*
Y219346D01*
X260162Y220345D01*
X263161D01*
X258163Y223344D02*
X259163D01*
Y222345D01*
Y224344D01*
Y223344D01*
X262162D01*
X263161Y224344D01*
X258163Y237340D02*
X257163Y236340D01*
Y234341D01*
X258163Y233341D01*
X262162D01*
X263161Y234341D01*
Y236340D01*
X262162Y237340D01*
X263161Y240339D02*
Y242338D01*
X262162Y243338D01*
X260162D01*
X259163Y242338D01*
Y240339D01*
X260162Y239339D01*
X262162D01*
X263161Y240339D01*
Y245337D02*
X259163D01*
Y248336D01*
X260162Y249336D01*
X263161D01*
X258163Y252335D02*
X259163D01*
Y251335D01*
Y253335D01*
Y252335D01*
X262162D01*
X263161Y253335D01*
X259163Y256334D02*
X263161D01*
X261162D01*
X260162Y257333D01*
X259163Y258333D01*
Y259333D01*
X263161Y263332D02*
Y265331D01*
X262162Y266331D01*
X260162D01*
X259163Y265331D01*
Y263332D01*
X260162Y262332D01*
X262162D01*
X263161Y263332D01*
Y268330D02*
Y270329D01*
Y269330D01*
X257163D01*
Y268330D01*
X263161Y273328D02*
Y275328D01*
Y274328D01*
X257163D01*
Y273328D01*
X263161Y281326D02*
Y279326D01*
X262162Y278327D01*
X260162D01*
X259163Y279326D01*
Y281326D01*
X260162Y282325D01*
X261162D01*
Y278327D01*
X259163Y284325D02*
X263161D01*
X261162D01*
X260162Y285324D01*
X259163Y286324D01*
Y287324D01*
X258163Y300320D02*
X257163Y299320D01*
Y297321D01*
X258163Y296321D01*
X259163D01*
X260162Y297321D01*
Y299320D01*
X261162Y300320D01*
X262162D01*
X263161Y299320D01*
Y297321D01*
X262162Y296321D01*
X263161Y302319D02*
Y304318D01*
Y303319D01*
X259163D01*
Y302319D01*
X263161Y307317D02*
X259163D01*
Y308317D01*
X260162Y309317D01*
X263161D01*
X260162D01*
X259163Y310316D01*
X260162Y311316D01*
X263161D01*
X265161Y313315D02*
X259163D01*
Y316314D01*
X260162Y317314D01*
X262162D01*
X263161Y316314D01*
Y313315D01*
Y319313D02*
Y321313D01*
Y320313D01*
X257163D01*
Y319313D01*
X263161Y327311D02*
Y325311D01*
X262162Y324312D01*
X260162D01*
X259163Y325311D01*
Y327311D01*
X260162Y328310D01*
X261162D01*
Y324312D01*
X258163Y340307D02*
X257163Y339307D01*
Y337308D01*
X258163Y336308D01*
X262162D01*
X263161Y337308D01*
Y339307D01*
X262162Y340307D01*
X263161Y343306D02*
Y345305D01*
X262162Y346305D01*
X260162D01*
X259163Y345305D01*
Y343306D01*
X260162Y342306D01*
X262162D01*
X263161Y343306D01*
Y348304D02*
X259163D01*
Y349304D01*
X260162Y350303D01*
X263161D01*
X260162D01*
X259163Y351303D01*
X260162Y352303D01*
X263161D01*
X257163Y354302D02*
X263161D01*
Y357301D01*
X262162Y358301D01*
X261162D01*
X260162D01*
X259163Y357301D01*
Y354302D01*
X263161Y361300D02*
Y363299D01*
X262162Y364299D01*
X260162D01*
X259163Y363299D01*
Y361300D01*
X260162Y360300D01*
X262162D01*
X263161Y361300D01*
Y366298D02*
X262162D01*
Y367298D01*
X263161D01*
Y366298D01*
X259163Y377295D02*
X263161Y379294D01*
X259163Y381293D01*
X263161Y383293D02*
X262162D01*
Y384292D01*
X263161D01*
Y383293D01*
Y394289D02*
Y396288D01*
Y395289D01*
X257163D01*
X258163Y394289D01*
X263161Y399288D02*
X262162D01*
Y400287D01*
X263161D01*
Y399288D01*
Y404286D02*
Y406285D01*
Y405286D01*
X257163D01*
X258163Y404286D01*
X433000Y183498D02*
X434000Y184498D01*
X435999D01*
X436999Y183498D01*
Y182499D01*
X435999Y181499D01*
X436999Y180499D01*
Y179500D01*
X435999Y178500D01*
X434000D01*
X433000Y179500D01*
Y180499D01*
X434000Y181499D01*
X433000Y182499D01*
Y183498D01*
X434000Y181499D02*
X435999D01*
X412500Y184493D02*
X416499D01*
Y183493D01*
X412500Y179494D01*
Y178495D01*
X396921Y184493D02*
X394921Y183493D01*
X392922Y181494D01*
Y179494D01*
X393922Y178495D01*
X395921D01*
X396921Y179494D01*
Y180494D01*
X395921Y181494D01*
X392922D01*
X376499Y184493D02*
X372500D01*
Y181494D01*
X374500Y182493D01*
X375499D01*
X376499Y181494D01*
Y179494D01*
X375499Y178495D01*
X373500D01*
X372500Y179494D01*
X355340Y178495D02*
Y184493D01*
X352341Y181494D01*
X356340D01*
X332496Y183498D02*
X333496Y184498D01*
X335495D01*
X336495Y183498D01*
Y182499D01*
X335495Y181499D01*
X334495D01*
X335495D01*
X336495Y180499D01*
Y179500D01*
X335495Y178500D01*
X333496D01*
X332496Y179500D01*
X316499Y178495D02*
X312500D01*
X316499Y182493D01*
Y183493D01*
X315499Y184493D01*
X313500D01*
X312500Y183493D01*
X293500Y178500D02*
X295499D01*
X294500D01*
Y184498D01*
X293500Y183498D01*
X272500Y177500D02*
Y183498D01*
X276499Y177500D01*
Y183498D01*
X272000Y426000D02*
Y431998D01*
X275999Y426000D01*
Y431998D01*
X289996Y426000D02*
X291995D01*
X290996D01*
Y431998D01*
X289996Y430998D01*
X298993Y431998D02*
X296994Y430998D01*
X294994Y428999D01*
Y427000D01*
X295994Y426000D01*
X297993D01*
X298993Y427000D01*
Y427999D01*
X297993Y428999D01*
X294994D01*
X309996Y426000D02*
X311995D01*
X310996D01*
Y431998D01*
X309996Y430998D01*
X318993Y431998D02*
X314995D01*
Y428999D01*
X316994Y429999D01*
X317993D01*
X318993Y428999D01*
Y427000D01*
X317993Y426000D01*
X315994D01*
X314995Y427000D01*
X329996Y426000D02*
X331995D01*
X330996D01*
Y431998D01*
X329996Y430998D01*
X337994Y426000D02*
Y431998D01*
X334995Y428999D01*
X338993D01*
X349996Y426000D02*
X351995D01*
X350996D01*
Y431998D01*
X349996Y430998D01*
X354995D02*
X355994Y431998D01*
X357994D01*
X358993Y430998D01*
Y429999D01*
X357994Y428999D01*
X356994D01*
X357994D01*
X358993Y427999D01*
Y427000D01*
X357994Y426000D01*
X355994D01*
X354995Y427000D01*
X369996Y426000D02*
X371995D01*
X370996D01*
Y431998D01*
X369996Y430998D01*
X378993Y426000D02*
X374994D01*
X378993Y429999D01*
Y430998D01*
X377993Y431998D01*
X375994D01*
X374994Y430998D01*
X390968Y426000D02*
X392968D01*
X391968D01*
Y431998D01*
X390968Y430998D01*
X395967Y426000D02*
X397966D01*
X396967D01*
Y431998D01*
X395967Y430998D01*
X409996Y426000D02*
X411995D01*
X410996D01*
Y431998D01*
X409996Y430998D01*
X414994D02*
X415994Y431998D01*
X417993D01*
X418993Y430998D01*
Y427000D01*
X417993Y426000D01*
X415994D01*
X414994Y427000D01*
Y430998D01*
X432500Y427000D02*
X433500Y426000D01*
X435499D01*
X436499Y427000D01*
Y430998D01*
X435499Y431998D01*
X433500D01*
X432500Y430998D01*
Y429999D01*
X433500Y428999D01*
X436499D01*
X490000Y425998D02*
X491000Y426998D01*
X492999D01*
X493999Y425998D01*
Y424999D01*
X492999Y423999D01*
X493999Y422999D01*
Y422000D01*
X492999Y421000D01*
X491000D01*
X490000Y422000D01*
Y422999D01*
X491000Y423999D01*
X490000Y424999D01*
Y425998D01*
X491000Y423999D02*
X492999D01*
X529500Y426998D02*
X533499D01*
Y425998D01*
X529500Y422000D01*
Y421000D01*
X593999Y426998D02*
X591999Y425998D01*
X590000Y423999D01*
Y422000D01*
X591000Y421000D01*
X592999D01*
X593999Y422000D01*
Y422999D01*
X592999Y423999D01*
X590000D01*
X634499Y426998D02*
X630500D01*
Y423999D01*
X632499Y424999D01*
X633499D01*
X634499Y423999D01*
Y422000D01*
X633499Y421000D01*
X631500D01*
X630500Y422000D01*
X633499Y183000D02*
Y188998D01*
X630500Y185999D01*
X634499D01*
X590500Y187998D02*
X591500Y188998D01*
X593499D01*
X594499Y187998D01*
Y186999D01*
X593499Y185999D01*
X592499D01*
X593499D01*
X594499Y184999D01*
Y184000D01*
X593499Y183000D01*
X591500D01*
X590500Y184000D01*
X534530Y183000D02*
X530532D01*
X534530Y186999D01*
Y187998D01*
X533531Y188998D01*
X531531D01*
X530532Y187998D01*
X491500Y183000D02*
X493499D01*
X492500D01*
Y188998D01*
X491500Y187998D01*
X786000Y200246D02*
X789999Y194248D01*
Y200246D02*
X786000Y194248D01*
X795997Y199246D02*
X794997Y200246D01*
X792998D01*
X791998Y199246D01*
Y198247D01*
X792998Y197247D01*
X794997D01*
X795997Y196247D01*
Y195248D01*
X794997Y194248D01*
X792998D01*
X791998Y195248D01*
X797996Y199246D02*
X798996Y200246D01*
X800995D01*
X801995Y199246D01*
Y198247D01*
X800995Y197247D01*
X799996D01*
X800995D01*
X801995Y196247D01*
Y195248D01*
X800995Y194248D01*
X798996D01*
X797996Y195248D01*
X678763Y142239D02*
X682762Y136241D01*
Y142239D02*
X678763Y136241D01*
X688760Y141239D02*
X687760Y142239D01*
X685761D01*
X684761Y141239D01*
Y140239D01*
X685761Y139240D01*
X687760D01*
X688760Y138240D01*
Y137240D01*
X687760Y136241D01*
X685761D01*
X684761Y137240D01*
X694758Y136241D02*
X690759D01*
X694758Y140239D01*
Y141239D01*
X693758Y142239D01*
X691759D01*
X690759Y141239D01*
D85*
X855906Y392776D02*
G03*
X855906Y392776I-492J0D01*
G01*
X831213Y227564D02*
G03*
X831213Y227564I-492J0D01*
G01*
X756197Y269961D02*
G03*
X756197Y269961I-492J0D01*
G01*
X595571Y314587D02*
G03*
X595571Y314587I-492J0D01*
G01*
X635571D02*
G03*
X635571Y314587I-492J0D01*
G01*
X665413Y295413D02*
G03*
X665413Y295413I-492J0D01*
G01*
X625413D02*
G03*
X625413Y295413I-492J0D01*
G01*
X552913D02*
G03*
X552913Y295413I-492J0D01*
G01*
X512913D02*
G03*
X512913Y295413I-492J0D01*
G01*
X483071Y314685D02*
G03*
X483071Y314685I-492J0D01*
G01*
X560925Y293386D02*
G03*
X560925Y293386I-492J0D01*
G01*
X523071Y314587D02*
G03*
X523071Y314587I-492J0D01*
G01*
X350925Y293386D02*
G03*
X350925Y293386I-492J0D01*
G01*
X830169Y274555D02*
G03*
X830169Y274555I-492J0D01*
G01*
X783405Y227663D02*
G03*
X783405Y227663I-492J0D01*
G01*
X777748Y238262D02*
G03*
X777748Y238262I-492J0D01*
G01*
X799405Y217776D02*
G03*
X799405Y217776I-492J0D01*
G01*
Y202776D02*
G03*
X799405Y202776I-492J0D01*
G01*
X738244Y241724D02*
G03*
X738244Y241724I-492J0D01*
G01*
X870079Y364724D02*
G03*
X870079Y364724I-492J0D01*
G01*
D86*
X316539Y266500D02*
Y278500D01*
X296461Y266500D02*
Y278500D01*
X316539D01*
X296461Y266500D02*
X316539D01*
X347535D02*
Y278500D01*
X327457Y266500D02*
Y278500D01*
X347535D01*
X327457Y266500D02*
X347535D01*
X405039D02*
Y278500D01*
X384961Y266500D02*
Y278500D01*
X405039D01*
X384961Y266500D02*
X405039D01*
X436539D02*
Y278500D01*
X416461Y266500D02*
Y278500D01*
X436539D01*
X416461Y266500D02*
X436539D01*
X415961Y331500D02*
Y343500D01*
X436039Y331500D02*
Y343500D01*
X415961Y331500D02*
X436039D01*
X415961Y343500D02*
X436039D01*
X384961D02*
X405039D01*
X384961Y331500D02*
X405039D01*
Y343500D01*
X384961Y331500D02*
Y343500D01*
X327457D02*
X347535D01*
X327457Y331500D02*
X347535D01*
Y343500D01*
X327457Y331500D02*
Y343500D01*
X295961D02*
X316039D01*
X295961Y331500D02*
X316039D01*
Y343500D01*
X295961Y331500D02*
Y343500D01*
X558878Y292578D02*
Y293524D01*
X556122Y292579D02*
Y293522D01*
X865256Y400256D02*
X868406D01*
Y396319D02*
Y400256D01*
X856594D02*
X859744D01*
X856594Y396319D02*
Y400256D01*
X849815Y230123D02*
Y231600D01*
X848339Y230123D02*
X849815D01*
Y248332D02*
Y249809D01*
X848339D02*
X849815D01*
X830130D02*
X831606D01*
X830130Y248332D02*
Y249809D01*
Y230123D02*
Y231600D01*
Y230123D02*
X831606D01*
X753146Y269370D02*
Y271043D01*
X751472Y269370D02*
X753146D01*
X731886D02*
X733559D01*
X731886D02*
Y271043D01*
Y288957D02*
Y290630D01*
X733559D01*
X753146Y288957D02*
Y290630D01*
X751472D02*
X753146D01*
X309543Y354744D02*
Y356000D01*
X302457Y354744D02*
Y355433D01*
X309543Y359000D02*
Y360256D01*
X302457Y359567D02*
Y360256D01*
Y354744D02*
X309543D01*
X302457Y360256D02*
X309543D01*
X308000Y354744D02*
Y360256D01*
X288496Y369627D02*
Y385769D01*
X300504Y369627D02*
Y385769D01*
X316996Y375926D02*
Y379470D01*
X304004Y375926D02*
Y379470D01*
X328425Y369698D02*
Y385840D01*
X340433Y369698D02*
Y385840D01*
X356925Y375997D02*
Y379541D01*
X343933Y375997D02*
Y379541D01*
X341043Y354744D02*
Y356000D01*
X333957Y354744D02*
Y355433D01*
X341043Y359000D02*
Y360256D01*
X333957Y359567D02*
Y360256D01*
Y354744D02*
X341043D01*
X333957Y360256D02*
X341043D01*
X339500Y354744D02*
Y360256D01*
X429543Y354744D02*
Y356000D01*
X422457Y354744D02*
Y355433D01*
X429543Y359000D02*
Y360256D01*
X422457Y359567D02*
Y360256D01*
Y354744D02*
X429543D01*
X422457Y360256D02*
X429543D01*
X428000Y354744D02*
Y360256D01*
X398543Y354744D02*
Y356000D01*
X391457Y354744D02*
Y355433D01*
X398543Y359000D02*
Y360256D01*
X391457Y359567D02*
Y360256D01*
Y354744D02*
X398543D01*
X391457Y360256D02*
X398543D01*
X397000Y354744D02*
Y360256D01*
X368496Y369627D02*
Y385769D01*
X380504Y369627D02*
Y385769D01*
X396996Y375926D02*
Y379470D01*
X384004Y375926D02*
Y379470D01*
X437496Y375926D02*
Y379470D01*
X424504Y375926D02*
Y379470D01*
X408496Y369627D02*
Y385769D01*
X420504Y369627D02*
Y385769D01*
X304500Y249244D02*
Y254756D01*
X302957Y249244D02*
X310043D01*
X302957Y254756D02*
X310043D01*
Y249244D02*
Y249933D01*
X302957Y249244D02*
Y250500D01*
X310043Y254067D02*
Y254756D01*
X302957Y253500D02*
Y254756D01*
X304996Y224429D02*
Y240571D01*
X317004Y224429D02*
Y240571D01*
X288504Y230728D02*
Y234272D01*
X301496Y230728D02*
Y234272D01*
X424496Y224429D02*
Y240571D01*
X436504Y224429D02*
Y240571D01*
X384567Y224358D02*
Y240500D01*
X396575Y224358D02*
Y240500D01*
X344496Y224429D02*
Y240571D01*
X356504Y224429D02*
Y240571D01*
X424422Y249244D02*
Y254756D01*
X422879Y249244D02*
X429965D01*
X422879Y254756D02*
X429965D01*
Y249244D02*
Y249933D01*
X422879Y249244D02*
Y250500D01*
X429965Y254067D02*
Y254756D01*
X422879Y253500D02*
Y254756D01*
X392922Y249244D02*
Y254756D01*
X391379Y249244D02*
X398465D01*
X391379Y254756D02*
X398465D01*
Y249244D02*
Y249933D01*
X391379Y249244D02*
Y250500D01*
X398465Y254067D02*
Y254756D01*
X391379Y253500D02*
Y254756D01*
X335418Y249244D02*
Y254756D01*
X333875Y249244D02*
X340962D01*
X333875Y254756D02*
X340962D01*
Y249244D02*
Y249933D01*
X333875Y249244D02*
Y250500D01*
X340962Y254067D02*
Y254756D01*
X333875Y253500D02*
Y254756D01*
X420996Y230728D02*
Y234272D01*
X408004Y230728D02*
Y234272D01*
X381067Y230658D02*
Y234201D01*
X368075Y230658D02*
Y234201D01*
X340996Y230728D02*
Y234272D01*
X328004Y230728D02*
Y234272D01*
X724543Y328622D02*
X725488D01*
X724543Y331378D02*
X725488D01*
X328496Y191929D02*
Y208071D01*
X340504Y191929D02*
Y208071D01*
X625354Y320295D02*
Y344705D01*
X594646Y320295D02*
Y344705D01*
X625354D01*
X594646Y320295D02*
X625354D01*
X665354D02*
Y344705D01*
X634646Y320295D02*
Y344705D01*
X665354D01*
X634646Y320295D02*
X665354D01*
X631378Y312892D02*
Y313835D01*
X628622Y312890D02*
Y313836D01*
X634646Y265295D02*
Y289705D01*
X665354Y265295D02*
Y289705D01*
X634646Y265295D02*
X665354D01*
X634646Y289705D02*
X665354D01*
X594646Y265295D02*
Y289705D01*
X625354Y265295D02*
Y289705D01*
X594646Y265295D02*
X625354D01*
X594646Y289705D02*
X625354D01*
X628622Y296545D02*
Y297488D01*
X631378Y296544D02*
Y297490D01*
X668622Y297045D02*
Y297988D01*
X671378Y297044D02*
Y297990D01*
X592878Y312978D02*
Y313921D01*
X590122Y312976D02*
Y313922D01*
X522146Y265295D02*
Y289705D01*
X552854Y265295D02*
Y289705D01*
X522146Y265295D02*
X552854D01*
X522146Y289705D02*
X552854D01*
X482146Y265295D02*
Y289705D01*
X512854Y265295D02*
Y289705D01*
X482146Y265295D02*
X512854D01*
X482146Y289705D02*
X512854D01*
Y320394D02*
Y344803D01*
X482146Y320394D02*
Y344803D01*
X512854D01*
X482146Y320394D02*
X512854D01*
X562008Y297716D02*
X587992D01*
X562008Y312283D02*
X587992D01*
X562008Y297716D02*
Y312283D01*
X587992Y297716D02*
Y312283D01*
X552854Y320295D02*
Y344705D01*
X522146Y320295D02*
Y344705D01*
X552854D01*
X522146Y320295D02*
X552854D01*
X518878Y313077D02*
Y314020D01*
X516122Y313075D02*
Y314021D01*
Y296079D02*
Y297022D01*
X518878Y296078D02*
Y297024D01*
X478878Y313077D02*
Y314020D01*
X476122Y313075D02*
Y314021D01*
X573819Y277343D02*
X576181D01*
X573819Y272815D02*
X576181D01*
X574528Y283878D02*
X575472D01*
X574528Y281122D02*
X575472D01*
X363744Y277177D02*
X366107D01*
X363744Y272649D02*
X366107D01*
X364528Y283878D02*
X365472D01*
X364528Y281122D02*
X365472D01*
X428496Y402127D02*
Y418269D01*
X440504Y402127D02*
Y418269D01*
X408496Y402139D02*
Y418281D01*
X420504Y402139D02*
Y418281D01*
X388496Y402127D02*
Y418269D01*
X400504Y402127D02*
Y418269D01*
X368461Y402163D02*
Y418304D01*
X380469Y402163D02*
Y418304D01*
X348425Y402127D02*
Y418269D01*
X360433Y402127D02*
Y418269D01*
X328496Y402186D02*
Y418328D01*
X340504Y402186D02*
Y418328D01*
X308425Y402198D02*
Y418340D01*
X320433Y402198D02*
Y418340D01*
X288496Y402210D02*
Y418352D01*
X300504Y402210D02*
Y418352D01*
X377992Y297716D02*
Y312283D01*
X352008Y297716D02*
Y312283D01*
X377992D01*
X352008Y297716D02*
X377992D01*
X429622Y314528D02*
Y315471D01*
X432378Y314527D02*
Y315472D01*
X422878Y294529D02*
Y295472D01*
X420122Y294528D02*
Y295473D01*
X391378Y294529D02*
Y295472D01*
X388622Y294528D02*
Y295473D01*
X398622Y314528D02*
Y315471D01*
X401378Y314527D02*
Y315472D01*
X333874Y294529D02*
Y295472D01*
X331118Y294528D02*
Y295473D01*
X341122Y314528D02*
Y315471D01*
X343878Y314527D02*
Y315472D01*
X309622Y314528D02*
Y315471D01*
X312378Y314527D02*
Y315472D01*
X302878Y294529D02*
Y295472D01*
X300122Y294528D02*
Y295473D01*
X441004Y191929D02*
Y208071D01*
X428996Y191929D02*
Y208071D01*
X420575Y191858D02*
Y208000D01*
X408567Y191858D02*
Y208000D01*
X401004Y191929D02*
Y208071D01*
X388996Y191929D02*
Y208071D01*
X380575Y191858D02*
Y208000D01*
X368567Y191858D02*
Y208000D01*
X360575Y191791D02*
Y207933D01*
X348567Y191791D02*
Y207933D01*
X320575Y191858D02*
Y208000D01*
X308567Y191858D02*
Y208000D01*
X300504Y191929D02*
Y208071D01*
X288496Y191929D02*
Y208071D01*
X804392Y428622D02*
X805335D01*
X804390Y431378D02*
X805336D01*
X769390D02*
X770333D01*
X769389Y428622D02*
X770335D01*
X734567Y409499D02*
X735512D01*
X734567Y412255D02*
X735512D01*
X734561Y404449D02*
X735504D01*
X734559Y407205D02*
X735505D01*
X717028Y401878D02*
X717971D01*
X717027Y399122D02*
X717972D01*
X838244Y193622D02*
Y196378D01*
X843756Y195197D02*
Y196378D01*
X839032Y200905D02*
X842968D01*
X839032Y189094D02*
X842968D01*
X849421Y197028D02*
Y197971D01*
X852177Y197027D02*
Y197972D01*
X856791Y195945D02*
X858500D01*
X856791Y214055D02*
X858500D01*
X866500Y195945D02*
X868209D01*
X866500Y214055D02*
X868209D01*
X856791Y195945D02*
Y214055D01*
X868209Y195945D02*
Y214055D01*
X866500Y199000D02*
X868209D01*
X856791D02*
X858500D01*
X866500Y228543D02*
X867756D01*
X867067Y221457D02*
X867756D01*
X862244Y228543D02*
X863500D01*
X862244Y221457D02*
X862933D01*
X867756D02*
Y228543D01*
X862244Y221457D02*
Y228543D01*
Y227000D02*
X867756D01*
X849421Y206165D02*
Y207108D01*
X852177Y206164D02*
Y207110D01*
X863622Y237997D02*
Y238940D01*
X866378Y237996D02*
Y238942D01*
X856122Y238064D02*
Y239009D01*
X858878Y238064D02*
Y239009D01*
X847866Y216378D02*
X848811D01*
X847866Y213622D02*
X848811D01*
X847866Y223878D02*
X848811D01*
X847866Y221122D02*
X848811D01*
X841213Y282050D02*
Y282993D01*
X843968Y282049D02*
Y282995D01*
X849620Y278768D02*
X850563D01*
X849618Y281524D02*
X850564D01*
X828319Y277114D02*
X831862D01*
X828319Y282823D02*
X831862D01*
X833122Y273571D02*
X837059D01*
X833122Y261366D02*
X837059D01*
X833122D02*
Y273571D01*
X837059Y261366D02*
Y273571D01*
X845295Y266287D02*
Y268650D01*
X849823Y266287D02*
Y268650D01*
X857945Y265697D02*
Y269240D01*
X852236Y265697D02*
Y269240D01*
X801244Y237759D02*
Y238703D01*
X798488Y237758D02*
Y238703D01*
X789528Y220174D02*
X790472D01*
X789527Y222930D02*
X790472D01*
X792756Y235143D02*
X795905D01*
Y231206D02*
Y235143D01*
X784094D02*
X787244D01*
X784094Y231206D02*
Y235143D01*
X782551Y244528D02*
Y245471D01*
X785307Y244527D02*
Y245472D01*
X769776Y248105D02*
Y251255D01*
X773713D01*
X769776Y239443D02*
Y242593D01*
Y239443D02*
X773713D01*
X808756Y225256D02*
X811905D01*
Y221319D02*
Y225256D01*
X800095D02*
X803244D01*
X800095Y221319D02*
Y225256D01*
X794622Y207095D02*
Y208038D01*
X797378Y207094D02*
Y208039D01*
X808756Y210256D02*
X811905D01*
Y206319D02*
Y210256D01*
X800095D02*
X803244D01*
X800095Y206319D02*
Y210256D01*
X727835Y255236D02*
X730197D01*
X727835Y259764D02*
X730197D01*
X730890Y228567D02*
Y229513D01*
X728134Y228568D02*
Y229511D01*
Y237748D02*
Y238693D01*
X730890Y237750D02*
Y238692D01*
X758613Y237997D02*
Y238943D01*
X761369Y237999D02*
Y238942D01*
Y228727D02*
Y229672D01*
X758613Y228728D02*
Y229671D01*
X753119Y238064D02*
Y239009D01*
X755875Y238064D02*
Y239009D01*
Y228726D02*
Y229671D01*
X753119Y228726D02*
Y229671D01*
X736319Y228525D02*
Y229470D01*
X733563Y228525D02*
Y229470D01*
X733587Y237801D02*
Y238746D01*
X736342Y237801D02*
Y238746D01*
X743106Y227913D02*
Y228858D01*
X745862Y227913D02*
Y228858D01*
X738382Y245543D02*
X750587D01*
X738382Y254598D02*
X750587D01*
X738382Y245543D02*
Y254598D01*
X750587Y245543D02*
Y254598D01*
X762518Y293557D02*
X763461D01*
X762516Y296313D02*
X763461D01*
X755894Y302029D02*
Y302972D01*
X753138Y302028D02*
Y302973D01*
X757144Y308544D02*
X758087D01*
X757142Y311300D02*
X758088D01*
X750764Y302029D02*
Y302972D01*
X748008Y302028D02*
Y302973D01*
X742122Y303650D02*
Y304594D01*
X744878Y303650D02*
Y304594D01*
X735252Y301319D02*
Y303681D01*
X739780Y301319D02*
Y303681D01*
X732894Y302029D02*
Y302972D01*
X730138Y302028D02*
Y302973D01*
X727877Y302029D02*
Y302972D01*
X725121Y302028D02*
Y302973D01*
X721531Y302029D02*
Y302972D01*
X718776Y302028D02*
Y302973D01*
X717043Y278703D02*
X717986D01*
X717042Y275947D02*
X717988D01*
X722083Y281575D02*
X723028D01*
X722083Y284331D02*
X723028D01*
X717083Y289605D02*
X718026D01*
X717082Y286849D02*
X718027D01*
X762043Y272488D02*
X762988D01*
X762043Y269732D02*
X762988D01*
X762556Y291476D02*
X763500D01*
X762556Y288720D02*
X763500D01*
X761319Y267264D02*
X763681D01*
X761319Y262736D02*
X763681D01*
X762556Y286331D02*
X763500D01*
X762556Y283575D02*
X763500D01*
X728543Y263622D02*
X729488D01*
X728543Y266378D02*
X729488D01*
X762059Y256122D02*
X763002D01*
X762057Y258878D02*
X763003D01*
X762529Y298760D02*
X763473D01*
X762528Y301516D02*
X763473D01*
X832029Y409437D02*
X832972D01*
X832028Y412193D02*
X832973D01*
X842028Y387122D02*
X842972D01*
X842028Y389878D02*
X842972D01*
X847244Y356457D02*
X848500D01*
X847244Y363543D02*
X847933D01*
X851500Y356457D02*
X852756D01*
X852067Y363543D02*
X852756D01*
X847244Y356457D02*
Y363543D01*
X852756Y356457D02*
Y363543D01*
X847244Y358000D02*
X852756D01*
X860111Y384529D02*
Y385472D01*
X857355Y384528D02*
Y385473D01*
X864862Y384528D02*
Y385471D01*
X867618Y384527D02*
Y385472D01*
X856594Y357244D02*
X859744D01*
X856594D02*
Y361181D01*
X865256Y357244D02*
X868406D01*
Y361181D01*
X842264Y347045D02*
Y349407D01*
X837736Y347045D02*
Y349407D01*
X831122Y359528D02*
Y360472D01*
X833878Y359528D02*
Y360472D01*
X838594Y359390D02*
Y360333D01*
X841350Y359389D02*
Y360335D01*
X833878Y347754D02*
Y348699D01*
X831122Y347754D02*
Y348699D01*
X842055Y377201D02*
X843000D01*
X842055Y379957D02*
X843000D01*
X734559Y401878D02*
X735502D01*
X734558Y399122D02*
X735504D01*
X832029Y404449D02*
X832972D01*
X832028Y407205D02*
X832973D01*
X299622Y314528D02*
Y315472D01*
X302378Y314528D02*
Y315472D01*
X307378Y314529D02*
Y315472D01*
X304622Y314528D02*
Y315473D01*
X331118Y314528D02*
Y315472D01*
X333874Y314528D02*
Y315472D01*
X338878Y314529D02*
Y315472D01*
X336122Y314528D02*
Y315473D01*
X388622Y314528D02*
Y315472D01*
X391378Y314528D02*
Y315472D01*
X396378Y314529D02*
Y315472D01*
X393622Y314528D02*
Y315473D01*
X401378Y294528D02*
Y295472D01*
X398622Y294528D02*
Y295472D01*
X393622Y294528D02*
Y295471D01*
X396378Y294527D02*
Y295472D01*
X432878Y294528D02*
Y295472D01*
X430122Y294528D02*
Y295472D01*
X425122Y294528D02*
Y295471D01*
X427878Y294527D02*
Y295472D01*
X343874Y294528D02*
Y295472D01*
X341118Y294528D02*
Y295472D01*
X336122Y294528D02*
Y295471D01*
X338878Y294527D02*
Y295472D01*
X419622Y314528D02*
Y315472D01*
X422378Y314528D02*
Y315472D01*
X427378Y314529D02*
Y315472D01*
X424622Y314528D02*
Y315473D01*
X307878Y294527D02*
Y295472D01*
X305122Y294528D02*
Y295471D01*
X310122Y294528D02*
Y295472D01*
X312878Y294528D02*
Y295472D01*
D87*
X438354Y347500D02*
X442000D01*
X378513Y350000D02*
X387432Y350096D01*
X434183Y259311D02*
X442500D01*
X345074Y259000D02*
X352500D01*
X291000Y349000D02*
X298500D01*
X665354Y283500D02*
X669892D01*
X590122Y266500D02*
X594646D01*
X629941Y301128D02*
Y304000D01*
X626441Y305000D02*
X628941D01*
X629941Y304000D01*
X630000Y305961D02*
Y308833D01*
X631000Y304961D02*
X633500D01*
X630000Y305961D02*
X631000Y304961D01*
X517500Y301089D02*
Y303961D01*
X514000Y304961D02*
X516500D01*
X517500Y303961D01*
X478500Y283000D02*
X482146D01*
X552854Y281500D02*
X556500D01*
X517500Y306128D02*
X518500Y305128D01*
X521000D01*
X517500Y306128D02*
Y309000D01*
X478500Y324000D02*
X482146D01*
X552854Y323500D02*
X556500D01*
X700201Y319787D02*
Y323287D01*
X709500Y311500D02*
Y315000D01*
X715500Y307126D02*
X715551Y309921D01*
D88*
X730217Y430116D02*
Y426180D01*
X732185D01*
X732841Y426836D01*
Y427492D01*
X732185Y428148D01*
X730217D01*
X732185D01*
X732841Y428804D01*
Y429460D01*
X732185Y430116D01*
X730217D01*
X736121D02*
X734809D01*
X734153Y429460D01*
Y426836D01*
X734809Y426180D01*
X736121D01*
X736776Y426836D01*
Y429460D01*
X736121Y430116D01*
X740056D02*
X738744D01*
X738088Y429460D01*
Y426836D01*
X738744Y426180D01*
X740056D01*
X740712Y426836D01*
Y429460D01*
X740056Y430116D01*
X742024D02*
X744648D01*
X743336D01*
Y426180D01*
X849868Y409762D02*
X847244D01*
Y405827D01*
X849868D01*
X847244Y407795D02*
X848556D01*
X851180Y405827D02*
Y409762D01*
X853804Y405827D01*
Y409762D01*
X819902Y212542D02*
Y209918D01*
X821214Y208606D01*
X822526Y209918D01*
Y212542D01*
X823838Y208606D02*
X825150D01*
X824494D01*
Y211230D01*
X823838D01*
X827117Y208606D02*
Y211230D01*
X829085D01*
X829741Y210574D01*
Y208606D01*
X792124Y255780D02*
X791468Y256436D01*
X790156D01*
X789500Y255780D01*
Y253156D01*
X790156Y252500D01*
X791468D01*
X792124Y253156D01*
Y254468D01*
X790812D01*
X793436Y252500D02*
Y256436D01*
X796060Y252500D01*
Y256436D01*
X797371D02*
Y252500D01*
X799339D01*
X799995Y253156D01*
Y255780D01*
X799339Y256436D01*
X797371D01*
X808555Y240997D02*
Y244933D01*
X810523D01*
X811179Y244277D01*
Y242965D01*
X810523Y242309D01*
X808555D01*
X809867D02*
X811179Y240997D01*
X812491Y244933D02*
X815115Y240997D01*
Y244933D02*
X812491Y240997D01*
X808555Y237270D02*
X811179D01*
X809867D01*
Y233334D01*
X812491Y237270D02*
X815115Y233334D01*
Y237270D02*
X812491Y233334D01*
X822064Y215500D02*
X826000D01*
Y217468D01*
X825344Y218124D01*
X822720D01*
X822064Y217468D01*
Y215500D01*
Y219436D02*
Y222060D01*
Y220748D01*
X826000D01*
Y223372D02*
X822064D01*
Y225339D01*
X822720Y225995D01*
X824032D01*
X824688Y225339D01*
Y223372D01*
Y224683D02*
X826000Y225995D01*
X811594Y247500D02*
Y251436D01*
X813562D01*
X814218Y250780D01*
Y249468D01*
X813562Y248812D01*
X811594D01*
X812906D02*
X814218Y247500D01*
X815530Y251436D02*
X818154D01*
X816842D01*
Y247500D01*
X822090Y250780D02*
X821434Y251436D01*
X820122D01*
X819466Y250780D01*
Y250124D01*
X820122Y249468D01*
X821434D01*
X822090Y248812D01*
Y248156D01*
X821434Y247500D01*
X820122D01*
X819466Y248156D01*
X849474Y371780D02*
X848818Y372436D01*
X847506D01*
X846850Y371780D01*
Y369156D01*
X847506Y368500D01*
X848818D01*
X849474Y369156D01*
Y370468D01*
X848162D01*
X850786Y368500D02*
Y372436D01*
X853410Y368500D01*
Y372436D01*
X854722D02*
Y368500D01*
X856690D01*
X857346Y369156D01*
Y371780D01*
X856690Y372436D01*
X854722D01*
X682624Y323280D02*
X681968Y323936D01*
X680656D01*
X680000Y323280D01*
Y320656D01*
X680656Y320000D01*
X681968D01*
X682624Y320656D01*
Y321968D01*
X681312D01*
X683936Y320000D02*
Y323936D01*
X686560Y320000D01*
Y323936D01*
X687872D02*
Y320000D01*
X689839D01*
X690495Y320656D01*
Y323280D01*
X689839Y323936D01*
X687872D01*
X686470Y288780D02*
X685814Y289436D01*
X684502D01*
X683846Y288780D01*
Y286156D01*
X684502Y285500D01*
X685814D01*
X686470Y286156D01*
Y287468D01*
X685158D01*
X687782Y285500D02*
Y289436D01*
X690406Y285500D01*
Y289436D01*
X691718D02*
Y285500D01*
X693685D01*
X694341Y286156D01*
Y288780D01*
X693685Y289436D01*
X691718D01*
X457124Y280280D02*
X456468Y280936D01*
X455156D01*
X454500Y280280D01*
Y277656D01*
X455156Y277000D01*
X456468D01*
X457124Y277656D01*
Y278968D01*
X455812D01*
X458436Y277000D02*
Y280936D01*
X461060Y277000D01*
Y280936D01*
X462371D02*
Y277000D01*
X464339D01*
X464995Y277656D01*
Y280280D01*
X464339Y280936D01*
X462371D01*
X454624Y330813D02*
X453968Y331469D01*
X452656D01*
X452000Y330813D01*
Y328189D01*
X452656Y327533D01*
X453968D01*
X454624Y328189D01*
Y329501D01*
X453312D01*
X455936Y327533D02*
Y331469D01*
X458560Y327533D01*
Y331469D01*
X459871D02*
Y327533D01*
X461839D01*
X462495Y328189D01*
Y330813D01*
X461839Y331469D01*
X459871D01*
X271124Y327280D02*
X270468Y327936D01*
X269156D01*
X268500Y327280D01*
Y324656D01*
X269156Y324000D01*
X270468D01*
X271124Y324656D01*
Y325968D01*
X269812D01*
X272436Y324000D02*
Y327936D01*
X275060Y324000D01*
Y327936D01*
X276372D02*
Y324000D01*
X278339D01*
X278995Y324656D01*
Y327280D01*
X278339Y327936D01*
X276372D01*
X434500Y304968D02*
X437124D01*
X435812Y306280D02*
Y303656D01*
X438436Y306280D02*
X439092Y306936D01*
X440404D01*
X441060Y306280D01*
Y305624D01*
X440404Y304968D01*
X439748D01*
X440404D01*
X441060Y304312D01*
Y303656D01*
X440404Y303000D01*
X439092D01*
X438436Y303656D01*
X442372Y306936D02*
Y304312D01*
X443683Y303000D01*
X444995Y304312D01*
Y306936D01*
X446307Y306280D02*
X446963Y306936D01*
X448275D01*
X448931Y306280D01*
Y305624D01*
X448275Y304968D01*
X447619D01*
X448275D01*
X448931Y304312D01*
Y303656D01*
X448275Y303000D01*
X446963D01*
X446307Y303656D01*
X363624Y335780D02*
X362968Y336436D01*
X361656D01*
X361000Y335780D01*
Y333156D01*
X361656Y332500D01*
X362968D01*
X363624Y333156D01*
Y334468D01*
X362312D01*
X364936Y332500D02*
Y336436D01*
X367560Y332500D01*
Y336436D01*
X368871D02*
Y332500D01*
X370839D01*
X371495Y333156D01*
Y335780D01*
X370839Y336436D01*
X368871D01*
X408500Y324381D02*
X409812D01*
X409156D01*
Y328317D01*
X408500Y327661D01*
X414404Y324381D02*
X411780D01*
X414404Y327005D01*
Y327661D01*
X413748Y328317D01*
X412436D01*
X411780Y327661D01*
X446500Y288165D02*
X447156Y288821D01*
X448468D01*
X449124Y288165D01*
Y287509D01*
X448468Y286853D01*
X449124Y286197D01*
Y285541D01*
X448468Y284885D01*
X447156D01*
X446500Y285541D01*
Y286197D01*
X447156Y286853D01*
X446500Y287509D01*
Y288165D01*
X447156Y286853D02*
X448468D01*
X445461Y318000D02*
X446772D01*
X446117D01*
Y321936D01*
X445461Y321280D01*
X448740D02*
X449396Y321936D01*
X450708D01*
X451364Y321280D01*
Y318656D01*
X450708Y318000D01*
X449396D01*
X448740Y318656D01*
Y321280D01*
X450000Y299817D02*
X452624D01*
Y299161D01*
X450000Y296537D01*
Y295881D01*
X357053Y281936D02*
X355741Y281280D01*
X354429Y279968D01*
Y278656D01*
X355085Y278000D01*
X356397D01*
X357053Y278656D01*
Y279312D01*
X356397Y279968D01*
X354429D01*
X372656Y284081D02*
X370032D01*
Y282114D01*
X371344Y282769D01*
X372000D01*
X372656Y282114D01*
Y280802D01*
X372000Y280146D01*
X370688D01*
X370032Y280802D01*
X382000Y326000D02*
X383312D01*
X382656D01*
Y329936D01*
X382000Y329280D01*
X385280Y326000D02*
X386592D01*
X385936D01*
Y329936D01*
X385280Y329280D01*
X372709Y328656D02*
X373365Y328000D01*
X374676D01*
X375332Y328656D01*
Y331280D01*
X374676Y331936D01*
X373365D01*
X372709Y331280D01*
Y330624D01*
X373365Y329968D01*
X375332D01*
X316500Y293496D02*
X317156Y294152D01*
X318468D01*
X319124Y293496D01*
Y292840D01*
X318468Y292184D01*
X317812D01*
X318468D01*
X319124Y291529D01*
Y290873D01*
X318468Y290216D01*
X317156D01*
X316500Y290873D01*
X317649Y281500D02*
Y285436D01*
X315681Y283468D01*
X318305D01*
X281124Y290500D02*
X278500D01*
X281124Y293124D01*
Y293780D01*
X280468Y294436D01*
X279156D01*
X278500Y293780D01*
X266000Y303000D02*
X267312D01*
X266656D01*
Y306936D01*
X266000Y306280D01*
X275500Y316500D02*
X276812D01*
X276156D01*
Y320436D01*
X275500Y319780D01*
X281404Y320436D02*
X280092Y319780D01*
X278780Y318468D01*
Y317156D01*
X279436Y316500D01*
X280748D01*
X281404Y317156D01*
Y317812D01*
X280748Y318468D01*
X278780D01*
X284500Y316662D02*
X285812D01*
X285156D01*
Y320598D01*
X284500Y319942D01*
X290404Y320598D02*
X287780D01*
Y318630D01*
X289092Y319286D01*
X289748D01*
X290404Y318630D01*
Y317318D01*
X289748Y316662D01*
X288436D01*
X287780Y317318D01*
X318500Y327477D02*
X319812D01*
X319156D01*
Y331413D01*
X318500Y330757D01*
X323748Y327477D02*
Y331413D01*
X321780Y329445D01*
X324404D01*
X313500Y322000D02*
X314812D01*
X314156D01*
Y325936D01*
X313500Y325280D01*
X316780D02*
X317436Y325936D01*
X318748D01*
X319404Y325280D01*
Y324624D01*
X318748Y323968D01*
X318092D01*
X318748D01*
X319404Y323312D01*
Y322656D01*
X318748Y322000D01*
X317436D01*
X316780Y322656D01*
X815500Y302363D02*
X818124D01*
X816812Y303675D02*
Y301051D01*
X819436Y303675D02*
X820092Y304331D01*
X821404D01*
X822060Y303675D01*
Y303019D01*
X821404Y302363D01*
X820748D01*
X821404D01*
X822060Y301707D01*
Y301051D01*
X821404Y300395D01*
X820092D01*
X819436Y301051D01*
X823372Y304331D02*
Y301707D01*
X824683Y300395D01*
X825995Y301707D01*
Y304331D01*
X827307Y303675D02*
X827963Y304331D01*
X829275D01*
X829931Y303675D01*
Y303019D01*
X829275Y302363D01*
X828619D01*
X829275D01*
X829931Y301707D01*
Y301051D01*
X829275Y300395D01*
X827963D01*
X827307Y301051D01*
X796624Y293780D02*
X795968Y294436D01*
X794656D01*
X794000Y293780D01*
Y291156D01*
X794656Y290500D01*
X795968D01*
X796624Y291156D01*
Y292468D01*
X795312D01*
X797936Y290500D02*
Y294436D01*
X800560Y290500D01*
Y294436D01*
X801871D02*
Y290500D01*
X803839D01*
X804495Y291156D01*
Y293780D01*
X803839Y294436D01*
X801871D01*
X707032Y245332D02*
Y247956D01*
X705720Y246644D02*
X708344D01*
X705720Y249268D02*
X705064Y249923D01*
Y251235D01*
X705720Y251891D01*
X706376D01*
X707032Y251235D01*
Y250579D01*
Y251235D01*
X707688Y251891D01*
X708344D01*
X709000Y251235D01*
Y249923D01*
X708344Y249268D01*
X706376Y253203D02*
X709000Y254515D01*
X706376Y255827D01*
X705720Y257139D02*
X705064Y257795D01*
Y259107D01*
X705720Y259763D01*
X706376D01*
X707032Y259107D01*
Y258451D01*
Y259107D01*
X707688Y259763D01*
X708344D01*
X709000Y259107D01*
Y257795D01*
X708344Y257139D01*
X710312Y261075D02*
X706376D01*
Y263043D01*
X707032Y263699D01*
X708344D01*
X709000Y263043D01*
Y261075D01*
X705064Y265010D02*
X709000D01*
X707032D01*
X706376Y265666D01*
Y266978D01*
X707032Y267634D01*
X709000D01*
X706376Y268946D02*
X708344D01*
X709000Y269602D01*
Y271570D01*
X709656D01*
X710312Y270914D01*
Y270258D01*
X709000Y271570D02*
X706376D01*
X726886Y447500D02*
X724000D01*
X726886Y450386D01*
Y451108D01*
X726165Y451829D01*
X724722D01*
X724000Y451108D01*
X728329D02*
X729051Y451829D01*
X730494D01*
X731215Y451108D01*
Y448222D01*
X730494Y447500D01*
X729051D01*
X728329Y448222D01*
Y451108D01*
X724500Y467502D02*
X725943D01*
X725222D01*
Y471831D01*
X724500Y471109D01*
X728108Y468223D02*
X728829Y467502D01*
X730272D01*
X730994Y468223D01*
Y471109D01*
X730272Y471831D01*
X728829D01*
X728108Y471109D01*
Y470388D01*
X728829Y469666D01*
X730994D01*
X869418Y447500D02*
X866532D01*
X869418Y450386D01*
Y451108D01*
X868696Y451829D01*
X867253D01*
X866532Y451108D01*
X867000Y467502D02*
X868443D01*
X867722D01*
Y471831D01*
X867000Y471109D01*
X560000Y298000D02*
X555671D01*
Y300165D01*
X556392Y300886D01*
X557835D01*
X558557Y300165D01*
Y298000D01*
Y299443D02*
X560000Y300886D01*
Y305216D02*
Y302329D01*
X557114Y305216D01*
X556392D01*
X555671Y304494D01*
Y303051D01*
X556392Y302329D01*
X560000Y309545D02*
Y306659D01*
X557114Y309545D01*
X556392D01*
X555671Y308823D01*
Y307380D01*
X556392Y306659D01*
X560000Y310988D02*
X559278D01*
Y311709D01*
X560000D01*
Y310988D01*
Y317482D02*
Y314596D01*
X557114Y317482D01*
X556392D01*
X555671Y316760D01*
Y315317D01*
X556392Y314596D01*
X840000Y256436D02*
Y252500D01*
X841968D01*
X842624Y253156D01*
Y255780D01*
X841968Y256436D01*
X840000D01*
X843936D02*
Y252500D01*
X845904D01*
X846560Y253156D01*
Y255780D01*
X845904Y256436D01*
X843936D01*
X849839Y252500D02*
Y256436D01*
X847871Y254468D01*
X850495D01*
X277500Y358936D02*
Y356312D01*
X278812Y355000D01*
X280124Y356312D01*
Y358936D01*
X281436D02*
Y355000D01*
X283404D01*
X284060Y355656D01*
Y358280D01*
X283404Y358936D01*
X281436D01*
X285371Y355000D02*
X286683D01*
X286027D01*
Y358936D01*
X285371Y358280D01*
X288651Y355000D02*
Y355656D01*
X289307D01*
Y355000D01*
X288651D01*
X291931D02*
X293243D01*
X292587D01*
Y358936D01*
X291931Y358280D01*
X297835Y358936D02*
X295211D01*
Y356968D01*
X296523Y357624D01*
X297179D01*
X297835Y356968D01*
Y355656D01*
X297179Y355000D01*
X295867D01*
X295211Y355656D01*
X346500Y360436D02*
Y357812D01*
X347812Y356500D01*
X349124Y357812D01*
Y360436D01*
X350436D02*
Y356500D01*
X352404D01*
X353060Y357156D01*
Y359780D01*
X352404Y360436D01*
X350436D01*
X354372Y356500D02*
X355683D01*
X355027D01*
Y360436D01*
X354372Y359780D01*
X357651Y356500D02*
Y357156D01*
X358307D01*
Y356500D01*
X357651D01*
X360931D02*
X362243D01*
X361587D01*
Y360436D01*
X360931Y359780D01*
X364211D02*
X364867Y360436D01*
X366179D01*
X366835Y359780D01*
Y359124D01*
X366179Y358468D01*
X365523D01*
X366179D01*
X366835Y357812D01*
Y357156D01*
X366179Y356500D01*
X364867D01*
X364211Y357156D01*
X369000Y357936D02*
Y355312D01*
X370312Y354000D01*
X371624Y355312D01*
Y357936D01*
X372936D02*
Y354000D01*
X374904D01*
X375560Y354656D01*
Y357280D01*
X374904Y357936D01*
X372936D01*
X376871Y354000D02*
X378183D01*
X377527D01*
Y357936D01*
X376871Y357280D01*
X380151Y354000D02*
Y354656D01*
X380807D01*
Y354000D01*
X380151D01*
X383431D02*
X384743D01*
X384087D01*
Y357936D01*
X383431Y357280D01*
X386711Y354000D02*
X388023D01*
X387367D01*
Y357936D01*
X386711Y357280D01*
X423000Y365436D02*
Y362812D01*
X424312Y361500D01*
X425624Y362812D01*
Y365436D01*
X426936D02*
Y361500D01*
X428904D01*
X429560Y362156D01*
Y364780D01*
X428904Y365436D01*
X426936D01*
X430871Y361500D02*
X432183D01*
X431527D01*
Y365436D01*
X430871Y364780D01*
X434151Y361500D02*
Y362156D01*
X434807D01*
Y361500D01*
X434151D01*
X437431Y362156D02*
X438087Y361500D01*
X439399D01*
X440055Y362156D01*
Y364780D01*
X439399Y365436D01*
X438087D01*
X437431Y364780D01*
Y364124D01*
X438087Y363468D01*
X440055D01*
X406095Y248521D02*
Y245898D01*
X407407Y244586D01*
X408719Y245898D01*
Y248521D01*
X410031D02*
Y244586D01*
X411999D01*
X412655Y245242D01*
Y247865D01*
X411999Y248521D01*
X410031D01*
X413967Y244586D02*
X415279D01*
X414623D01*
Y248521D01*
X413967Y247865D01*
X417246Y244586D02*
Y245242D01*
X417903D01*
Y244586D01*
X417246D01*
X420526Y248521D02*
X423150D01*
Y247865D01*
X420526Y245242D01*
Y244586D01*
X368764Y254006D02*
Y251382D01*
X370076Y250070D01*
X371388Y251382D01*
Y254006D01*
X372700D02*
Y250070D01*
X374668D01*
X375324Y250726D01*
Y253350D01*
X374668Y254006D01*
X372700D01*
X376635Y250070D02*
X377947D01*
X377291D01*
Y254006D01*
X376635Y253350D01*
X379915Y250070D02*
Y250726D01*
X380571D01*
Y250070D01*
X379915D01*
X385819Y254006D02*
X383195D01*
Y252038D01*
X384507Y252694D01*
X385163D01*
X385819Y252038D01*
Y250726D01*
X385163Y250070D01*
X383851D01*
X383195Y250726D01*
X345342Y254006D02*
Y251382D01*
X346654Y250070D01*
X347966Y251382D01*
Y254006D01*
X349278D02*
Y250070D01*
X351246D01*
X351902Y250726D01*
Y253350D01*
X351246Y254006D01*
X349278D01*
X353214Y250070D02*
X354526D01*
X353870D01*
Y254006D01*
X353214Y253350D01*
X356494Y250070D02*
Y250726D01*
X357150D01*
Y250070D01*
X356494D01*
X359773Y253350D02*
X360430Y254006D01*
X361741D01*
X362397Y253350D01*
Y252694D01*
X361741Y252038D01*
X361085D01*
X361741D01*
X362397Y251382D01*
Y250726D01*
X361741Y250070D01*
X360430D01*
X359773Y250726D01*
X281500Y254006D02*
Y251382D01*
X282812Y250070D01*
X284124Y251382D01*
Y254006D01*
X285436D02*
Y250070D01*
X287404D01*
X288060Y250726D01*
Y253350D01*
X287404Y254006D01*
X285436D01*
X289371Y250070D02*
X290683D01*
X290027D01*
Y254006D01*
X289371Y253350D01*
X292651Y250070D02*
Y250726D01*
X293307D01*
Y250070D01*
X292651D01*
X295931D02*
X297243D01*
X296587D01*
Y254006D01*
X295931Y253350D01*
X287000Y370000D02*
X283064D01*
Y371968D01*
X283720Y372624D01*
X285032D01*
X285688Y371968D01*
Y370000D01*
Y371312D02*
X287000Y372624D01*
Y375904D02*
X283064D01*
X285032Y373936D01*
Y376560D01*
X283720Y377871D02*
X283064Y378527D01*
Y379839D01*
X283720Y380495D01*
X284376D01*
X285032Y379839D01*
X285688Y380495D01*
X286344D01*
X287000Y379839D01*
Y378527D01*
X286344Y377871D01*
X285688D01*
X285032Y378527D01*
X284376Y377871D01*
X283720D01*
X285032Y378527D02*
Y379839D01*
X287000Y381807D02*
X286344D01*
Y382463D01*
X287000D01*
Y381807D01*
Y385087D02*
Y386399D01*
Y385743D01*
X283064D01*
X283720Y385087D01*
X283064Y390991D02*
Y388367D01*
X285032D01*
X284376Y389679D01*
Y390335D01*
X285032Y390991D01*
X286344D01*
X287000Y390335D01*
Y389023D01*
X286344Y388367D01*
X326500Y370000D02*
X322564D01*
Y371968D01*
X323220Y372624D01*
X324532D01*
X325188Y371968D01*
Y370000D01*
Y371312D02*
X326500Y372624D01*
Y375904D02*
X322564D01*
X324532Y373936D01*
Y376560D01*
X323220Y377871D02*
X322564Y378527D01*
Y379839D01*
X323220Y380495D01*
X323876D01*
X324532Y379839D01*
X325188Y380495D01*
X325844D01*
X326500Y379839D01*
Y378527D01*
X325844Y377871D01*
X325188D01*
X324532Y378527D01*
X323876Y377871D01*
X323220D01*
X324532Y378527D02*
Y379839D01*
X326500Y381807D02*
X325844D01*
Y382463D01*
X326500D01*
Y381807D01*
Y385087D02*
Y386399D01*
Y385743D01*
X322564D01*
X323220Y385087D01*
Y388367D02*
X322564Y389023D01*
Y390335D01*
X323220Y390991D01*
X323876D01*
X324532Y390335D01*
Y389679D01*
Y390335D01*
X325188Y390991D01*
X325844D01*
X326500Y390335D01*
Y389023D01*
X325844Y388367D01*
X367000Y370000D02*
X363064D01*
Y371968D01*
X363720Y372624D01*
X365032D01*
X365688Y371968D01*
Y370000D01*
Y371312D02*
X367000Y372624D01*
Y375904D02*
X363064D01*
X365032Y373936D01*
Y376560D01*
X363720Y377871D02*
X363064Y378527D01*
Y379839D01*
X363720Y380495D01*
X364376D01*
X365032Y379839D01*
X365688Y380495D01*
X366344D01*
X367000Y379839D01*
Y378527D01*
X366344Y377871D01*
X365688D01*
X365032Y378527D01*
X364376Y377871D01*
X363720D01*
X365032Y378527D02*
Y379839D01*
X367000Y381807D02*
X366344D01*
Y382463D01*
X367000D01*
Y381807D01*
Y385087D02*
Y386399D01*
Y385743D01*
X363064D01*
X363720Y385087D01*
X367000Y388367D02*
Y389679D01*
Y389023D01*
X363064D01*
X363720Y388367D01*
X406681Y370000D02*
X402745D01*
Y371968D01*
X403401Y372624D01*
X404713D01*
X405369Y371968D01*
Y370000D01*
Y371312D02*
X406681Y372624D01*
Y375904D02*
X402745D01*
X404713Y373936D01*
Y376560D01*
X403401Y377871D02*
X402745Y378527D01*
Y379839D01*
X403401Y380495D01*
X404057D01*
X404713Y379839D01*
X405369Y380495D01*
X406025D01*
X406681Y379839D01*
Y378527D01*
X406025Y377871D01*
X405369D01*
X404713Y378527D01*
X404057Y377871D01*
X403401D01*
X404713Y378527D02*
Y379839D01*
X406681Y381807D02*
X406025D01*
Y382463D01*
X406681D01*
Y381807D01*
X406025Y385087D02*
X406681Y385743D01*
Y387055D01*
X406025Y387711D01*
X403401D01*
X402745Y387055D01*
Y385743D01*
X403401Y385087D01*
X404057D01*
X404713Y385743D01*
Y387711D01*
X442459Y223690D02*
X438523D01*
Y225657D01*
X439179Y226313D01*
X440491D01*
X441147Y225657D01*
Y223690D01*
Y225002D02*
X442459Y226313D01*
Y229593D02*
X438523D01*
X440491Y227625D01*
Y230249D01*
X439179Y231561D02*
X438523Y232217D01*
Y233529D01*
X439179Y234185D01*
X439835D01*
X440491Y233529D01*
X441147Y234185D01*
X441803D01*
X442459Y233529D01*
Y232217D01*
X441803Y231561D01*
X441147D01*
X440491Y232217D01*
X439835Y231561D01*
X439179D01*
X440491Y232217D02*
Y233529D01*
X442459Y235497D02*
X441803D01*
Y236153D01*
X442459D01*
Y235497D01*
X438523Y238776D02*
Y241400D01*
X439179D01*
X441803Y238776D01*
X442459D01*
X402500Y223500D02*
X398564D01*
Y225468D01*
X399220Y226124D01*
X400532D01*
X401188Y225468D01*
Y223500D01*
Y224812D02*
X402500Y226124D01*
Y229404D02*
X398564D01*
X400532Y227436D01*
Y230060D01*
X399220Y231371D02*
X398564Y232027D01*
Y233339D01*
X399220Y233995D01*
X399876D01*
X400532Y233339D01*
X401188Y233995D01*
X401844D01*
X402500Y233339D01*
Y232027D01*
X401844Y231371D01*
X401188D01*
X400532Y232027D01*
X399876Y231371D01*
X399220D01*
X400532Y232027D02*
Y233339D01*
X402500Y235307D02*
X401844D01*
Y235963D01*
X402500D01*
Y235307D01*
X398564Y241211D02*
Y238587D01*
X400532D01*
X399876Y239899D01*
Y240555D01*
X400532Y241211D01*
X401844D01*
X402500Y240555D01*
Y239243D01*
X401844Y238587D01*
X361819Y224000D02*
X357883D01*
Y225968D01*
X358539Y226624D01*
X359851D01*
X360507Y225968D01*
Y224000D01*
Y225312D02*
X361819Y226624D01*
Y229904D02*
X357883D01*
X359851Y227936D01*
Y230560D01*
X358539Y231872D02*
X357883Y232527D01*
Y233839D01*
X358539Y234495D01*
X359195D01*
X359851Y233839D01*
X360507Y234495D01*
X361163D01*
X361819Y233839D01*
Y232527D01*
X361163Y231872D01*
X360507D01*
X359851Y232527D01*
X359195Y231872D01*
X358539D01*
X359851Y232527D02*
Y233839D01*
X361819Y235807D02*
X361163D01*
Y236463D01*
X361819D01*
Y235807D01*
X358539Y239087D02*
X357883Y239743D01*
Y241055D01*
X358539Y241711D01*
X359195D01*
X359851Y241055D01*
Y240399D01*
Y241055D01*
X360507Y241711D01*
X361163D01*
X361819Y241055D01*
Y239743D01*
X361163Y239087D01*
X323000Y224000D02*
X319064D01*
Y225968D01*
X319720Y226624D01*
X321032D01*
X321688Y225968D01*
Y224000D01*
Y225312D02*
X323000Y226624D01*
Y229904D02*
X319064D01*
X321032Y227936D01*
Y230560D01*
X319720Y231872D02*
X319064Y232527D01*
Y233839D01*
X319720Y234495D01*
X320376D01*
X321032Y233839D01*
X321688Y234495D01*
X322344D01*
X323000Y233839D01*
Y232527D01*
X322344Y231872D01*
X321688D01*
X321032Y232527D01*
X320376Y231872D01*
X319720D01*
X321032Y232527D02*
Y233839D01*
X323000Y235807D02*
X322344D01*
Y236463D01*
X323000D01*
Y235807D01*
Y239087D02*
Y240399D01*
Y239743D01*
X319064D01*
X319720Y239087D01*
X304624Y393280D02*
X303968Y393936D01*
X302656D01*
X302000Y393280D01*
Y390656D01*
X302656Y390000D01*
X303968D01*
X304624Y390656D01*
X305936D02*
X306592Y390000D01*
X307904D01*
X308560Y390656D01*
Y393280D01*
X307904Y393936D01*
X306592D01*
X305936Y393280D01*
Y392624D01*
X306592Y391968D01*
X308560D01*
X309872Y390000D02*
Y390656D01*
X310527D01*
Y390000D01*
X309872D01*
X313151D02*
X314463D01*
X313807D01*
Y393936D01*
X313151Y393280D01*
X319055Y393936D02*
X316431D01*
Y391968D01*
X317743Y392624D01*
X318399D01*
X319055Y391968D01*
Y390656D01*
X318399Y390000D01*
X317087D01*
X316431Y390656D01*
X345124Y393280D02*
X344468Y393936D01*
X343156D01*
X342500Y393280D01*
Y390656D01*
X343156Y390000D01*
X344468D01*
X345124Y390656D01*
X346436D02*
X347092Y390000D01*
X348404D01*
X349060Y390656D01*
Y393280D01*
X348404Y393936D01*
X347092D01*
X346436Y393280D01*
Y392624D01*
X347092Y391968D01*
X349060D01*
X350372Y390000D02*
Y390656D01*
X351027D01*
Y390000D01*
X350372D01*
X353651D02*
X354963D01*
X354307D01*
Y393936D01*
X353651Y393280D01*
X356931D02*
X357587Y393936D01*
X358899D01*
X359555Y393280D01*
Y392624D01*
X358899Y391968D01*
X358243D01*
X358899D01*
X359555Y391312D01*
Y390656D01*
X358899Y390000D01*
X357587D01*
X356931Y390656D01*
X385624Y393280D02*
X384968Y393936D01*
X383656D01*
X383000Y393280D01*
Y390656D01*
X383656Y390000D01*
X384968D01*
X385624Y390656D01*
X386936D02*
X387592Y390000D01*
X388904D01*
X389560Y390656D01*
Y393280D01*
X388904Y393936D01*
X387592D01*
X386936Y393280D01*
Y392624D01*
X387592Y391968D01*
X389560D01*
X390872Y390000D02*
Y390656D01*
X391527D01*
Y390000D01*
X390872D01*
X394151D02*
X395463D01*
X394807D01*
Y393936D01*
X394151Y393280D01*
X397431Y390000D02*
X398743D01*
X398087D01*
Y393936D01*
X397431Y393280D01*
X426624D02*
X425968Y393936D01*
X424656D01*
X424000Y393280D01*
Y390656D01*
X424656Y390000D01*
X425968D01*
X426624Y390656D01*
X427936D02*
X428592Y390000D01*
X429904D01*
X430560Y390656D01*
Y393280D01*
X429904Y393936D01*
X428592D01*
X427936Y393280D01*
Y392624D01*
X428592Y391968D01*
X430560D01*
X431872Y390000D02*
Y390656D01*
X432527D01*
Y390000D01*
X431872D01*
X435151Y390656D02*
X435807Y390000D01*
X437119D01*
X437775Y390656D01*
Y393280D01*
X437119Y393936D01*
X435807D01*
X435151Y393280D01*
Y392624D01*
X435807Y391968D01*
X437775D01*
X409485Y219533D02*
X408829Y220189D01*
X407517D01*
X406861Y219533D01*
Y216909D01*
X407517Y216253D01*
X408829D01*
X409485Y216909D01*
X410797D02*
X411453Y216253D01*
X412765D01*
X413421Y216909D01*
Y219533D01*
X412765Y220189D01*
X411453D01*
X410797Y219533D01*
Y218877D01*
X411453Y218221D01*
X413421D01*
X414733Y216253D02*
Y216909D01*
X415389D01*
Y216253D01*
X414733D01*
X418013Y220189D02*
X420637D01*
Y219533D01*
X418013Y216909D01*
Y216253D01*
X370358Y219780D02*
X369703Y220436D01*
X368391D01*
X367735Y219780D01*
Y217156D01*
X368391Y216500D01*
X369703D01*
X370358Y217156D01*
X371671D02*
X372326Y216500D01*
X373638D01*
X374294Y217156D01*
Y219780D01*
X373638Y220436D01*
X372326D01*
X371671Y219780D01*
Y219124D01*
X372326Y218468D01*
X374294D01*
X375606Y216500D02*
Y217156D01*
X376262D01*
Y216500D01*
X375606D01*
X381510Y220436D02*
X378886D01*
Y218468D01*
X380198Y219124D01*
X380854D01*
X381510Y218468D01*
Y217156D01*
X380854Y216500D01*
X379542D01*
X378886Y217156D01*
X329624Y219780D02*
X328968Y220436D01*
X327656D01*
X327000Y219780D01*
Y217156D01*
X327656Y216500D01*
X328968D01*
X329624Y217156D01*
X330936D02*
X331592Y216500D01*
X332904D01*
X333560Y217156D01*
Y219780D01*
X332904Y220436D01*
X331592D01*
X330936Y219780D01*
Y219124D01*
X331592Y218468D01*
X333560D01*
X334872Y216500D02*
Y217156D01*
X335527D01*
Y216500D01*
X334872D01*
X338151Y219780D02*
X338807Y220436D01*
X340119D01*
X340775Y219780D01*
Y219124D01*
X340119Y218468D01*
X339463D01*
X340119D01*
X340775Y217812D01*
Y217156D01*
X340119Y216500D01*
X338807D01*
X338151Y217156D01*
X291124Y219780D02*
X290468Y220436D01*
X289156D01*
X288500Y219780D01*
Y217156D01*
X289156Y216500D01*
X290468D01*
X291124Y217156D01*
X292436D02*
X293092Y216500D01*
X294404D01*
X295060Y217156D01*
Y219780D01*
X294404Y220436D01*
X293092D01*
X292436Y219780D01*
Y219124D01*
X293092Y218468D01*
X295060D01*
X296372Y216500D02*
Y217156D01*
X297027D01*
Y216500D01*
X296372D01*
X299651D02*
X300963D01*
X300307D01*
Y220436D01*
X299651Y219780D01*
X708064Y374500D02*
X712000Y377124D01*
X708064D02*
X712000Y374500D01*
Y378436D02*
X708064D01*
Y380404D01*
X708720Y381060D01*
X710032D01*
X710688Y380404D01*
Y378436D01*
X708064Y384995D02*
X708720Y383683D01*
X710032Y382371D01*
X711344D01*
X712000Y383027D01*
Y384339D01*
X711344Y384995D01*
X710688D01*
X710032Y384339D01*
Y382371D01*
X707771Y336500D02*
Y337812D01*
Y337156D01*
X711707D01*
Y336500D01*
Y337812D01*
Y342404D02*
Y339780D01*
X709083Y342404D01*
X708427D01*
X707771Y341748D01*
Y340436D01*
X708427Y339780D01*
Y346339D02*
X707771Y345683D01*
Y344372D01*
X708427Y343716D01*
X711051D01*
X711707Y344372D01*
Y345683D01*
X711051Y346339D01*
X327000Y187500D02*
X322671D01*
Y189665D01*
X323392Y190386D01*
X324835D01*
X325557Y189665D01*
Y187500D01*
Y188943D02*
X327000Y190386D01*
X326278Y191829D02*
X327000Y192551D01*
Y193994D01*
X326278Y194715D01*
X323392D01*
X322671Y193994D01*
Y192551D01*
X323392Y191829D01*
X324114D01*
X324835Y192551D01*
Y194715D01*
X327000Y196159D02*
X326278D01*
Y196880D01*
X327000D01*
Y196159D01*
X323392Y199766D02*
X322671Y200488D01*
Y201931D01*
X323392Y202653D01*
X324114D01*
X324835Y201931D01*
Y201209D01*
Y201931D01*
X325557Y202653D01*
X326278D01*
X327000Y201931D01*
Y200488D01*
X326278Y199766D01*
X285671Y332500D02*
X289279D01*
X290000Y333222D01*
Y334665D01*
X289279Y335386D01*
X285671D01*
X290000Y336829D02*
Y338272D01*
Y337551D01*
X285671D01*
X286392Y336829D01*
X290000Y340437D02*
X289279D01*
Y341159D01*
X290000D01*
Y340437D01*
Y344045D02*
Y345488D01*
Y344766D01*
X285671D01*
X286392Y344045D01*
X285671Y350539D02*
Y347653D01*
X287835D01*
X287114Y349096D01*
Y349817D01*
X287835Y350539D01*
X289279D01*
X290000Y349817D01*
Y348374D01*
X289279Y347653D01*
X828300Y189500D02*
X831186D01*
X832629Y190943D01*
X831186Y192386D01*
X828300D01*
Y193829D02*
X832629D01*
Y195994D01*
X831908Y196715D01*
X829021D01*
X828300Y195994D01*
Y193829D01*
X832629Y201045D02*
Y198159D01*
X829743Y201045D01*
X829021D01*
X828300Y200323D01*
Y198880D01*
X829021Y198159D01*
X753220Y246395D02*
X752564Y245739D01*
Y244427D01*
X753220Y243771D01*
X755844D01*
X756500Y244427D01*
Y245739D01*
X755844Y246395D01*
X753220Y247707D02*
X752564Y248363D01*
Y249675D01*
X753220Y250331D01*
X753876D01*
X754532Y249675D01*
Y249019D01*
Y249675D01*
X755188Y250331D01*
X755844D01*
X756500Y249675D01*
Y248363D01*
X755844Y247707D01*
X752564Y254266D02*
X753220Y252954D01*
X754532Y251642D01*
X755844D01*
X756500Y252298D01*
Y253610D01*
X755844Y254266D01*
X755188D01*
X754532Y253610D01*
Y251642D01*
X769848Y227003D02*
X769192Y227659D01*
X767880D01*
X767224Y227003D01*
Y224379D01*
X767880Y223723D01*
X769192D01*
X769848Y224379D01*
X771160Y227003D02*
X771816Y227659D01*
X773128D01*
X773784Y227003D01*
Y226347D01*
X773128Y225691D01*
X772472D01*
X773128D01*
X773784Y225035D01*
Y224379D01*
X773128Y223723D01*
X771816D01*
X771160Y224379D01*
X777720Y227659D02*
X775096D01*
Y225691D01*
X776408Y226347D01*
X777064D01*
X777720Y225691D01*
Y224379D01*
X777064Y223723D01*
X775752D01*
X775096Y224379D01*
X738132Y226347D02*
X737476Y225691D01*
Y224379D01*
X738132Y223723D01*
X740756D01*
X741412Y224379D01*
Y225691D01*
X740756Y226347D01*
X738132Y227659D02*
X737476Y228315D01*
Y229627D01*
X738132Y230283D01*
X738788D01*
X739444Y229627D01*
Y228971D01*
Y229627D01*
X740100Y230283D01*
X740756D01*
X741412Y229627D01*
Y228315D01*
X740756Y227659D01*
X741412Y233562D02*
X737476D01*
X739444Y231595D01*
Y234218D01*
X733555Y246123D02*
X732899Y245467D01*
Y244155D01*
X733555Y243499D01*
X736179D01*
X736835Y244155D01*
Y245467D01*
X736179Y246123D01*
X733555Y247435D02*
X732899Y248091D01*
Y249403D01*
X733555Y250059D01*
X734211D01*
X734867Y249403D01*
Y248747D01*
Y249403D01*
X735523Y250059D01*
X736179D01*
X736835Y249403D01*
Y248091D01*
X736179Y247435D01*
X733555Y251371D02*
X732899Y252027D01*
Y253339D01*
X733555Y253995D01*
X734211D01*
X734867Y253339D01*
Y252683D01*
Y253339D01*
X735523Y253995D01*
X736179D01*
X736835Y253339D01*
Y252027D01*
X736179Y251371D01*
X786653Y246145D02*
Y243259D01*
X788096Y241816D01*
X789539Y243259D01*
Y246145D01*
X790982D02*
X793868D01*
X792425D01*
Y241816D01*
X798197Y246145D02*
X795311D01*
Y243981D01*
X796754Y244702D01*
X797476D01*
X798197Y243981D01*
Y242538D01*
X797476Y241816D01*
X796033D01*
X795311Y242538D01*
X768000Y256568D02*
Y253682D01*
X769443Y252239D01*
X770886Y253682D01*
Y256568D01*
X772329D02*
X775215D01*
X773772D01*
Y252239D01*
X778823D02*
Y256568D01*
X776659Y254403D01*
X779545D01*
X738000Y266801D02*
Y263915D01*
X739443Y262472D01*
X740886Y263915D01*
Y266801D01*
X742329D02*
Y262472D01*
X744494D01*
X745216Y263193D01*
Y266080D01*
X744494Y266801D01*
X742329D01*
X746659Y262472D02*
X748102D01*
X747380D01*
Y266801D01*
X746659Y266080D01*
X753153Y262472D02*
X750266D01*
X753153Y265358D01*
Y266080D01*
X752431Y266801D01*
X750988D01*
X750266Y266080D01*
X784637Y214099D02*
Y218428D01*
X786801D01*
X787523Y217707D01*
Y216264D01*
X786801Y215542D01*
X784637D01*
X786080D02*
X787523Y214099D01*
X791131D02*
Y218428D01*
X788966Y216264D01*
X791852D01*
X796182Y218428D02*
X794739Y217707D01*
X793295Y216264D01*
Y214820D01*
X794017Y214099D01*
X795460D01*
X796182Y214820D01*
Y215542D01*
X795460Y216264D01*
X793295D01*
X806866Y234096D02*
X802537D01*
Y236261D01*
X803258Y236982D01*
X804702D01*
X805423Y236261D01*
Y234096D01*
Y235539D02*
X806866Y236982D01*
Y240590D02*
X802537D01*
X804702Y238425D01*
Y241312D01*
X802537Y245641D02*
Y242755D01*
X804702D01*
X803980Y244198D01*
Y244919D01*
X804702Y245641D01*
X806145D01*
X806866Y244919D01*
Y243476D01*
X806145Y242755D01*
X786000Y250000D02*
X781671D01*
Y252165D01*
X782392Y252886D01*
X783835D01*
X784557Y252165D01*
Y250000D01*
Y251443D02*
X786000Y252886D01*
Y256494D02*
X781671D01*
X783835Y254329D01*
Y257215D01*
X786000Y260823D02*
X781671D01*
X783835Y258659D01*
Y261545D01*
X770016Y292572D02*
Y296902D01*
X772180D01*
X772902Y296180D01*
Y294737D01*
X772180Y294016D01*
X770016D01*
X771459D02*
X772902Y292572D01*
X776510D02*
Y296902D01*
X774345Y294737D01*
X777231D01*
X778674Y296180D02*
X779396Y296902D01*
X780839D01*
X781561Y296180D01*
Y295459D01*
X780839Y294737D01*
X780118D01*
X780839D01*
X781561Y294016D01*
Y293294D01*
X780839Y292572D01*
X779396D01*
X778674Y293294D01*
X770032Y298000D02*
Y302329D01*
X772196D01*
X772918Y301608D01*
Y300165D01*
X772196Y299443D01*
X770032D01*
X771475D02*
X772918Y298000D01*
X776526D02*
Y302329D01*
X774361Y300165D01*
X777247D01*
X781577Y298000D02*
X778690D01*
X781577Y300886D01*
Y301608D01*
X780855Y302329D01*
X779412D01*
X778690Y301608D01*
X734000Y307000D02*
X729671D01*
Y309165D01*
X730392Y309886D01*
X731835D01*
X732557Y309165D01*
Y307000D01*
Y308443D02*
X734000Y309886D01*
Y313494D02*
X729671D01*
X731835Y311329D01*
Y314215D01*
X734000Y315659D02*
Y317102D01*
Y316380D01*
X729671D01*
X730392Y315659D01*
X768000Y257500D02*
Y261829D01*
X770165D01*
X770886Y261108D01*
Y259665D01*
X770165Y258943D01*
X768000D01*
X769443D02*
X770886Y257500D01*
X772329Y261108D02*
X773051Y261829D01*
X774494D01*
X775215Y261108D01*
Y260386D01*
X774494Y259665D01*
X773772D01*
X774494D01*
X775215Y258943D01*
Y258222D01*
X774494Y257500D01*
X773051D01*
X772329Y258222D01*
X776659D02*
X777380Y257500D01*
X778823D01*
X779545Y258222D01*
Y261108D01*
X778823Y261829D01*
X777380D01*
X776659Y261108D01*
Y260386D01*
X777380Y259665D01*
X779545D01*
X726500Y223500D02*
X722171D01*
Y225665D01*
X722892Y226386D01*
X724335D01*
X725057Y225665D01*
Y223500D01*
Y224943D02*
X726500Y226386D01*
X722892Y227829D02*
X722171Y228551D01*
Y229994D01*
X722892Y230715D01*
X723614D01*
X724335Y229994D01*
Y229272D01*
Y229994D01*
X725057Y230715D01*
X725778D01*
X726500Y229994D01*
Y228551D01*
X725778Y227829D01*
X722171Y235045D02*
X722892Y233602D01*
X724335Y232159D01*
X725778D01*
X726500Y232880D01*
Y234323D01*
X725778Y235045D01*
X725057D01*
X724335Y234323D01*
Y232159D01*
X715000Y236500D02*
Y240829D01*
X717165D01*
X717886Y240108D01*
Y238665D01*
X717165Y237943D01*
X715000D01*
X716443D02*
X717886Y236500D01*
X719329Y240108D02*
X720051Y240829D01*
X721494D01*
X722216Y240108D01*
Y239386D01*
X721494Y238665D01*
X720772D01*
X721494D01*
X722216Y237943D01*
Y237222D01*
X721494Y236500D01*
X720051D01*
X719329Y237222D01*
X726545Y240829D02*
X723659D01*
Y238665D01*
X725102Y239386D01*
X725823D01*
X726545Y238665D01*
Y237222D01*
X725823Y236500D01*
X724380D01*
X723659Y237222D01*
X762988Y243771D02*
X758659D01*
Y245936D01*
X759380Y246657D01*
X760823D01*
X761545Y245936D01*
Y243771D01*
Y245214D02*
X762988Y246657D01*
X759380Y248100D02*
X758659Y248822D01*
Y250265D01*
X759380Y250987D01*
X760102D01*
X760823Y250265D01*
Y249543D01*
Y250265D01*
X761545Y250987D01*
X762267D01*
X762988Y250265D01*
Y248822D01*
X762267Y248100D01*
X762988Y254594D02*
X758659D01*
X760823Y252430D01*
Y255316D01*
X763500Y228997D02*
Y233327D01*
X765665D01*
X766387Y232605D01*
Y231162D01*
X765665Y230440D01*
X763500D01*
X764943D02*
X766387Y228997D01*
X767830Y232605D02*
X768551Y233327D01*
X769994D01*
X770716Y232605D01*
Y231884D01*
X769994Y231162D01*
X769273D01*
X769994D01*
X770716Y230440D01*
Y229719D01*
X769994Y228997D01*
X768551D01*
X767830Y229719D01*
X772159Y232605D02*
X772881Y233327D01*
X774324D01*
X775045Y232605D01*
Y231884D01*
X774324Y231162D01*
X773602D01*
X774324D01*
X775045Y230440D01*
Y229719D01*
X774324Y228997D01*
X772881D01*
X772159Y229719D01*
X765333Y303500D02*
Y307829D01*
X767497D01*
X768219Y307108D01*
Y305665D01*
X767497Y304943D01*
X765333D01*
X766776D02*
X768219Y303500D01*
X769662Y307108D02*
X770384Y307829D01*
X771827D01*
X772548Y307108D01*
Y306386D01*
X771827Y305665D01*
X771105D01*
X771827D01*
X772548Y304943D01*
Y304222D01*
X771827Y303500D01*
X770384D01*
X769662Y304222D01*
X776878Y303500D02*
X773991D01*
X776878Y306386D01*
Y307108D01*
X776156Y307829D01*
X774713D01*
X773991Y307108D01*
X765333Y310500D02*
Y314829D01*
X767497D01*
X768219Y314108D01*
Y312665D01*
X767497Y311943D01*
X765333D01*
X766776D02*
X768219Y310500D01*
X769662Y314108D02*
X770384Y314829D01*
X771827D01*
X772548Y314108D01*
Y313386D01*
X771827Y312665D01*
X771105D01*
X771827D01*
X772548Y311943D01*
Y311222D01*
X771827Y310500D01*
X770384D01*
X769662Y311222D01*
X773991Y310500D02*
X775434D01*
X774713D01*
Y314829D01*
X773991Y314108D01*
X779000Y307000D02*
Y311329D01*
X781165D01*
X781886Y310608D01*
Y309165D01*
X781165Y308443D01*
X779000D01*
X780443D02*
X781886Y307000D01*
X783329Y310608D02*
X784051Y311329D01*
X785494D01*
X786215Y310608D01*
Y309886D01*
X785494Y309165D01*
X784772D01*
X785494D01*
X786215Y308443D01*
Y307721D01*
X785494Y307000D01*
X784051D01*
X783329Y307721D01*
X787659Y310608D02*
X788380Y311329D01*
X789823D01*
X790545Y310608D01*
Y307721D01*
X789823Y307000D01*
X788380D01*
X787659Y307721D01*
Y310608D01*
X728836Y307000D02*
X724507D01*
Y309165D01*
X725229Y309886D01*
X726672D01*
X727393Y309165D01*
Y307000D01*
Y308443D02*
X728836Y309886D01*
Y314215D02*
Y311329D01*
X725950Y314215D01*
X725229D01*
X724507Y313494D01*
Y312051D01*
X725229Y311329D01*
X728115Y315659D02*
X728836Y316380D01*
Y317823D01*
X728115Y318545D01*
X725229D01*
X724507Y317823D01*
Y316380D01*
X725229Y315659D01*
X725950D01*
X726672Y316380D01*
Y318545D01*
X723584Y307000D02*
X719254D01*
Y309165D01*
X719976Y309886D01*
X721419D01*
X722141Y309165D01*
Y307000D01*
Y308443D02*
X723584Y309886D01*
Y314215D02*
Y311329D01*
X720697Y314215D01*
X719976D01*
X719254Y313494D01*
Y312051D01*
X719976Y311329D01*
Y315659D02*
X719254Y316380D01*
Y317823D01*
X719976Y318545D01*
X720697D01*
X721419Y317823D01*
X722141Y318545D01*
X722862D01*
X723584Y317823D01*
Y316380D01*
X722862Y315659D01*
X722141D01*
X721419Y316380D01*
X720697Y315659D01*
X719976D01*
X721419Y316380D02*
Y317823D01*
X701500Y287000D02*
Y291329D01*
X703665D01*
X704386Y290608D01*
Y289165D01*
X703665Y288443D01*
X701500D01*
X702943D02*
X704386Y287000D01*
X708715D02*
X705829D01*
X708715Y289886D01*
Y290608D01*
X707994Y291329D01*
X706551D01*
X705829Y290608D01*
X710159Y291329D02*
X713045D01*
Y290608D01*
X710159Y287721D01*
Y287000D01*
X701000Y276065D02*
Y280394D01*
X703165D01*
X703886Y279673D01*
Y278230D01*
X703165Y277508D01*
X701000D01*
X702443D02*
X703886Y276065D01*
X708216D02*
X705329D01*
X708216Y278951D01*
Y279673D01*
X707494Y280394D01*
X706051D01*
X705329Y279673D01*
X712545Y280394D02*
X711102Y279673D01*
X709659Y278230D01*
Y276786D01*
X710380Y276065D01*
X711823D01*
X712545Y276786D01*
Y277508D01*
X711823Y278230D01*
X709659D01*
X723584Y253459D02*
Y249130D01*
X726470D01*
X730799D02*
X727913D01*
X730799Y252016D01*
Y252737D01*
X730078Y253459D01*
X728635D01*
X727913Y252737D01*
X728569Y296199D02*
Y291870D01*
X730734D01*
X731456Y292592D01*
Y295478D01*
X730734Y296199D01*
X728569D01*
X732899Y291870D02*
X734342D01*
X733620D01*
Y296199D01*
X732899Y295478D01*
X735892Y311764D02*
X735171Y311043D01*
Y309599D01*
X735892Y308878D01*
X738778D01*
X739500Y309599D01*
Y311043D01*
X738778Y311764D01*
X735892Y313207D02*
X735171Y313929D01*
Y315372D01*
X735892Y316093D01*
X736614D01*
X737335Y315372D01*
Y314650D01*
Y315372D01*
X738057Y316093D01*
X738778D01*
X739500Y315372D01*
Y313929D01*
X738778Y313207D01*
X739500Y320423D02*
Y317537D01*
X736614Y320423D01*
X735892D01*
X735171Y319701D01*
Y318258D01*
X735892Y317537D01*
X741861Y312386D02*
X741139Y311665D01*
Y310222D01*
X741861Y309500D01*
X744747D01*
X745469Y310222D01*
Y311665D01*
X744747Y312386D01*
X741861Y313829D02*
X741139Y314551D01*
Y315994D01*
X741861Y316716D01*
X742582D01*
X743304Y315994D01*
Y315272D01*
Y315994D01*
X744025Y316716D01*
X744747D01*
X745469Y315994D01*
Y314551D01*
X744747Y313829D01*
X745469Y318159D02*
Y319602D01*
Y318880D01*
X741139D01*
X741861Y318159D01*
X771956Y271757D02*
X771234Y272479D01*
X769791D01*
X769070Y271757D01*
Y268871D01*
X769791Y268150D01*
X771234D01*
X771956Y268871D01*
X773399Y271757D02*
X774121Y272479D01*
X775564D01*
X776285Y271757D01*
Y271036D01*
X775564Y270314D01*
X774842D01*
X775564D01*
X776285Y269593D01*
Y268871D01*
X775564Y268150D01*
X774121D01*
X773399Y268871D01*
X777728Y271757D02*
X778450Y272479D01*
X779893D01*
X780615Y271757D01*
Y268871D01*
X779893Y268150D01*
X778450D01*
X777728Y268871D01*
Y271757D01*
X715386Y266416D02*
X714665Y267137D01*
X713222D01*
X712500Y266416D01*
Y263529D01*
X713222Y262808D01*
X714665D01*
X715386Y263529D01*
X719715Y262808D02*
X716829D01*
X719715Y265694D01*
Y266416D01*
X718994Y267137D01*
X717551D01*
X716829Y266416D01*
X721159Y263529D02*
X721880Y262808D01*
X723323D01*
X724045Y263529D01*
Y266416D01*
X723323Y267137D01*
X721880D01*
X721159Y266416D01*
Y265694D01*
X721880Y264972D01*
X724045D01*
X771857Y266416D02*
X771135Y267137D01*
X769692D01*
X768971Y266416D01*
Y263529D01*
X769692Y262808D01*
X771135D01*
X771857Y263529D01*
X776186Y262808D02*
X773300D01*
X776186Y265694D01*
Y266416D01*
X775464Y267137D01*
X774021D01*
X773300Y266416D01*
X777629D02*
X778351Y267137D01*
X779794D01*
X780515Y266416D01*
Y265694D01*
X779794Y264972D01*
X780515Y264251D01*
Y263529D01*
X779794Y262808D01*
X778351D01*
X777629Y263529D01*
Y264251D01*
X778351Y264972D01*
X777629Y265694D01*
Y266416D01*
X778351Y264972D02*
X779794D01*
X772902Y284618D02*
X772180Y285339D01*
X770737D01*
X770016Y284618D01*
Y281731D01*
X770737Y281010D01*
X772180D01*
X772902Y281731D01*
X777231Y281010D02*
X774345D01*
X777231Y283896D01*
Y284618D01*
X776510Y285339D01*
X775067D01*
X774345Y284618D01*
X778674Y285339D02*
X781561D01*
Y284618D01*
X778674Y281731D01*
Y281010D01*
X772918Y290455D02*
X772196Y291176D01*
X770753D01*
X770032Y290455D01*
Y287568D01*
X770753Y286847D01*
X772196D01*
X772918Y287568D01*
X777247Y286847D02*
X774361D01*
X777247Y289733D01*
Y290455D01*
X776526Y291176D01*
X775083D01*
X774361Y290455D01*
X781577Y291176D02*
X780134Y290455D01*
X778690Y289012D01*
Y287568D01*
X779412Y286847D01*
X780855D01*
X781577Y287568D01*
Y288290D01*
X780855Y289012D01*
X778690D01*
X708386Y285108D02*
X707665Y285829D01*
X706222D01*
X705500Y285108D01*
Y282222D01*
X706222Y281500D01*
X707665D01*
X708386Y282222D01*
X712715Y281500D02*
X709829D01*
X712715Y284386D01*
Y285108D01*
X711994Y285829D01*
X710551D01*
X709829Y285108D01*
X717045Y285829D02*
X714159D01*
Y283665D01*
X715602Y284386D01*
X716323D01*
X717045Y283665D01*
Y282222D01*
X716323Y281500D01*
X714880D01*
X714159Y282222D01*
X747963Y226882D02*
X747241Y226160D01*
Y224717D01*
X747963Y223996D01*
X750849D01*
X751571Y224717D01*
Y226160D01*
X750849Y226882D01*
X751571Y231211D02*
Y228325D01*
X748685Y231211D01*
X747963D01*
X747241Y230490D01*
Y229047D01*
X747963Y228325D01*
X751571Y234819D02*
X747241D01*
X749406Y232654D01*
Y235541D01*
X710171Y211500D02*
X714500Y214386D01*
X710171D02*
X714500Y211500D01*
X710892Y218716D02*
X710171Y217994D01*
Y216551D01*
X710892Y215829D01*
X711614D01*
X712335Y216551D01*
Y217994D01*
X713057Y218716D01*
X713778D01*
X714500Y217994D01*
Y216551D01*
X713778Y215829D01*
X714500Y220159D02*
Y221602D01*
Y220880D01*
X710171D01*
X710892Y220159D01*
X455386Y341608D02*
X454665Y342329D01*
X453222D01*
X452500Y341608D01*
Y338721D01*
X453222Y338000D01*
X454665D01*
X455386Y338721D01*
X459716Y338000D02*
X456829D01*
X459716Y340886D01*
Y341608D01*
X458994Y342329D01*
X457551D01*
X456829Y341608D01*
X461159D02*
X461880Y342329D01*
X463323D01*
X464045Y341608D01*
Y340886D01*
X463323Y340165D01*
X462602D01*
X463323D01*
X464045Y339443D01*
Y338721D01*
X463323Y338000D01*
X461880D01*
X461159Y338721D01*
X465488Y338000D02*
Y338721D01*
X466210D01*
Y338000D01*
X465488D01*
X469096Y341608D02*
X469817Y342329D01*
X471260D01*
X471982Y341608D01*
Y340886D01*
X471260Y340165D01*
X471982Y339443D01*
Y338721D01*
X471260Y338000D01*
X469817D01*
X469096Y338721D01*
Y339443D01*
X469817Y340165D01*
X469096Y340886D01*
Y341608D01*
X469817Y340165D02*
X471260D01*
X561892Y367223D02*
X561171Y366502D01*
Y365058D01*
X561892Y364337D01*
X564778D01*
X565500Y365058D01*
Y366502D01*
X564778Y367223D01*
X565500Y371552D02*
Y368666D01*
X562614Y371552D01*
X561892D01*
X561171Y370831D01*
Y369388D01*
X561892Y368666D01*
Y372996D02*
X561171Y373717D01*
Y375160D01*
X561892Y375882D01*
X562614D01*
X563335Y375160D01*
Y374439D01*
Y375160D01*
X564057Y375882D01*
X564778D01*
X565500Y375160D01*
Y373717D01*
X564778Y372996D01*
X565500Y377325D02*
X564778D01*
Y378046D01*
X565500D01*
Y377325D01*
X561171Y380933D02*
Y383819D01*
X561892D01*
X564778Y380933D01*
X565500D01*
X583392Y366386D02*
X582671Y365665D01*
Y364222D01*
X583392Y363500D01*
X586278D01*
X587000Y364222D01*
Y365665D01*
X586278Y366386D01*
X587000Y370715D02*
Y367829D01*
X584114Y370715D01*
X583392D01*
X582671Y369994D01*
Y368551D01*
X583392Y367829D01*
Y372159D02*
X582671Y372880D01*
Y374323D01*
X583392Y375045D01*
X584114D01*
X584835Y374323D01*
Y373602D01*
Y374323D01*
X585557Y375045D01*
X586278D01*
X587000Y374323D01*
Y372880D01*
X586278Y372159D01*
X587000Y376488D02*
X586278D01*
Y377209D01*
X587000D01*
Y376488D01*
X582671Y382982D02*
X583392Y381539D01*
X584835Y380096D01*
X586278D01*
X587000Y380817D01*
Y382260D01*
X586278Y382982D01*
X585557D01*
X584835Y382260D01*
Y380096D01*
X677886Y341108D02*
X677165Y341829D01*
X675722D01*
X675000Y341108D01*
Y338222D01*
X675722Y337500D01*
X677165D01*
X677886Y338222D01*
X682215Y337500D02*
X679329D01*
X682215Y340386D01*
Y341108D01*
X681494Y341829D01*
X680051D01*
X679329Y341108D01*
X683659D02*
X684380Y341829D01*
X685823D01*
X686545Y341108D01*
Y340386D01*
X685823Y339665D01*
X685102D01*
X685823D01*
X686545Y338943D01*
Y338222D01*
X685823Y337500D01*
X684380D01*
X683659Y338222D01*
X687988Y337500D02*
Y338222D01*
X688709D01*
Y337500D01*
X687988D01*
X694482Y341829D02*
X691596D01*
Y339665D01*
X693039Y340386D01*
X693760D01*
X694482Y339665D01*
Y338222D01*
X693760Y337500D01*
X692317D01*
X691596Y338222D01*
X680386Y271239D02*
X679665Y271961D01*
X678222D01*
X677500Y271239D01*
Y268353D01*
X678222Y267632D01*
X679665D01*
X680386Y268353D01*
X684716Y267632D02*
X681829D01*
X684716Y270518D01*
Y271239D01*
X683994Y271961D01*
X682551D01*
X681829Y271239D01*
X686159D02*
X686880Y271961D01*
X688323D01*
X689045Y271239D01*
Y270518D01*
X688323Y269796D01*
X687602D01*
X688323D01*
X689045Y269075D01*
Y268353D01*
X688323Y267632D01*
X686880D01*
X686159Y268353D01*
X690488Y267632D02*
Y268353D01*
X691210D01*
Y267632D01*
X690488D01*
X696260D02*
Y271961D01*
X694096Y269796D01*
X696982D01*
X588892Y227886D02*
X588171Y227165D01*
Y225722D01*
X588892Y225000D01*
X591778D01*
X592500Y225722D01*
Y227165D01*
X591778Y227886D01*
X592500Y232215D02*
Y229329D01*
X589614Y232215D01*
X588892D01*
X588171Y231494D01*
Y230051D01*
X588892Y229329D01*
Y233659D02*
X588171Y234380D01*
Y235823D01*
X588892Y236545D01*
X589614D01*
X590335Y235823D01*
Y235102D01*
Y235823D01*
X591057Y236545D01*
X591778D01*
X592500Y235823D01*
Y234380D01*
X591778Y233659D01*
X592500Y237988D02*
X591778D01*
Y238709D01*
X592500D01*
Y237988D01*
X588892Y241596D02*
X588171Y242317D01*
Y243760D01*
X588892Y244482D01*
X589614D01*
X590335Y243760D01*
Y243039D01*
Y243760D01*
X591057Y244482D01*
X591778D01*
X592500Y243760D01*
Y242317D01*
X591778Y241596D01*
X555892Y227886D02*
X555171Y227165D01*
Y225722D01*
X555892Y225000D01*
X558778D01*
X559500Y225722D01*
Y227165D01*
X558778Y227886D01*
X559500Y232215D02*
Y229329D01*
X556614Y232215D01*
X555892D01*
X555171Y231494D01*
Y230051D01*
X555892Y229329D01*
Y233659D02*
X555171Y234380D01*
Y235823D01*
X555892Y236545D01*
X556614D01*
X557335Y235823D01*
Y235102D01*
Y235823D01*
X558057Y236545D01*
X558778D01*
X559500Y235823D01*
Y234380D01*
X558778Y233659D01*
X559500Y237988D02*
X558778D01*
Y238709D01*
X559500D01*
Y237988D01*
Y244482D02*
Y241596D01*
X556614Y244482D01*
X555892D01*
X555171Y243760D01*
Y242317D01*
X555892Y241596D01*
X455386Y271108D02*
X454665Y271829D01*
X453222D01*
X452500Y271108D01*
Y268221D01*
X453222Y267500D01*
X454665D01*
X455386Y268221D01*
X459716Y267500D02*
X456829D01*
X459716Y270386D01*
Y271108D01*
X458994Y271829D01*
X457551D01*
X456829Y271108D01*
X461159D02*
X461880Y271829D01*
X463323D01*
X464045Y271108D01*
Y270386D01*
X463323Y269665D01*
X462602D01*
X463323D01*
X464045Y268943D01*
Y268221D01*
X463323Y267500D01*
X461880D01*
X461159Y268221D01*
X465488Y267500D02*
Y268221D01*
X466210D01*
Y267500D01*
X465488D01*
X469096D02*
X470539D01*
X469817D01*
Y271829D01*
X469096Y271108D01*
X830171Y391582D02*
Y394468D01*
X830892D01*
X833778Y391582D01*
X834500D01*
Y394468D01*
X833778Y398798D02*
X830892D01*
X830171Y398076D01*
Y396633D01*
X830892Y395911D01*
X833778D01*
X834500Y396633D01*
Y398076D01*
X833057Y397354D02*
X834500Y398798D01*
Y398076D02*
X833778Y398798D01*
X834500Y400241D02*
Y401684D01*
Y400962D01*
X830171D01*
X830892Y400241D01*
X729203Y432502D02*
X733532Y435388D01*
X729203D02*
X733532Y432502D01*
Y436831D02*
X729203D01*
Y438996D01*
X729924Y439717D01*
X731367D01*
X732089Y438996D01*
Y436831D01*
X729203Y444047D02*
Y441160D01*
X731367D01*
X730646Y442603D01*
Y443325D01*
X731367Y444047D01*
X732810D01*
X733532Y443325D01*
Y441882D01*
X732810Y441160D01*
X813482Y201000D02*
X816368D01*
X817811Y202443D01*
X816368Y203886D01*
X813482D01*
Y205329D02*
Y208215D01*
Y206772D01*
X817811D01*
X814203Y209659D02*
X813482Y210380D01*
Y211823D01*
X814203Y212545D01*
X814925D01*
X815646Y211823D01*
Y211102D01*
Y211823D01*
X816368Y212545D01*
X817089D01*
X817811Y211823D01*
Y210380D01*
X817089Y209659D01*
X856863Y352329D02*
Y349443D01*
X858306Y348000D01*
X859749Y349443D01*
Y352329D01*
X861192D02*
X864078D01*
X862635D01*
Y348000D01*
X868407D02*
X865521D01*
X868407Y350886D01*
Y351608D01*
X867686Y352329D01*
X866243D01*
X865521Y351608D01*
X858293Y410055D02*
Y407169D01*
X859736Y405726D01*
X861179Y407169D01*
Y410055D01*
X862622D02*
X865508D01*
X864065D01*
Y405726D01*
X866952D02*
X868395D01*
X867673D01*
Y410055D01*
X866952Y409334D01*
X494500Y419329D02*
Y416443D01*
X495943Y415000D01*
X497386Y416443D01*
Y419329D01*
X501716Y418608D02*
X500994Y419329D01*
X499551D01*
X498829Y418608D01*
Y417886D01*
X499551Y417165D01*
X500994D01*
X501716Y416443D01*
Y415722D01*
X500994Y415000D01*
X499551D01*
X498829Y415722D01*
X503159Y415000D02*
X504602D01*
X503880D01*
Y419329D01*
X503159Y418608D01*
X506766Y415000D02*
Y415722D01*
X507488D01*
Y415000D01*
X506766D01*
X510374Y418608D02*
X511096Y419329D01*
X512539D01*
X513260Y418608D01*
Y417886D01*
X512539Y417165D01*
X513260Y416443D01*
Y415722D01*
X512539Y415000D01*
X511096D01*
X510374Y415722D01*
Y416443D01*
X511096Y417165D01*
X510374Y417886D01*
Y418608D01*
X511096Y417165D02*
X512539D01*
X542374Y419329D02*
Y416443D01*
X543817Y415000D01*
X545260Y416443D01*
Y419329D01*
X549589Y418608D02*
X548868Y419329D01*
X547425D01*
X546703Y418608D01*
Y417886D01*
X547425Y417165D01*
X548868D01*
X549589Y416443D01*
Y415722D01*
X548868Y415000D01*
X547425D01*
X546703Y415722D01*
X551033Y415000D02*
X552476D01*
X551754D01*
Y419329D01*
X551033Y418608D01*
X554640Y415000D02*
Y415722D01*
X555362D01*
Y415000D01*
X554640D01*
X558248Y419329D02*
X561134D01*
Y418608D01*
X558248Y415722D01*
Y415000D01*
X588367Y419282D02*
Y416396D01*
X589811Y414953D01*
X591254Y416396D01*
Y419282D01*
X595583Y418561D02*
X594861Y419282D01*
X593418D01*
X592697Y418561D01*
Y417839D01*
X593418Y417118D01*
X594861D01*
X595583Y416396D01*
Y415674D01*
X594861Y414953D01*
X593418D01*
X592697Y415674D01*
X597026Y414953D02*
X598469D01*
X597748D01*
Y419282D01*
X597026Y418561D01*
X600634Y414953D02*
Y415674D01*
X601355D01*
Y414953D01*
X600634D01*
X607128Y419282D02*
X605685Y418561D01*
X604242Y417118D01*
Y415674D01*
X604963Y414953D01*
X606406D01*
X607128Y415674D01*
Y416396D01*
X606406Y417118D01*
X604242D01*
X632135Y419301D02*
Y416415D01*
X633578Y414972D01*
X635021Y416415D01*
Y419301D01*
X639351Y418579D02*
X638629Y419301D01*
X637186D01*
X636464Y418579D01*
Y417858D01*
X637186Y417136D01*
X638629D01*
X639351Y416415D01*
Y415693D01*
X638629Y414972D01*
X637186D01*
X636464Y415693D01*
X640794Y414972D02*
X642237D01*
X641515D01*
Y419301D01*
X640794Y418579D01*
X644401Y414972D02*
Y415693D01*
X645123D01*
Y414972D01*
X644401D01*
X650895Y419301D02*
X648009D01*
Y417136D01*
X649452Y417858D01*
X650174D01*
X650895Y417136D01*
Y415693D01*
X650174Y414972D01*
X648731D01*
X648009Y415693D01*
X632500Y194829D02*
Y191943D01*
X633943Y190500D01*
X635386Y191943D01*
Y194829D01*
X639715Y194108D02*
X638994Y194829D01*
X637551D01*
X636829Y194108D01*
Y193386D01*
X637551Y192665D01*
X638994D01*
X639715Y191943D01*
Y191222D01*
X638994Y190500D01*
X637551D01*
X636829Y191222D01*
X641159Y190500D02*
X642602D01*
X641880D01*
Y194829D01*
X641159Y194108D01*
X644766Y190500D02*
Y191222D01*
X645488D01*
Y190500D01*
X644766D01*
X650539D02*
Y194829D01*
X648374Y192665D01*
X651260D01*
X585000Y194829D02*
Y191943D01*
X586443Y190500D01*
X587886Y191943D01*
Y194829D01*
X592215Y194108D02*
X591494Y194829D01*
X590051D01*
X589329Y194108D01*
Y193386D01*
X590051Y192665D01*
X591494D01*
X592215Y191943D01*
Y191222D01*
X591494Y190500D01*
X590051D01*
X589329Y191222D01*
X593659Y190500D02*
X595102D01*
X594380D01*
Y194829D01*
X593659Y194108D01*
X597266Y190500D02*
Y191222D01*
X597988D01*
Y190500D01*
X597266D01*
X600874Y194108D02*
X601596Y194829D01*
X603039D01*
X603760Y194108D01*
Y193386D01*
X603039Y192665D01*
X602317D01*
X603039D01*
X603760Y191943D01*
Y191222D01*
X603039Y190500D01*
X601596D01*
X600874Y191222D01*
X537500Y194829D02*
Y191943D01*
X538943Y190500D01*
X540386Y191943D01*
Y194829D01*
X544715Y194108D02*
X543994Y194829D01*
X542551D01*
X541829Y194108D01*
Y193386D01*
X542551Y192665D01*
X543994D01*
X544715Y191943D01*
Y191222D01*
X543994Y190500D01*
X542551D01*
X541829Y191222D01*
X546159Y190500D02*
X547602D01*
X546880D01*
Y194829D01*
X546159Y194108D01*
X549766Y190500D02*
Y191222D01*
X550488D01*
Y190500D01*
X549766D01*
X556260D02*
X553374D01*
X556260Y193386D01*
Y194108D01*
X555539Y194829D01*
X554096D01*
X553374Y194108D01*
X490000Y194829D02*
Y191943D01*
X491443Y190500D01*
X492886Y191943D01*
Y194829D01*
X497216Y194108D02*
X496494Y194829D01*
X495051D01*
X494329Y194108D01*
Y193386D01*
X495051Y192665D01*
X496494D01*
X497216Y191943D01*
Y191222D01*
X496494Y190500D01*
X495051D01*
X494329Y191222D01*
X498659Y190500D02*
X500102D01*
X499380D01*
Y194829D01*
X498659Y194108D01*
X502266Y190500D02*
Y191222D01*
X502988D01*
Y190500D01*
X502266D01*
X505874D02*
X507317D01*
X506596D01*
Y194829D01*
X505874Y194108D01*
X813671Y218307D02*
X816557D01*
X818000Y219750D01*
X816557Y221193D01*
X813671D01*
Y222636D02*
X818000D01*
Y224801D01*
X817278Y225523D01*
X814392D01*
X813671Y224801D01*
Y222636D01*
X818000Y226966D02*
Y228409D01*
Y227687D01*
X813671D01*
X814392Y226966D01*
X818000Y230574D02*
Y232017D01*
Y231295D01*
X813671D01*
X814392Y230574D01*
X856791Y190329D02*
Y187443D01*
X858234Y186000D01*
X859678Y187443D01*
Y190329D01*
X861121D02*
Y186000D01*
X863285D01*
X864007Y186722D01*
Y189608D01*
X863285Y190329D01*
X861121D01*
X865450Y186722D02*
X866171Y186000D01*
X867615D01*
X868336Y186722D01*
Y189608D01*
X867615Y190329D01*
X866171D01*
X865450Y189608D01*
Y188886D01*
X866171Y188165D01*
X868336D01*
X848171Y339500D02*
X851057D01*
X852500Y340943D01*
X851057Y342386D01*
X848171D01*
Y343829D02*
X852500D01*
Y345994D01*
X851778Y346715D01*
X848892D01*
X848171Y345994D01*
Y343829D01*
X852500Y350323D02*
X848171D01*
X850335Y348159D01*
Y351045D01*
X856382Y219000D02*
X859269D01*
X860712Y220443D01*
X859269Y221886D01*
X856382D01*
Y223329D02*
X860712D01*
Y225494D01*
X859990Y226216D01*
X857104D01*
X856382Y225494D01*
Y223329D01*
X857104Y227659D02*
X856382Y228380D01*
Y229823D01*
X857104Y230545D01*
X857826D01*
X858547Y229823D01*
Y229102D01*
Y229823D01*
X859269Y230545D01*
X859990D01*
X860712Y229823D01*
Y228380D01*
X859990Y227659D01*
X473171Y322500D02*
X476778D01*
X477500Y323221D01*
Y324665D01*
X476778Y325386D01*
X473171D01*
X477500Y329715D02*
Y326829D01*
X474614Y329715D01*
X473892D01*
X473171Y328994D01*
Y327551D01*
X473892Y326829D01*
X477500Y331159D02*
X476778D01*
Y331880D01*
X477500D01*
Y331159D01*
X473892Y334766D02*
X473171Y335488D01*
Y336931D01*
X473892Y337653D01*
X474614D01*
X475335Y336931D01*
X476057Y337653D01*
X476778D01*
X477500Y336931D01*
Y335488D01*
X476778Y334766D01*
X476057D01*
X475335Y335488D01*
X474614Y334766D01*
X473892D01*
X475335Y335488D02*
Y336931D01*
X556671Y322500D02*
X560278D01*
X561000Y323221D01*
Y324665D01*
X560278Y325386D01*
X556671D01*
X561000Y329715D02*
Y326829D01*
X558114Y329715D01*
X557392D01*
X556671Y328994D01*
Y327551D01*
X557392Y326829D01*
X561000Y331159D02*
X560278D01*
Y331880D01*
X561000D01*
Y331159D01*
X556671Y334766D02*
Y337653D01*
X557392D01*
X560278Y334766D01*
X561000D01*
X585671Y327500D02*
X589278D01*
X590000Y328222D01*
Y329665D01*
X589278Y330386D01*
X585671D01*
X590000Y334716D02*
Y331829D01*
X587114Y334716D01*
X586392D01*
X585671Y333994D01*
Y332551D01*
X586392Y331829D01*
X590000Y336159D02*
X589278D01*
Y336880D01*
X590000D01*
Y336159D01*
X585671Y342653D02*
X586392Y341210D01*
X587835Y339766D01*
X589278D01*
X590000Y340488D01*
Y341931D01*
X589278Y342653D01*
X588557D01*
X587835Y341931D01*
Y339766D01*
X669671Y327500D02*
X673278D01*
X674000Y328222D01*
Y329665D01*
X673278Y330386D01*
X669671D01*
X674000Y334716D02*
Y331829D01*
X671114Y334716D01*
X670392D01*
X669671Y333994D01*
Y332551D01*
X670392Y331829D01*
X674000Y336159D02*
X673278D01*
Y336880D01*
X674000D01*
Y336159D01*
X669671Y342653D02*
Y339766D01*
X671835D01*
X671114Y341210D01*
Y341931D01*
X671835Y342653D01*
X673278D01*
X674000Y341931D01*
Y340488D01*
X673278Y339766D01*
X670171Y270000D02*
X673778D01*
X674500Y270722D01*
Y272165D01*
X673778Y272886D01*
X670171D01*
X674500Y277216D02*
Y274329D01*
X671614Y277216D01*
X670892D01*
X670171Y276494D01*
Y275051D01*
X670892Y274329D01*
X674500Y278659D02*
X673778D01*
Y279380D01*
X674500D01*
Y278659D01*
Y284431D02*
X670171D01*
X672335Y282266D01*
Y285153D01*
X585171Y263000D02*
X588778D01*
X589500Y263721D01*
Y265165D01*
X588778Y265886D01*
X585171D01*
X589500Y270216D02*
Y267329D01*
X586614Y270216D01*
X585892D01*
X585171Y269494D01*
Y268051D01*
X585892Y267329D01*
X589500Y271659D02*
X588778D01*
Y272380D01*
X589500D01*
Y271659D01*
X585892Y275266D02*
X585171Y275988D01*
Y277431D01*
X585892Y278153D01*
X586614D01*
X587335Y277431D01*
Y276710D01*
Y277431D01*
X588057Y278153D01*
X588778D01*
X589500Y277431D01*
Y275988D01*
X588778Y275266D01*
X557557Y267500D02*
X561165D01*
X561887Y268222D01*
Y269665D01*
X561165Y270386D01*
X557557D01*
X561887Y274715D02*
Y271829D01*
X559000Y274715D01*
X558279D01*
X557557Y273994D01*
Y272551D01*
X558279Y271829D01*
X561887Y276159D02*
X561165D01*
Y276880D01*
X561887D01*
Y276159D01*
Y282653D02*
Y279766D01*
X559000Y282653D01*
X558279D01*
X557557Y281931D01*
Y280488D01*
X558279Y279766D01*
X473440Y270000D02*
X477048D01*
X477769Y270722D01*
Y272165D01*
X477048Y272886D01*
X473440D01*
X477769Y277216D02*
Y274329D01*
X474883Y277216D01*
X474162D01*
X473440Y276494D01*
Y275051D01*
X474162Y274329D01*
X477769Y278659D02*
X477048D01*
Y279380D01*
X477769D01*
Y278659D01*
Y282266D02*
Y283710D01*
Y282988D01*
X473440D01*
X474162Y282266D01*
X352797Y332500D02*
X356404D01*
X357126Y333222D01*
Y334665D01*
X356404Y335386D01*
X352797D01*
X357126Y336829D02*
Y338272D01*
Y337551D01*
X352797D01*
X353518Y336829D01*
X357126Y340437D02*
X356404D01*
Y341159D01*
X357126D01*
Y340437D01*
Y344045D02*
Y345488D01*
Y344766D01*
X352797D01*
X353518Y344045D01*
Y347653D02*
X352797Y348374D01*
Y349817D01*
X353518Y350539D01*
X354240D01*
X354961Y349817D01*
Y349096D01*
Y349817D01*
X355683Y350539D01*
X356404D01*
X357126Y349817D01*
Y348374D01*
X356404Y347653D01*
X373171Y335000D02*
X376779D01*
X377500Y335721D01*
Y337165D01*
X376779Y337886D01*
X373171D01*
X377500Y339329D02*
Y340772D01*
Y340051D01*
X373171D01*
X373892Y339329D01*
X377500Y342937D02*
X376779D01*
Y343659D01*
X377500D01*
Y342937D01*
Y346545D02*
Y347988D01*
Y347266D01*
X373171D01*
X373892Y346545D01*
X377500Y350153D02*
Y351596D01*
Y350874D01*
X373171D01*
X373892Y350153D01*
X443159Y335000D02*
X446767D01*
X447489Y335721D01*
Y337165D01*
X446767Y337886D01*
X443159D01*
X447489Y339329D02*
Y340772D01*
Y340051D01*
X443159D01*
X443881Y339329D01*
X447489Y342937D02*
X446767D01*
Y343659D01*
X447489D01*
Y342937D01*
X446767Y346545D02*
X447489Y347266D01*
Y348710D01*
X446767Y349431D01*
X443881D01*
X443159Y348710D01*
Y347266D01*
X443881Y346545D01*
X444603D01*
X445324Y347266D01*
Y349431D01*
X443159Y258000D02*
X446767D01*
X447489Y258721D01*
Y260165D01*
X446767Y260886D01*
X443159D01*
X447489Y262329D02*
Y263772D01*
Y263051D01*
X443159D01*
X443881Y262329D01*
X447489Y265937D02*
X446767D01*
Y266659D01*
X447489D01*
Y265937D01*
X443159Y269545D02*
Y272431D01*
X443881D01*
X446767Y269545D01*
X447489D01*
X375171Y257500D02*
X378779D01*
X379500Y258222D01*
Y259665D01*
X378779Y260386D01*
X375171D01*
X379500Y261829D02*
Y263272D01*
Y262551D01*
X375171D01*
X375892Y261829D01*
X379500Y265437D02*
X378779D01*
Y266159D01*
X379500D01*
Y265437D01*
X375171Y271931D02*
Y269045D01*
X377335D01*
X376614Y270488D01*
Y271210D01*
X377335Y271931D01*
X378779D01*
X379500Y271210D01*
Y269766D01*
X378779Y269045D01*
X353649Y257500D02*
X357257D01*
X357979Y258222D01*
Y259665D01*
X357257Y260386D01*
X353649D01*
X357979Y261829D02*
Y263272D01*
Y262551D01*
X353649D01*
X354371Y261829D01*
X357979Y265437D02*
X357257D01*
Y266159D01*
X357979D01*
Y265437D01*
X354371Y269045D02*
X353649Y269766D01*
Y271210D01*
X354371Y271931D01*
X355092D01*
X355814Y271210D01*
Y270488D01*
Y271210D01*
X356536Y271931D01*
X357257D01*
X357979Y271210D01*
Y269766D01*
X357257Y269045D01*
X285671Y257500D02*
X289279D01*
X290000Y258222D01*
Y259665D01*
X289279Y260386D01*
X285671D01*
X290000Y261829D02*
Y263272D01*
Y262551D01*
X285671D01*
X286392Y261829D01*
X290000Y265437D02*
X289279D01*
Y266159D01*
X290000D01*
Y265437D01*
Y269045D02*
Y270488D01*
Y269766D01*
X285671D01*
X286392Y269045D01*
X475000Y298525D02*
X470671D01*
Y300689D01*
X471392Y301411D01*
X472835D01*
X473557Y300689D01*
Y298525D01*
Y299968D02*
X475000Y301411D01*
Y305740D02*
Y302854D01*
X472114Y305740D01*
X471392D01*
X470671Y305019D01*
Y303576D01*
X471392Y302854D01*
X475000Y310069D02*
Y307183D01*
X472114Y310069D01*
X471392D01*
X470671Y309348D01*
Y307905D01*
X471392Y307183D01*
X475000Y311513D02*
X474278D01*
Y312234D01*
X475000D01*
Y311513D01*
X471392Y315120D02*
X470671Y315842D01*
Y317285D01*
X471392Y318007D01*
X472114D01*
X472835Y317285D01*
X473557Y318007D01*
X474278D01*
X475000Y317285D01*
Y315842D01*
X474278Y315120D01*
X473557D01*
X472835Y315842D01*
X472114Y315120D01*
X471392D01*
X472835Y315842D02*
Y317285D01*
X522000Y303252D02*
Y307581D01*
X524165D01*
X524886Y306860D01*
Y305417D01*
X524165Y304695D01*
X522000D01*
X523443D02*
X524886Y303252D01*
X529215D02*
X526329D01*
X529215Y306138D01*
Y306860D01*
X528494Y307581D01*
X527051D01*
X526329Y306860D01*
X533545Y303252D02*
X530659D01*
X533545Y306138D01*
Y306860D01*
X532823Y307581D01*
X531380D01*
X530659Y306860D01*
X534988Y303252D02*
Y303974D01*
X535709D01*
Y303252D01*
X534988D01*
X538596Y307581D02*
X541482D01*
Y306860D01*
X538596Y303974D01*
Y303252D01*
X593500Y289449D02*
X589171D01*
Y291614D01*
X589892Y292335D01*
X591335D01*
X592057Y291614D01*
Y289449D01*
Y290892D02*
X593500Y292335D01*
Y296664D02*
Y293778D01*
X590614Y296664D01*
X589892D01*
X589171Y295943D01*
Y294500D01*
X589892Y293778D01*
X593500Y300994D02*
Y298107D01*
X590614Y300994D01*
X589892D01*
X589171Y300272D01*
Y298829D01*
X589892Y298107D01*
X593500Y302437D02*
X592778D01*
Y303158D01*
X593500D01*
Y302437D01*
X589171Y308931D02*
X589892Y307488D01*
X591335Y306045D01*
X592778D01*
X593500Y306766D01*
Y308209D01*
X592778Y308931D01*
X592057D01*
X591335Y308209D01*
Y306045D01*
X635000Y303252D02*
Y307581D01*
X637165D01*
X637886Y306860D01*
Y305417D01*
X637165Y304695D01*
X635000D01*
X636443D02*
X637886Y303252D01*
X642215D02*
X639329D01*
X642215Y306138D01*
Y306860D01*
X641494Y307581D01*
X640051D01*
X639329Y306860D01*
X646545Y303252D02*
X643659D01*
X646545Y306138D01*
Y306860D01*
X645823Y307581D01*
X644380D01*
X643659Y306860D01*
X647988Y303252D02*
Y303974D01*
X648709D01*
Y303252D01*
X647988D01*
X654482Y307581D02*
X651596D01*
Y305417D01*
X653039Y306138D01*
X653760D01*
X654482Y305417D01*
Y303974D01*
X653760Y303252D01*
X652317D01*
X651596Y303974D01*
X677419Y293609D02*
X673090D01*
Y295774D01*
X673811Y296496D01*
X675254D01*
X675976Y295774D01*
Y293609D01*
Y295053D02*
X677419Y296496D01*
Y300825D02*
Y297939D01*
X674533Y300825D01*
X673811D01*
X673090Y300103D01*
Y298660D01*
X673811Y297939D01*
X677419Y305154D02*
Y302268D01*
X674533Y305154D01*
X673811D01*
X673090Y304433D01*
Y302990D01*
X673811Y302268D01*
X677419Y306597D02*
X676697D01*
Y307319D01*
X677419D01*
Y306597D01*
Y312370D02*
X673090D01*
X675254Y310205D01*
Y313091D01*
X605500Y302752D02*
Y307081D01*
X607665D01*
X608386Y306360D01*
Y304917D01*
X607665Y304195D01*
X605500D01*
X606943D02*
X608386Y302752D01*
X612715D02*
X609829D01*
X612715Y305638D01*
Y306360D01*
X611994Y307081D01*
X610551D01*
X609829Y306360D01*
X617045Y302752D02*
X614159D01*
X617045Y305638D01*
Y306360D01*
X616323Y307081D01*
X614880D01*
X614159Y306360D01*
X618488Y302752D02*
Y303473D01*
X619209D01*
Y302752D01*
X618488D01*
X622096Y306360D02*
X622817Y307081D01*
X624260D01*
X624982Y306360D01*
Y305638D01*
X624260Y304917D01*
X623539D01*
X624260D01*
X624982Y304195D01*
Y303473D01*
X624260Y302752D01*
X622817D01*
X622096Y303473D01*
X496000Y303252D02*
Y307581D01*
X498165D01*
X498886Y306860D01*
Y305417D01*
X498165Y304695D01*
X496000D01*
X497443D02*
X498886Y303252D01*
X503216D02*
X500329D01*
X503216Y306138D01*
Y306860D01*
X502494Y307581D01*
X501051D01*
X500329Y306860D01*
X507545Y303252D02*
X504659D01*
X507545Y306138D01*
Y306860D01*
X506823Y307581D01*
X505380D01*
X504659Y306860D01*
X508988Y303252D02*
Y303974D01*
X509710D01*
Y303252D01*
X508988D01*
X512596D02*
X514039D01*
X513317D01*
Y307581D01*
X512596Y306860D01*
X855091Y277508D02*
Y281837D01*
X857255D01*
X857977Y281116D01*
Y279673D01*
X857255Y278951D01*
X855091D01*
X856534D02*
X857977Y277508D01*
X862306D02*
X859420D01*
X862306Y280394D01*
Y281116D01*
X861584Y281837D01*
X860141D01*
X859420Y281116D01*
X863749Y277508D02*
X865192D01*
X864471D01*
Y281837D01*
X863749Y281116D01*
X792738Y201702D02*
X788409D01*
Y203867D01*
X789130Y204588D01*
X790573D01*
X791295Y203867D01*
Y201702D01*
Y203145D02*
X792738Y204588D01*
Y208918D02*
Y206031D01*
X789852Y208918D01*
X789130D01*
X788409Y208196D01*
Y206753D01*
X789130Y206031D01*
Y210361D02*
X788409Y211082D01*
Y212525D01*
X789130Y213247D01*
X792016D01*
X792738Y212525D01*
Y211082D01*
X792016Y210361D01*
X789130D01*
X844303Y287735D02*
X839974D01*
Y289900D01*
X840695Y290622D01*
X842138D01*
X842860Y289900D01*
Y287735D01*
Y289178D02*
X844303Y290622D01*
Y292065D02*
Y293508D01*
Y292786D01*
X839974D01*
X840695Y292065D01*
X843581Y295672D02*
X844303Y296394D01*
Y297837D01*
X843581Y298559D01*
X840695D01*
X839974Y297837D01*
Y296394D01*
X840695Y295672D01*
X841417D01*
X842138Y296394D01*
Y298559D01*
X867362Y243666D02*
X863033D01*
Y245831D01*
X863754Y246553D01*
X865198D01*
X865919Y245831D01*
Y243666D01*
Y245110D02*
X867362Y246553D01*
Y247996D02*
Y249439D01*
Y248717D01*
X863033D01*
X863754Y247996D01*
Y251604D02*
X863033Y252325D01*
Y253768D01*
X863754Y254490D01*
X864476D01*
X865198Y253768D01*
X865919Y254490D01*
X866641D01*
X867362Y253768D01*
Y252325D01*
X866641Y251604D01*
X865919D01*
X865198Y252325D01*
X864476Y251604D01*
X863754D01*
X865198Y252325D02*
Y253768D01*
X869000Y369500D02*
X864671D01*
Y371665D01*
X865392Y372386D01*
X866835D01*
X867557Y371665D01*
Y369500D01*
Y370943D02*
X869000Y372386D01*
Y373829D02*
Y375272D01*
Y374551D01*
X864671D01*
X865392Y373829D01*
X864671Y377437D02*
Y380323D01*
X865392D01*
X868278Y377437D01*
X869000D01*
X837000Y205103D02*
Y209432D01*
X839165D01*
X839886Y208711D01*
Y207267D01*
X839165Y206546D01*
X837000D01*
X838443D02*
X839886Y205103D01*
X841329D02*
X842772D01*
X842051D01*
Y209432D01*
X841329Y208711D01*
X847823Y209432D02*
X846380Y208711D01*
X844937Y207267D01*
Y205824D01*
X845659Y205103D01*
X847102D01*
X847823Y205824D01*
Y206546D01*
X847102Y207267D01*
X844937D01*
X855610Y379500D02*
X851281D01*
Y381665D01*
X852003Y382386D01*
X853446D01*
X854167Y381665D01*
Y379500D01*
Y380943D02*
X855610Y382386D01*
Y383829D02*
Y385272D01*
Y384551D01*
X851281D01*
X852003Y383829D01*
X851281Y390323D02*
Y387437D01*
X853446D01*
X852724Y388880D01*
Y389602D01*
X853446Y390323D01*
X854889D01*
X855610Y389602D01*
Y388159D01*
X854889Y387437D01*
X852818Y181500D02*
X848488D01*
Y183665D01*
X849210Y184386D01*
X850653D01*
X851374Y183665D01*
Y181500D01*
Y182943D02*
X852818Y184386D01*
Y185829D02*
Y187272D01*
Y186551D01*
X848488D01*
X849210Y185829D01*
Y189437D02*
X848488Y190159D01*
Y191602D01*
X849210Y192323D01*
X849931D01*
X850653Y191602D01*
Y190880D01*
Y191602D01*
X851374Y192323D01*
X852096D01*
X852818Y191602D01*
Y190159D01*
X852096Y189437D01*
X298000Y305957D02*
Y310286D01*
X300165D01*
X300886Y309565D01*
Y308122D01*
X300165Y307400D01*
X298000D01*
X299443D02*
X300886Y305957D01*
X302329D02*
X303772D01*
X303051D01*
Y310286D01*
X302329Y309565D01*
X308823Y305957D02*
X305937D01*
X308823Y308843D01*
Y309565D01*
X308102Y310286D01*
X306659D01*
X305937Y309565D01*
X310266Y305957D02*
Y306679D01*
X310988D01*
Y305957D01*
X310266D01*
X313874D02*
X315317D01*
X314596D01*
Y310286D01*
X313874Y309565D01*
X320368Y310286D02*
X317482D01*
Y308122D01*
X318925Y308843D01*
X319647D01*
X320368Y308122D01*
Y306679D01*
X319647Y305957D01*
X318203D01*
X317482Y306679D01*
X297500Y299835D02*
Y304164D01*
X299665D01*
X300386Y303442D01*
Y301999D01*
X299665Y301278D01*
X297500D01*
X298943D02*
X300386Y299835D01*
X301829D02*
X303272D01*
X302551D01*
Y304164D01*
X301829Y303442D01*
X308323Y299835D02*
X305437D01*
X308323Y302721D01*
Y303442D01*
X307602Y304164D01*
X306159D01*
X305437Y303442D01*
X309766Y299835D02*
Y300556D01*
X310488D01*
Y299835D01*
X309766D01*
X313374D02*
X314817D01*
X314096D01*
Y304164D01*
X313374Y303442D01*
X287000Y397500D02*
X282671D01*
Y399665D01*
X283392Y400386D01*
X284835D01*
X285557Y399665D01*
Y397500D01*
Y398943D02*
X287000Y400386D01*
Y401829D02*
Y403272D01*
Y402551D01*
X282671D01*
X283392Y401829D01*
X287000Y405437D02*
Y406880D01*
Y406159D01*
X282671D01*
X283392Y405437D01*
X287000Y409045D02*
X286279D01*
Y409766D01*
X287000D01*
Y409045D01*
Y412653D02*
Y414096D01*
Y413374D01*
X282671D01*
X283392Y412653D01*
X282671Y419147D02*
Y416260D01*
X284835D01*
X284114Y417703D01*
Y418425D01*
X284835Y419147D01*
X286279D01*
X287000Y418425D01*
Y416982D01*
X286279Y416260D01*
X327000Y397500D02*
X322671D01*
Y399665D01*
X323392Y400386D01*
X324835D01*
X325557Y399665D01*
Y397500D01*
Y398943D02*
X327000Y400386D01*
Y401829D02*
Y403272D01*
Y402551D01*
X322671D01*
X323392Y401829D01*
X327000Y405437D02*
Y406880D01*
Y406159D01*
X322671D01*
X323392Y405437D01*
X327000Y409045D02*
X326278D01*
Y409766D01*
X327000D01*
Y409045D01*
Y412653D02*
Y414096D01*
Y413374D01*
X322671D01*
X323392Y412653D01*
Y416260D02*
X322671Y416982D01*
Y418425D01*
X323392Y419147D01*
X324114D01*
X324835Y418425D01*
Y417703D01*
Y418425D01*
X325557Y419147D01*
X326278D01*
X327000Y418425D01*
Y416982D01*
X326278Y416260D01*
X366965Y397537D02*
X362635D01*
Y399701D01*
X363357Y400423D01*
X364800D01*
X365522Y399701D01*
Y397537D01*
Y398980D02*
X366965Y400423D01*
Y401866D02*
Y403309D01*
Y402588D01*
X362635D01*
X363357Y401866D01*
X366965Y405474D02*
Y406917D01*
Y406195D01*
X362635D01*
X363357Y405474D01*
X366965Y409081D02*
X366243D01*
Y409803D01*
X366965D01*
Y409081D01*
Y412689D02*
Y414132D01*
Y413411D01*
X362635D01*
X363357Y412689D01*
X366965Y416297D02*
Y417740D01*
Y417019D01*
X362635D01*
X363357Y416297D01*
X407000Y397500D02*
X402671D01*
Y399665D01*
X403392Y400386D01*
X404835D01*
X405557Y399665D01*
Y397500D01*
Y398943D02*
X407000Y400386D01*
Y401829D02*
Y403272D01*
Y402551D01*
X402671D01*
X403392Y401829D01*
X407000Y405437D02*
Y406880D01*
Y406159D01*
X402671D01*
X403392Y405437D01*
X407000Y409045D02*
X406279D01*
Y409766D01*
X407000D01*
Y409045D01*
X406279Y412653D02*
X407000Y413374D01*
Y414817D01*
X406279Y415539D01*
X403392D01*
X402671Y414817D01*
Y413374D01*
X403392Y412653D01*
X404114D01*
X404835Y413374D01*
Y415539D01*
X427500Y187500D02*
X423171D01*
Y189665D01*
X423892Y190386D01*
X425335D01*
X426057Y189665D01*
Y187500D01*
Y188943D02*
X427500Y190386D01*
Y191829D02*
Y193272D01*
Y192551D01*
X423171D01*
X423892Y191829D01*
X427500Y195437D02*
Y196880D01*
Y196159D01*
X423171D01*
X423892Y195437D01*
X427500Y199045D02*
X426778D01*
Y199766D01*
X427500D01*
Y199045D01*
X423171Y202653D02*
Y205539D01*
X423892D01*
X426778Y202653D01*
X427500D01*
X387913Y187500D02*
X383584D01*
Y189665D01*
X384306Y190386D01*
X385749D01*
X386470Y189665D01*
Y187500D01*
Y188943D02*
X387913Y190386D01*
Y191829D02*
Y193272D01*
Y192551D01*
X383584D01*
X384306Y191829D01*
X387913Y195437D02*
Y196880D01*
Y196159D01*
X383584D01*
X384306Y195437D01*
X387913Y199045D02*
X387192D01*
Y199766D01*
X387913D01*
Y199045D01*
X383584Y205539D02*
Y202653D01*
X385749D01*
X385027Y204096D01*
Y204817D01*
X385749Y205539D01*
X387192D01*
X387913Y204817D01*
Y203374D01*
X387192Y202653D01*
X347071Y187362D02*
X342742D01*
Y189527D01*
X343463Y190248D01*
X344906D01*
X345628Y189527D01*
Y187362D01*
Y188805D02*
X347071Y190248D01*
Y191692D02*
Y193135D01*
Y192413D01*
X342742D01*
X343463Y191692D01*
X347071Y195299D02*
Y196742D01*
Y196021D01*
X342742D01*
X343463Y195299D01*
X347071Y198907D02*
X346349D01*
Y199629D01*
X347071D01*
Y198907D01*
X343463Y202515D02*
X342742Y203236D01*
Y204679D01*
X343463Y205401D01*
X344185D01*
X344906Y204679D01*
Y203958D01*
Y204679D01*
X345628Y205401D01*
X346349D01*
X347071Y204679D01*
Y203236D01*
X346349Y202515D01*
X306736Y187429D02*
X302407D01*
Y189594D01*
X303129Y190315D01*
X304572D01*
X305293Y189594D01*
Y187429D01*
Y188872D02*
X306736Y190315D01*
Y191758D02*
Y193201D01*
Y192480D01*
X302407D01*
X303129Y191758D01*
X306736Y195366D02*
Y196809D01*
Y196088D01*
X302407D01*
X303129Y195366D01*
X306736Y198974D02*
X306015D01*
Y199696D01*
X306736D01*
Y198974D01*
Y202582D02*
Y204025D01*
Y203303D01*
X302407D01*
X303129Y202582D01*
X349500Y308000D02*
X345171D01*
Y310165D01*
X345892Y310886D01*
X347335D01*
X348057Y310165D01*
Y308000D01*
Y309443D02*
X349500Y310886D01*
Y312329D02*
Y313772D01*
Y313051D01*
X345171D01*
X345892Y312329D01*
Y315937D02*
X345171Y316659D01*
Y318102D01*
X345892Y318823D01*
X348779D01*
X349500Y318102D01*
Y316659D01*
X348779Y315937D01*
X345892D01*
X349500Y320266D02*
X348779D01*
Y320988D01*
X349500D01*
Y320266D01*
Y323874D02*
Y325317D01*
Y324596D01*
X345171D01*
X345892Y323874D01*
Y327482D02*
X345171Y328204D01*
Y329647D01*
X345892Y330368D01*
X346614D01*
X347335Y329647D01*
Y328925D01*
Y329647D01*
X348057Y330368D01*
X348779D01*
X349500Y329647D01*
Y328204D01*
X348779Y327482D01*
X407000Y309823D02*
X402671D01*
Y311988D01*
X403392Y312710D01*
X404835D01*
X405557Y311988D01*
Y309823D01*
Y311266D02*
X407000Y312710D01*
Y314153D02*
Y315596D01*
Y314874D01*
X402671D01*
X403392Y314153D01*
Y317760D02*
X402671Y318482D01*
Y319925D01*
X403392Y320647D01*
X406279D01*
X407000Y319925D01*
Y318482D01*
X406279Y317760D01*
X403392D01*
X407000Y322090D02*
X406279D01*
Y322811D01*
X407000D01*
Y322090D01*
Y325698D02*
Y327141D01*
Y326419D01*
X402671D01*
X403392Y325698D01*
X407000Y329305D02*
Y330748D01*
Y330027D01*
X402671D01*
X403392Y329305D01*
X437681Y308000D02*
X433352D01*
Y310165D01*
X434073Y310886D01*
X435516D01*
X436238Y310165D01*
Y308000D01*
Y309443D02*
X437681Y310886D01*
Y312329D02*
Y313772D01*
Y313051D01*
X433352D01*
X434073Y312329D01*
Y315937D02*
X433352Y316659D01*
Y318102D01*
X434073Y318823D01*
X436960D01*
X437681Y318102D01*
Y316659D01*
X436960Y315937D01*
X434073D01*
X437681Y320266D02*
X436960D01*
Y320988D01*
X437681D01*
Y320266D01*
X436960Y323874D02*
X437681Y324596D01*
Y326039D01*
X436960Y326760D01*
X434073D01*
X433352Y326039D01*
Y324596D01*
X434073Y323874D01*
X434795D01*
X435516Y324596D01*
Y326760D01*
X418500Y281000D02*
X414171D01*
Y283165D01*
X414892Y283886D01*
X416335D01*
X417057Y283165D01*
Y281000D01*
Y282443D02*
X418500Y283886D01*
Y285329D02*
Y286772D01*
Y286051D01*
X414171D01*
X414892Y285329D01*
Y288937D02*
X414171Y289659D01*
Y291102D01*
X414892Y291823D01*
X417778D01*
X418500Y291102D01*
Y289659D01*
X417778Y288937D01*
X414892D01*
X418500Y293266D02*
X417778D01*
Y293988D01*
X418500D01*
Y293266D01*
X414171Y296874D02*
Y299760D01*
X414892D01*
X417778Y296874D01*
X418500D01*
X387000Y280500D02*
X382671D01*
Y282665D01*
X383392Y283386D01*
X384835D01*
X385557Y282665D01*
Y280500D01*
Y281943D02*
X387000Y283386D01*
Y284829D02*
Y286272D01*
Y285551D01*
X382671D01*
X383392Y284829D01*
Y288437D02*
X382671Y289159D01*
Y290602D01*
X383392Y291323D01*
X386279D01*
X387000Y290602D01*
Y289159D01*
X386279Y288437D01*
X383392D01*
X387000Y292766D02*
X386279D01*
Y293488D01*
X387000D01*
Y292766D01*
X382671Y299260D02*
Y296374D01*
X384835D01*
X384114Y297817D01*
Y298539D01*
X384835Y299260D01*
X386279D01*
X387000Y298539D01*
Y297096D01*
X386279Y296374D01*
X330000Y279500D02*
X325671D01*
Y281665D01*
X326392Y282386D01*
X327835D01*
X328557Y281665D01*
Y279500D01*
Y280943D02*
X330000Y282386D01*
Y283829D02*
Y285272D01*
Y284551D01*
X325671D01*
X326392Y283829D01*
Y287437D02*
X325671Y288159D01*
Y289602D01*
X326392Y290323D01*
X329278D01*
X330000Y289602D01*
Y288159D01*
X329278Y287437D01*
X326392D01*
X330000Y291766D02*
X329278D01*
Y292488D01*
X330000D01*
Y291766D01*
X326392Y295374D02*
X325671Y296096D01*
Y297539D01*
X326392Y298260D01*
X327114D01*
X327835Y297539D01*
Y296817D01*
Y297539D01*
X328557Y298260D01*
X329278D01*
X330000Y297539D01*
Y296096D01*
X329278Y295374D01*
X298500Y282000D02*
X294171D01*
Y284165D01*
X294892Y284886D01*
X296335D01*
X297057Y284165D01*
Y282000D01*
Y283443D02*
X298500Y284886D01*
Y286329D02*
Y287772D01*
Y287051D01*
X294171D01*
X294892Y286329D01*
Y289937D02*
X294171Y290659D01*
Y292102D01*
X294892Y292823D01*
X297779D01*
X298500Y292102D01*
Y290659D01*
X297779Y289937D01*
X294892D01*
X298500Y294266D02*
X297779D01*
Y294988D01*
X298500D01*
Y294266D01*
Y297874D02*
Y299317D01*
Y298596D01*
X294171D01*
X294892Y297874D01*
X307000Y397537D02*
X302671D01*
Y399701D01*
X303392Y400423D01*
X304835D01*
X305557Y399701D01*
Y397537D01*
Y398980D02*
X307000Y400423D01*
X306278Y401866D02*
X307000Y402588D01*
Y404031D01*
X306278Y404752D01*
X303392D01*
X302671Y404031D01*
Y402588D01*
X303392Y401866D01*
X304114D01*
X304835Y402588D01*
Y404752D01*
X307000Y406195D02*
X306278D01*
Y406917D01*
X307000D01*
Y406195D01*
Y409803D02*
Y411246D01*
Y410525D01*
X302671D01*
X303392Y409803D01*
X302671Y416297D02*
Y413411D01*
X304835D01*
X304114Y414854D01*
Y415575D01*
X304835Y416297D01*
X306278D01*
X307000Y415575D01*
Y414132D01*
X306278Y413411D01*
X347000Y397500D02*
X342671D01*
Y399665D01*
X343392Y400386D01*
X344835D01*
X345557Y399665D01*
Y397500D01*
Y398943D02*
X347000Y400386D01*
X346279Y401829D02*
X347000Y402551D01*
Y403994D01*
X346279Y404715D01*
X343392D01*
X342671Y403994D01*
Y402551D01*
X343392Y401829D01*
X344114D01*
X344835Y402551D01*
Y404715D01*
X347000Y406159D02*
X346279D01*
Y406880D01*
X347000D01*
Y406159D01*
Y409766D02*
Y411209D01*
Y410488D01*
X342671D01*
X343392Y409766D01*
Y413374D02*
X342671Y414096D01*
Y415539D01*
X343392Y416260D01*
X344114D01*
X344835Y415539D01*
Y414817D01*
Y415539D01*
X345557Y416260D01*
X346279D01*
X347000Y415539D01*
Y414096D01*
X346279Y413374D01*
X387000Y397537D02*
X382671D01*
Y399701D01*
X383392Y400423D01*
X384835D01*
X385557Y399701D01*
Y397537D01*
Y398980D02*
X387000Y400423D01*
X386279Y401866D02*
X387000Y402588D01*
Y404031D01*
X386279Y404752D01*
X383392D01*
X382671Y404031D01*
Y402588D01*
X383392Y401866D01*
X384114D01*
X384835Y402588D01*
Y404752D01*
X387000Y406195D02*
X386279D01*
Y406917D01*
X387000D01*
Y406195D01*
Y409803D02*
Y411246D01*
Y410525D01*
X382671D01*
X383392Y409803D01*
X387000Y413411D02*
Y414854D01*
Y414132D01*
X382671D01*
X383392Y413411D01*
X427000Y397500D02*
X422671D01*
Y399665D01*
X423392Y400386D01*
X424835D01*
X425557Y399665D01*
Y397500D01*
Y398943D02*
X427000Y400386D01*
X426278Y401829D02*
X427000Y402551D01*
Y403994D01*
X426278Y404715D01*
X423392D01*
X422671Y403994D01*
Y402551D01*
X423392Y401829D01*
X424114D01*
X424835Y402551D01*
Y404715D01*
X427000Y406159D02*
X426278D01*
Y406880D01*
X427000D01*
Y406159D01*
X426278Y409766D02*
X427000Y410488D01*
Y411931D01*
X426278Y412653D01*
X423392D01*
X422671Y411931D01*
Y410488D01*
X423392Y409766D01*
X424114D01*
X424835Y410488D01*
Y412653D01*
X407484Y187429D02*
X403155D01*
Y189594D01*
X403876Y190315D01*
X405320D01*
X406041Y189594D01*
Y187429D01*
Y188872D02*
X407484Y190315D01*
X406763Y191758D02*
X407484Y192480D01*
Y193923D01*
X406763Y194645D01*
X403876D01*
X403155Y193923D01*
Y192480D01*
X403876Y191758D01*
X404598D01*
X405320Y192480D01*
Y194645D01*
X407484Y196088D02*
X406763D01*
Y196809D01*
X407484D01*
Y196088D01*
X403155Y199696D02*
Y202582D01*
X403876D01*
X406763Y199696D01*
X407484D01*
X367484Y187429D02*
X363155D01*
Y189594D01*
X363877Y190315D01*
X365320D01*
X366041Y189594D01*
Y187429D01*
Y188872D02*
X367484Y190315D01*
X366763Y191758D02*
X367484Y192480D01*
Y193923D01*
X366763Y194645D01*
X363877D01*
X363155Y193923D01*
Y192480D01*
X363877Y191758D01*
X364598D01*
X365320Y192480D01*
Y194645D01*
X367484Y196088D02*
X366763D01*
Y196809D01*
X367484D01*
Y196088D01*
X363155Y202582D02*
Y199696D01*
X365320D01*
X364598Y201139D01*
Y201860D01*
X365320Y202582D01*
X366763D01*
X367484Y201860D01*
Y200417D01*
X366763Y199696D01*
X286000Y187500D02*
X281671D01*
Y189665D01*
X282392Y190386D01*
X283835D01*
X284557Y189665D01*
Y187500D01*
Y188943D02*
X286000Y190386D01*
X285279Y191829D02*
X286000Y192551D01*
Y193994D01*
X285279Y194715D01*
X282392D01*
X281671Y193994D01*
Y192551D01*
X282392Y191829D01*
X283114D01*
X283835Y192551D01*
Y194715D01*
X286000Y196159D02*
X285279D01*
Y196880D01*
X286000D01*
Y196159D01*
Y199766D02*
Y201209D01*
Y200488D01*
X281671D01*
X282392Y199766D01*
X723000Y398138D02*
Y402467D01*
X725165D01*
X725886Y401746D01*
Y400302D01*
X725165Y399581D01*
X723000D01*
X724443D02*
X725886Y398138D01*
X730216Y402467D02*
X728772Y401746D01*
X727329Y400302D01*
Y398859D01*
X728051Y398138D01*
X729494D01*
X730216Y398859D01*
Y399581D01*
X729494Y400302D01*
X727329D01*
X766339Y422500D02*
Y426829D01*
X768503D01*
X769225Y426108D01*
Y424665D01*
X768503Y423943D01*
X766339D01*
X767782D02*
X769225Y422500D01*
X773554Y426829D02*
X770668D01*
Y424665D01*
X772111Y425386D01*
X772832D01*
X773554Y424665D01*
Y423222D01*
X772832Y422500D01*
X771389D01*
X770668Y423222D01*
X705500Y398039D02*
Y402369D01*
X707665D01*
X708386Y401647D01*
Y400204D01*
X707665Y399482D01*
X705500D01*
X706943D02*
X708386Y398039D01*
X709829Y401647D02*
X710551Y402369D01*
X711994D01*
X712715Y401647D01*
Y400926D01*
X711994Y400204D01*
X712715Y399482D01*
Y398761D01*
X711994Y398039D01*
X710551D01*
X709829Y398761D01*
Y399482D01*
X710551Y400204D01*
X709829Y400926D01*
Y401647D01*
X710551Y400204D02*
X711994D01*
X723000Y403465D02*
Y407794D01*
X725165D01*
X725886Y407072D01*
Y405629D01*
X725165Y404908D01*
X723000D01*
X724443D02*
X725886Y403465D01*
X727329Y407794D02*
X730216D01*
Y407072D01*
X727329Y404186D01*
Y403465D01*
X829154Y414000D02*
Y418329D01*
X831318D01*
X832040Y417608D01*
Y416165D01*
X831318Y415443D01*
X829154D01*
X830597D02*
X832040Y414000D01*
X835647D02*
Y418329D01*
X833483Y416165D01*
X836369D01*
X804591Y422500D02*
Y426829D01*
X806755D01*
X807477Y426108D01*
Y424665D01*
X806755Y423943D01*
X804591D01*
X806034D02*
X807477Y422500D01*
X808920Y426108D02*
X809641Y426829D01*
X811084D01*
X811806Y426108D01*
Y425386D01*
X811084Y424665D01*
X810363D01*
X811084D01*
X811806Y423943D01*
Y423222D01*
X811084Y422500D01*
X809641D01*
X808920Y423222D01*
X837244Y403465D02*
Y407794D01*
X839409D01*
X840130Y407072D01*
Y405629D01*
X839409Y404908D01*
X837244D01*
X838687D02*
X840130Y403465D01*
X844460D02*
X841573D01*
X844460Y406351D01*
Y407072D01*
X843738Y407794D01*
X842295D01*
X841573Y407072D01*
X846500Y357000D02*
X842171D01*
Y359165D01*
X842892Y359886D01*
X844335D01*
X845057Y359165D01*
Y357000D01*
Y358443D02*
X846500Y359886D01*
Y361329D02*
Y362772D01*
Y362051D01*
X842171D01*
X842892Y361329D01*
X807500Y290329D02*
Y286000D01*
X810386D01*
X811829D02*
X813272D01*
X812551D01*
Y290329D01*
X811829Y289608D01*
X829886Y259780D02*
X829165Y260502D01*
X827722D01*
X827000Y259780D01*
Y256894D01*
X827722Y256173D01*
X829165D01*
X829886Y256894D01*
Y258337D01*
X828443D01*
X831329Y256173D02*
X832772D01*
X832051D01*
Y260502D01*
X831329Y259780D01*
X572500Y325329D02*
Y321000D01*
X574665D01*
X575386Y321722D01*
Y324608D01*
X574665Y325329D01*
X572500D01*
X576829D02*
Y321000D01*
X578994D01*
X579715Y321722D01*
Y324608D01*
X578994Y325329D01*
X576829D01*
X584045Y321000D02*
X581159D01*
X584045Y323886D01*
Y324608D01*
X583323Y325329D01*
X581880D01*
X581159Y324608D01*
X352008Y324973D02*
Y320644D01*
X354172D01*
X354894Y321365D01*
Y324251D01*
X354172Y324973D01*
X352008D01*
X356337D02*
Y320644D01*
X358502D01*
X359223Y321365D01*
Y324251D01*
X358502Y324973D01*
X356337D01*
X360666Y320644D02*
X362110D01*
X361388D01*
Y324973D01*
X360666Y324251D01*
X855762Y246472D02*
X855041Y245751D01*
Y244308D01*
X855762Y243586D01*
X858648D01*
X859370Y244308D01*
Y245751D01*
X858648Y246472D01*
X859370Y247916D02*
Y249359D01*
Y248637D01*
X855041D01*
X855762Y247916D01*
X858648Y251523D02*
X859370Y252245D01*
Y253688D01*
X858648Y254409D01*
X855762D01*
X855041Y253688D01*
Y252245D01*
X855762Y251523D01*
X856484D01*
X857205Y252245D01*
Y254409D01*
X826386Y288608D02*
X825665Y289329D01*
X824222D01*
X823500Y288608D01*
Y285721D01*
X824222Y285000D01*
X825665D01*
X826386Y285721D01*
X830715Y285000D02*
X827829D01*
X830715Y287886D01*
Y288608D01*
X829994Y289329D01*
X828551D01*
X827829Y288608D01*
X835045Y285000D02*
X832159D01*
X835045Y287886D01*
Y288608D01*
X834323Y289329D01*
X832880D01*
X832159Y288608D01*
X842886Y261108D02*
X842165Y261829D01*
X840722D01*
X840000Y261108D01*
Y258222D01*
X840722Y257500D01*
X842165D01*
X842886Y258222D01*
X847215Y257500D02*
X844329D01*
X847215Y260386D01*
Y261108D01*
X846494Y261829D01*
X845051D01*
X844329Y261108D01*
X848659Y257500D02*
X850102D01*
X849380D01*
Y261829D01*
X848659Y261108D01*
X860403Y265040D02*
X859681Y264318D01*
Y262875D01*
X860403Y262154D01*
X863289D01*
X864011Y262875D01*
Y264318D01*
X863289Y265040D01*
X864011Y269369D02*
Y266483D01*
X861124Y269369D01*
X860403D01*
X859681Y268648D01*
Y267204D01*
X860403Y266483D01*
Y270812D02*
X859681Y271534D01*
Y272977D01*
X860403Y273698D01*
X863289D01*
X864011Y272977D01*
Y271534D01*
X863289Y270812D01*
X860403D01*
X834134Y216454D02*
X833413Y217175D01*
X831970D01*
X831248Y216454D01*
Y213567D01*
X831970Y212846D01*
X833413D01*
X834134Y213567D01*
X835577Y212846D02*
X837021D01*
X836299D01*
Y217175D01*
X835577Y216454D01*
X839185D02*
X839907Y217175D01*
X841350D01*
X842072Y216454D01*
Y215732D01*
X841350Y215010D01*
X842072Y214289D01*
Y213567D01*
X841350Y212846D01*
X839907D01*
X839185Y213567D01*
Y214289D01*
X839907Y215010D01*
X839185Y215732D01*
Y216454D01*
X839907Y215010D02*
X841350D01*
X834886Y222190D02*
X834165Y222912D01*
X832722D01*
X832000Y222190D01*
Y219304D01*
X832722Y218583D01*
X834165D01*
X834886Y219304D01*
X836329Y218583D02*
X837772D01*
X837051D01*
Y222912D01*
X836329Y222190D01*
X839937Y222912D02*
X842823D01*
Y222190D01*
X839937Y219304D01*
Y218583D01*
X361503Y288862D02*
X360781Y289584D01*
X359338D01*
X358616Y288862D01*
Y285976D01*
X359338Y285255D01*
X360781D01*
X361503Y285976D01*
X362946Y285255D02*
X364389D01*
X363667D01*
Y289584D01*
X362946Y288862D01*
X366553D02*
X367275Y289584D01*
X368718D01*
X369440Y288862D01*
Y288141D01*
X368718Y287419D01*
X367997D01*
X368718D01*
X369440Y286698D01*
Y285976D01*
X368718Y285255D01*
X367275D01*
X366553Y285976D01*
X362098Y270099D02*
X361376Y270821D01*
X359933D01*
X359211Y270099D01*
Y267213D01*
X359933Y266492D01*
X361376D01*
X362098Y267213D01*
X363541Y266492D02*
X364984D01*
X364262D01*
Y270821D01*
X363541Y270099D01*
X370035Y266492D02*
X367148D01*
X370035Y269378D01*
Y270099D01*
X369313Y270821D01*
X367870D01*
X367148Y270099D01*
X582886Y283795D02*
X582165Y284516D01*
X580722D01*
X580000Y283795D01*
Y280908D01*
X580722Y280187D01*
X582165D01*
X582886Y280908D01*
X584329Y280187D02*
X585772D01*
X585051D01*
Y284516D01*
X584329Y283795D01*
X587937Y280187D02*
X589380D01*
X588659D01*
Y284516D01*
X587937Y283795D01*
X571886Y270108D02*
X571165Y270829D01*
X569722D01*
X569000Y270108D01*
Y267221D01*
X569722Y266500D01*
X571165D01*
X571886Y267221D01*
X573329Y266500D02*
X574772D01*
X574051D01*
Y270829D01*
X573329Y270108D01*
X576937D02*
X577659Y270829D01*
X579102D01*
X579823Y270108D01*
Y267221D01*
X579102Y266500D01*
X577659D01*
X576937Y267221D01*
Y270108D01*
X714886Y331608D02*
X714165Y332329D01*
X712722D01*
X712000Y331608D01*
Y328721D01*
X712722Y328000D01*
X714165D01*
X714886Y328721D01*
X716329Y331608D02*
X717051Y332329D01*
X718494D01*
X719215Y331608D01*
Y330886D01*
X718494Y330165D01*
X719215Y329443D01*
Y328721D01*
X718494Y328000D01*
X717051D01*
X716329Y328721D01*
Y329443D01*
X717051Y330165D01*
X716329Y330886D01*
Y331608D01*
X717051Y330165D02*
X718494D01*
X293573Y310886D02*
X292852Y310165D01*
Y308721D01*
X293573Y308000D01*
X296460D01*
X297181Y308721D01*
Y310165D01*
X296460Y310886D01*
X292852Y312329D02*
Y315215D01*
X293573D01*
X296460Y312329D01*
X297181D01*
Y316659D02*
X296460D01*
Y317380D01*
X297181D01*
Y316659D01*
Y320266D02*
Y321709D01*
Y320988D01*
X292852D01*
X293573Y320266D01*
X292852Y326760D02*
Y323874D01*
X295016D01*
X294295Y325317D01*
Y326039D01*
X295016Y326760D01*
X296460D01*
X297181Y326039D01*
Y324596D01*
X296460Y323874D01*
X326392Y313710D02*
X325671Y312988D01*
Y311545D01*
X326392Y310823D01*
X329278D01*
X330000Y311545D01*
Y312988D01*
X329278Y313710D01*
X325671Y315153D02*
Y318039D01*
X326392D01*
X329278Y315153D01*
X330000D01*
Y319482D02*
X329278D01*
Y320204D01*
X330000D01*
Y319482D01*
Y323090D02*
Y324533D01*
Y323811D01*
X325671D01*
X326392Y323090D01*
Y326698D02*
X325671Y327419D01*
Y328862D01*
X326392Y329584D01*
X327114D01*
X327835Y328862D01*
Y328141D01*
Y328862D01*
X328557Y329584D01*
X329278D01*
X330000Y328862D01*
Y327419D01*
X329278Y326698D01*
X383892Y306386D02*
X383171Y305665D01*
Y304222D01*
X383892Y303500D01*
X386778D01*
X387500Y304222D01*
Y305665D01*
X386778Y306386D01*
X383171Y307829D02*
Y310716D01*
X383892D01*
X386778Y307829D01*
X387500D01*
Y312159D02*
X386778D01*
Y312880D01*
X387500D01*
Y312159D01*
Y315766D02*
Y317210D01*
Y316488D01*
X383171D01*
X383892Y315766D01*
X387500Y319374D02*
Y320817D01*
Y320096D01*
X383171D01*
X383892Y319374D01*
X414392Y310886D02*
X413671Y310165D01*
Y308721D01*
X414392Y308000D01*
X417278D01*
X418000Y308721D01*
Y310165D01*
X417278Y310886D01*
X413671Y312329D02*
Y315215D01*
X414392D01*
X417278Y312329D01*
X418000D01*
Y316659D02*
X417278D01*
Y317380D01*
X418000D01*
Y316659D01*
X417278Y320266D02*
X418000Y320988D01*
Y322431D01*
X417278Y323153D01*
X414392D01*
X413671Y322431D01*
Y320988D01*
X414392Y320266D01*
X415114D01*
X415835Y320988D01*
Y323153D01*
X435392Y286886D02*
X434671Y286165D01*
Y284721D01*
X435392Y284000D01*
X438278D01*
X439000Y284721D01*
Y286165D01*
X438278Y286886D01*
X434671Y288329D02*
Y291215D01*
X435392D01*
X438278Y288329D01*
X439000D01*
Y292659D02*
X438278D01*
Y293380D01*
X439000D01*
Y292659D01*
X434671Y296266D02*
Y299153D01*
X435392D01*
X438278Y296266D01*
X439000D01*
X403707Y288628D02*
X402985Y287907D01*
Y286464D01*
X403707Y285742D01*
X406593D01*
X407314Y286464D01*
Y287907D01*
X406593Y288628D01*
X402985Y290071D02*
Y292958D01*
X403707D01*
X406593Y290071D01*
X407314D01*
Y294401D02*
X406593D01*
Y295122D01*
X407314D01*
Y294401D01*
X402985Y300895D02*
Y298008D01*
X405150D01*
X404428Y299452D01*
Y300173D01*
X405150Y300895D01*
X406593D01*
X407314Y300173D01*
Y298730D01*
X406593Y298008D01*
X346392Y289886D02*
X345671Y289165D01*
Y287721D01*
X346392Y287000D01*
X349278D01*
X350000Y287721D01*
Y289165D01*
X349278Y289886D01*
X345671Y291329D02*
Y294215D01*
X346392D01*
X349278Y291329D01*
X350000D01*
Y295659D02*
X349278D01*
Y296380D01*
X350000D01*
Y295659D01*
X346392Y299266D02*
X345671Y299988D01*
Y301431D01*
X346392Y302153D01*
X347114D01*
X347835Y301431D01*
Y300710D01*
Y301431D01*
X348557Y302153D01*
X349278D01*
X350000Y301431D01*
Y299988D01*
X349278Y299266D01*
X831077Y337886D02*
X830356Y337165D01*
Y335721D01*
X831077Y335000D01*
X833963D01*
X834685Y335721D01*
Y337165D01*
X833963Y337886D01*
X830356Y342215D02*
X831077Y340772D01*
X832520Y339329D01*
X833963D01*
X834685Y340051D01*
Y341494D01*
X833963Y342215D01*
X833242D01*
X832520Y341494D01*
Y339329D01*
X838361Y337602D02*
X837639Y336881D01*
Y335438D01*
X838361Y334716D01*
X841247D01*
X841969Y335438D01*
Y336881D01*
X841247Y337602D01*
X837639Y341932D02*
Y339046D01*
X839804D01*
X839082Y340489D01*
Y341210D01*
X839804Y341932D01*
X841247D01*
X841969Y341210D01*
Y339767D01*
X841247Y339046D01*
X725886Y412693D02*
X725165Y413414D01*
X723722D01*
X723000Y412693D01*
Y409807D01*
X723722Y409085D01*
X725165D01*
X725886Y409807D01*
X729494Y409085D02*
Y413414D01*
X727329Y411250D01*
X730216D01*
X841886Y385108D02*
X841165Y385829D01*
X839722D01*
X839000Y385108D01*
Y382222D01*
X839722Y381500D01*
X841165D01*
X841886Y382222D01*
X843329Y385108D02*
X844051Y385829D01*
X845494D01*
X846216Y385108D01*
Y384386D01*
X845494Y383665D01*
X844772D01*
X845494D01*
X846216Y382943D01*
Y382222D01*
X845494Y381500D01*
X844051D01*
X843329Y382222D01*
X831084Y368142D02*
X830362Y367421D01*
Y365978D01*
X831084Y365256D01*
X833970D01*
X834691Y365978D01*
Y367421D01*
X833970Y368142D01*
X834691Y372471D02*
Y369585D01*
X831805Y372471D01*
X831084D01*
X830362Y371750D01*
Y370307D01*
X831084Y369585D01*
X842429Y395108D02*
X841707Y395829D01*
X840264D01*
X839542Y395108D01*
Y392221D01*
X840264Y391500D01*
X841707D01*
X842429Y392221D01*
X843872Y391500D02*
X845315D01*
X844593D01*
Y395829D01*
X843872Y395108D01*
X749458Y424764D02*
Y427650D01*
X750901Y429093D01*
X752344Y427650D01*
Y424764D01*
Y426929D01*
X749458D01*
X753787Y424764D02*
X755230D01*
X754508D01*
Y429093D01*
X753787Y428372D01*
D126*
X845921Y188898D02*
G03*
X845921Y188898I-197J0D01*
G01*
%TF.MD5,a2f2322e679bd5d644db632374af5e32*%
M02*
