M48
;Layer_Color=9474304
;FILE_FORMAT=2:4
INCH,TZ
;TYPE=PLATED
T1F00S00C0.0118
T2F00S00C0.0157
T3F00S00C0.0197
T4F00S00C0.0256
T6F00S00C0.0276
T8F00S00C0.0350
T9F00S00C0.0394
T10F00S00C0.0402
T11F00S00C0.0433
T12F00S00C0.0472
T13F00S00C0.0551
T14F00S00C0.0551
T15F00S00C0.0642
T16F00S00C0.1280
;TYPE=NON_PLATED
T17F00S00C0.0197
%
T01
X83564Y23564
X83997
X84430
Y23997
Y24430
X83997
Y23997
X83564
Y24430
X74685Y27567
X74252
Y28000
X74685
Y28433
X74252
X73818
Y28000
Y27567
T02
X67246Y15474
X68526Y15624
X68920
X84949Y18351
X85528Y21900
X85634Y22961
X85750Y24652
X83531Y26747
X82487Y27250
X83564Y22450
X79522Y24059
X77755Y23290
X76852Y23629
X75999Y24533
X75450Y24550
X74448Y25007
X73496Y24523
X72951Y24508
X72178Y23085
X71542Y23462
X71579Y26776
X71250Y27111
X70772Y27396
X70900Y28256
X71566Y28295
X71561Y29841
X72015Y29597
X72650Y29552
X74350Y29596
X74939Y29650
X75006Y31000
X75998Y30486
X77002Y29257
X77314Y27850
X77300Y27343
X77243Y26490
X75500Y26500
X73552
X72792Y26929
X73749Y30250
X70441Y30266
X67000Y29150
X63000Y29123
X75998Y28019
X74448Y22123
X74500Y18747
X74499Y18250
X74014Y17750
X75999Y17421
X76300Y17950
X75750Y18750
X69394Y17096
X67926Y17010
X58800Y28679
X56900Y28700
X56378Y28650
X56750Y28250
X55350Y28750
X55358Y29850
X57050Y30450
X56800Y30800
X51750Y29050
X42642Y28569
X41184Y29096
X40563Y28676
X39492Y28569
X38242Y28400
X38050Y28989
X38043Y29841
X36773Y30247
X36389Y29930
X37182Y31050
X37300Y27750
X36500Y27500
X33742Y28569
X32275Y30050
X31610Y29736
X32000Y30950
X29482Y29736
X30642Y28569
X30608Y32431
X33748Y32431
X34818Y31547
X32804Y31264
X39508Y32431
X42608
X41600Y31264
X47750Y31950
X50237Y32102
X51750Y31900
X56600Y32600
X56964Y32297
X58034Y32700
X59150Y31981
X63000Y31965
X64600Y32102
X65498
X67000Y32569
X71700Y33900
X74209Y34968
X75619Y35069
X75619Y35583
X75640Y37083
X75612Y38083
X75619Y38583
X75628Y39583
Y40083
X75985Y39250
X74250Y40050
Y40583
Y41088
X73910Y38700
X73400Y37550
X72500Y39750
X77173Y36550
X77650
X77897Y35086
X77314Y43735
X78503Y43000
X79700
X80250Y42308
X80300Y43743
X81472Y42813
X82041Y41741
X81200Y41000
X81386Y40078
Y39583
Y39086
Y37583
Y37083
X82750Y36246
Y34577
X80236Y33750
X78600Y34291
X78564Y35010
X78268Y35400
X79150Y36455
X79000Y32650
X78650Y32300
X83063Y39878
X85496Y39746
X86623Y39804
X85873Y37750
X83009Y43743
T03
X62650Y25953
X66650
X55400
X51400
X42507Y17743
X41464Y17744
X38500Y17750
X37464Y17751
X34500Y17750
X33457Y17751
X30500Y17750
X29457Y17751
X30393Y43277
X31443Y43269
X34393Y43270
X35443Y43262
X38400Y43270
X39450Y43262
X42400Y43270
X43450Y43262
X48754Y35996
X52750Y36322
X59350Y35056
X63350
X73242Y33847
T04
X66628Y15024
X70628Y15022
X82258Y15050
X86258Y15048
X85506Y17150
X84507
X84008
X83008
X69876Y17124
X68877
X68378
X67378
T06
X82488Y20500
X82400Y23000
X81900Y23550
X81950Y24300
X82600Y24950
X80488Y25450
X81000Y30247
X78850Y29257
X71986Y25750
X67906Y28750
X68050Y29830
X68800Y30086
X47511Y29503
X46750Y28748
X46000Y28595
X45250Y29000
X44550Y29750
X46600Y31236
X37652Y28585
X35492Y28500
X32275Y28600
Y29300
X27950Y29900
X27850Y31150
X28750Y31245
X27150Y30500
X28350Y32600
X32262Y32400
X31800Y31800
X36625Y32698
X37396Y32450
X38050Y32300
X41000Y32050
X44240Y31264
X45100Y31400
X45750Y31986
X46672Y31922
X67556Y32000
X68541Y31411
X69200
X70022Y31661
X71100Y31736
X71650Y31254
X71700Y32200
X71450Y41050
X71986Y41669
X73258
X74250Y42308
X84996Y40189
X84208Y37058
T08
X73251Y20500
X74251
X75251
X76251
X76751Y21500
X75751
X74751
X73751
T09
X68500Y20047
Y25953
X65953Y23500
X60047
X54703
X48797
X46250Y25953
Y20047
Y35055
Y40961
X49299Y37500
X55204
X59547
X65453
X68500Y35047
X72256Y34583
Y35567
Y36551
Y37535
Y38520
X68500Y40953
T10
X72395Y16071
X73395
X76611
X77611
T11
X75503Y45000
X76503
X77503
Y46000
X76503
X75503
X78503
X79503
Y45000
X78503
X80503
Y46000
X81503
Y45000
X82503
Y46000
X83503
Y45000
X84503
Y46000
T12
X63500Y20250
X64500
X65500
X60750
X59750
X58750
X56000
X55000
X54000
X51237
X50237
X49237
X49250Y40750
X50250
X51250
X54000
X55000
X56000
X58750
X59750
X60750
X63500
X64500
X65500
T13
X27457Y15624
X29457
X31457
X33457
X35457
X37457
X39457
X41457
X43457
X48244
X50242
X52252Y15622
X54250Y15624
X56244
X58244
X60244
X62244
X64244
X29450Y45388
X27450
X31450
X33450
X35450
X37450
X39450
X41450
X43450
X48237
X50237
X52237
X54237
X56237
X58237
X60237
X62237
X64237
T14
X26504Y19261
X26497Y41752
T15
X71954Y19201
X78052
T16
X72753Y18000
X77253
T17
X65600Y13583
Y13855
Y14150
Y14445
Y14713
X66209
Y14445
Y14150
Y13855
Y13583
X71043
Y13862
Y14157
Y14452
Y14713
X71597
Y14443
Y14148
Y13852
Y13583
X69161Y17750
X68886
X68591
X68295
X68032
Y18304
X68305
X68600
X68895
X69161
M30
