%TF.GenerationSoftware,Altium Limited,Altium Designer,18.1.9 (240)*%
G04 Layer_Color=8388736*
%FSLAX25Y25*%
%MOIN*%
%TF.FileFunction,Soldermask,Top*%
%TF.Part,Single*%
G01*
G75*
%TA.AperFunction,SMDPad,CuDef*%
%ADD90C,0.15748*%
%ADD92R,0.04147X0.03556*%
%ADD93R,0.03950X0.07887*%
%ADD94O,0.03950X0.07887*%
%ADD95R,0.13595X0.04540*%
%ADD96R,0.14580X0.08477*%
%ADD97R,0.04147X0.02572*%
%ADD99R,0.04343X0.03753*%
%ADD101R,0.03753X0.04343*%
%ADD102O,0.02572X0.06312*%
%ADD104R,0.03556X0.04147*%
%ADD105R,0.02572X0.04147*%
%TA.AperFunction,ComponentPad*%
%ADD106C,0.05524*%
%ADD107O,0.04737X0.05524*%
%ADD108O,0.07887X0.18517*%
%ADD109O,0.18517X0.07887*%
%TA.AperFunction,WasherPad*%
%ADD110C,0.00800*%
%TA.AperFunction,ComponentPad*%
%ADD111O,0.05131X0.09068*%
%ADD112O,0.05131X0.11036*%
%ADD113C,0.07493*%
%ADD114C,0.09461*%
%ADD115R,0.07493X0.07493*%
%TA.AperFunction,ViaPad*%
%ADD116C,0.09461*%
%TA.AperFunction,ComponentPad*%
%ADD117C,0.07887*%
%ADD118R,0.07887X0.07887*%
%ADD119O,0.08674X0.09855*%
%ADD120C,0.06800*%
%ADD121C,0.11430*%
%ADD122O,0.00800X0.06786*%
%TA.AperFunction,ViaPad*%
%ADD123C,0.06312*%
%ADD124C,0.03162*%
%ADD125C,0.03556*%
%TA.AperFunction,SMDPad,CuDef*%
%ADD127R,0.01981X0.03556*%
%ADD128R,0.04737X0.03556*%
%ADD129R,0.08674X0.04343*%
%ADD130R,0.04343X0.08674*%
%ADD131R,0.24422X0.24422*%
%ADD132R,0.03162X0.04737*%
%ADD133R,0.13595X0.13595*%
%ADD134O,0.04343X0.01784*%
%ADD135O,0.01784X0.04343*%
%ADD136R,0.01784X0.04343*%
%ADD137O,0.03950X0.01784*%
%ADD138O,0.01784X0.03950*%
%ADD139R,0.13005X0.13005*%
%ADD140O,0.07808X0.10642*%
%ADD141R,0.07808X0.10642*%
%ADD142R,0.02965X0.06115*%
%ADD143R,0.04737X0.03162*%
%ADD144R,0.04737X0.04737*%
%ADD145R,0.07099X0.10052*%
G04:AMPARAMS|DCode=146|XSize=90.68mil|YSize=236.35mil|CornerRadius=24.67mil|HoleSize=0mil|Usage=FLASHONLY|Rotation=90.000|XOffset=0mil|YOffset=0mil|HoleType=Round|Shape=RoundedRectangle|*
%AMROUNDEDRECTD146*
21,1,0.09068,0.18701,0,0,90.0*
21,1,0.04134,0.23635,0,0,90.0*
1,1,0.04934,0.09350,0.02067*
1,1,0.04934,0.09350,-0.02067*
1,1,0.04934,-0.09350,-0.02067*
1,1,0.04934,-0.09350,0.02067*
%
%ADD146ROUNDEDRECTD146*%
%ADD147R,0.04737X0.07296*%
%ADD148R,0.06115X0.02965*%
%ADD149R,0.07296X0.04737*%
%ADD150R,0.02060X0.05524*%
%ADD151O,0.02060X0.05524*%
%ADD152R,0.07887X0.04737*%
D90*
X860000Y325000D02*
D03*
X275000Y207500D02*
D03*
X272500Y402500D02*
D03*
D92*
X557500Y295413D02*
D03*
Y290689D02*
D03*
X630000Y315724D02*
D03*
Y311000D02*
D03*
Y294655D02*
D03*
Y299379D02*
D03*
X670000Y295155D02*
D03*
Y299880D02*
D03*
X591500Y315811D02*
D03*
Y311087D02*
D03*
X517500Y315909D02*
D03*
Y311185D02*
D03*
Y294189D02*
D03*
Y298913D02*
D03*
X477500Y315909D02*
D03*
Y311185D02*
D03*
X431000Y312638D02*
D03*
Y317362D02*
D03*
X421500Y297362D02*
D03*
Y292638D02*
D03*
X390000Y297362D02*
D03*
Y292638D02*
D03*
X400000Y312638D02*
D03*
Y317362D02*
D03*
X332496Y297362D02*
D03*
Y292638D02*
D03*
X342500Y312638D02*
D03*
Y317362D02*
D03*
X311000Y312638D02*
D03*
Y317362D02*
D03*
X301500Y297362D02*
D03*
Y292638D02*
D03*
X850799Y195138D02*
D03*
Y199862D02*
D03*
Y204276D02*
D03*
Y209000D02*
D03*
X865000Y236107D02*
D03*
Y240832D02*
D03*
X842591Y280161D02*
D03*
Y284885D02*
D03*
X799866Y240592D02*
D03*
Y235868D02*
D03*
X783929Y242638D02*
D03*
Y247362D02*
D03*
X796000Y205205D02*
D03*
Y209929D02*
D03*
X729512Y231403D02*
D03*
Y226679D02*
D03*
Y235858D02*
D03*
Y240582D02*
D03*
X759991Y236107D02*
D03*
Y240832D02*
D03*
Y231562D02*
D03*
Y226838D02*
D03*
X754516Y304862D02*
D03*
Y300138D02*
D03*
X749386Y304862D02*
D03*
Y300138D02*
D03*
X731516Y304862D02*
D03*
Y300138D02*
D03*
X726499Y304862D02*
D03*
Y300138D02*
D03*
X720154Y304862D02*
D03*
Y300138D02*
D03*
X858733Y387362D02*
D03*
Y382638D02*
D03*
X866240Y382638D02*
D03*
Y387362D02*
D03*
X839972Y357500D02*
D03*
Y362224D02*
D03*
X306000Y317362D02*
D03*
Y312638D02*
D03*
X337500Y317362D02*
D03*
Y312638D02*
D03*
X395000Y317362D02*
D03*
Y312638D02*
D03*
Y292638D02*
D03*
Y297362D02*
D03*
X426500Y292638D02*
D03*
Y297362D02*
D03*
X337500Y292638D02*
D03*
Y297362D02*
D03*
X426000Y317362D02*
D03*
Y312638D02*
D03*
X306500Y297362D02*
D03*
Y292638D02*
D03*
D93*
X301500Y259311D02*
D03*
X332496D02*
D03*
X390000D02*
D03*
X421500D02*
D03*
X431000Y350689D02*
D03*
X400000D02*
D03*
X342496D02*
D03*
X311000D02*
D03*
D94*
X311500Y285689D02*
D03*
X301500D02*
D03*
X311500Y259311D02*
D03*
X342496Y285689D02*
D03*
X332496D02*
D03*
X342496Y259311D02*
D03*
X400000Y285689D02*
D03*
X390000D02*
D03*
X400000Y259311D02*
D03*
X431500Y285689D02*
D03*
X421500D02*
D03*
X431500Y259311D02*
D03*
X421000Y324311D02*
D03*
X431000D02*
D03*
X421000Y350689D02*
D03*
X390000D02*
D03*
X400000Y324311D02*
D03*
X390000D02*
D03*
X332496Y350689D02*
D03*
X342496Y324311D02*
D03*
X332496D02*
D03*
X301000Y350689D02*
D03*
X311000Y324311D02*
D03*
X301000D02*
D03*
D95*
X294500Y366281D02*
D03*
Y389115D02*
D03*
X334429Y366352D02*
D03*
Y389186D02*
D03*
X374500Y366281D02*
D03*
Y389115D02*
D03*
X414500Y366281D02*
D03*
Y389115D02*
D03*
X311000Y221083D02*
D03*
Y243917D02*
D03*
X430500Y221083D02*
D03*
Y243917D02*
D03*
X390571Y221012D02*
D03*
Y243847D02*
D03*
X350500Y221083D02*
D03*
Y243917D02*
D03*
X334500Y188583D02*
D03*
Y211417D02*
D03*
X434500Y398781D02*
D03*
Y421615D02*
D03*
X414500Y398793D02*
D03*
Y421627D02*
D03*
X394500Y398781D02*
D03*
Y421615D02*
D03*
X374465Y398816D02*
D03*
Y421651D02*
D03*
X354429Y398781D02*
D03*
Y421615D02*
D03*
X334500Y398840D02*
D03*
Y421674D02*
D03*
X314429Y398852D02*
D03*
Y421686D02*
D03*
X294500Y398863D02*
D03*
Y421698D02*
D03*
X435000Y211417D02*
D03*
Y188583D02*
D03*
X414571Y211347D02*
D03*
Y188512D02*
D03*
X395000Y211417D02*
D03*
Y188583D02*
D03*
X374571Y211347D02*
D03*
Y188512D02*
D03*
X354571Y211280D02*
D03*
Y188445D02*
D03*
X314571Y211347D02*
D03*
Y188512D02*
D03*
X294500Y211417D02*
D03*
Y188583D02*
D03*
D96*
X310500Y384883D02*
D03*
Y370513D02*
D03*
X350429Y384954D02*
D03*
Y370584D02*
D03*
X390500Y384883D02*
D03*
Y370513D02*
D03*
X431000Y384883D02*
D03*
Y370513D02*
D03*
X295000Y225315D02*
D03*
Y239685D02*
D03*
X414500Y239685D02*
D03*
Y225315D02*
D03*
X374571Y239614D02*
D03*
Y225244D02*
D03*
X334500Y239685D02*
D03*
Y225315D02*
D03*
D97*
X310429Y357500D02*
D03*
X301571D02*
D03*
X341929D02*
D03*
X333071D02*
D03*
X430429D02*
D03*
X421571D02*
D03*
X399429D02*
D03*
X390571D02*
D03*
X310929Y252000D02*
D03*
X302071D02*
D03*
X430851D02*
D03*
X421993D02*
D03*
X399351D02*
D03*
X390493D02*
D03*
X341847D02*
D03*
X332989D02*
D03*
D99*
X857500Y240997D02*
D03*
Y236076D02*
D03*
X754497Y240997D02*
D03*
Y236076D02*
D03*
Y226738D02*
D03*
Y231659D02*
D03*
X734941Y226537D02*
D03*
Y231458D02*
D03*
X734965Y240734D02*
D03*
Y235813D02*
D03*
X744484Y230846D02*
D03*
Y225925D02*
D03*
X743500Y306583D02*
D03*
Y301661D02*
D03*
X832500Y362461D02*
D03*
Y357539D02*
D03*
Y345765D02*
D03*
Y350687D02*
D03*
X301000Y317461D02*
D03*
Y312539D02*
D03*
X332496Y317461D02*
D03*
Y312539D02*
D03*
X390000Y317461D02*
D03*
Y312539D02*
D03*
X400000Y292539D02*
D03*
Y297461D02*
D03*
X431500Y292539D02*
D03*
Y297461D02*
D03*
X342496Y292539D02*
D03*
Y297461D02*
D03*
X421000Y317461D02*
D03*
Y312539D02*
D03*
X311500Y297461D02*
D03*
Y292539D02*
D03*
D101*
X722555Y330000D02*
D03*
X727476D02*
D03*
X577461Y282500D02*
D03*
X572539D02*
D03*
X367461D02*
D03*
X362539D02*
D03*
X732579Y410877D02*
D03*
X737500D02*
D03*
X850799Y215000D02*
D03*
X845878D02*
D03*
X850799Y222500D02*
D03*
X845878D02*
D03*
X720094Y282953D02*
D03*
X725016D02*
D03*
X764976Y271110D02*
D03*
X760055D02*
D03*
X765488Y290098D02*
D03*
X760567D02*
D03*
X765488Y284953D02*
D03*
X760567D02*
D03*
X726555Y265000D02*
D03*
X731476D02*
D03*
X840039Y388500D02*
D03*
X844961D02*
D03*
X840067Y378579D02*
D03*
X844988D02*
D03*
D102*
X563484Y293386D02*
D03*
X566043D02*
D03*
X568602D02*
D03*
X571161D02*
D03*
X573721D02*
D03*
X576279D02*
D03*
X578839D02*
D03*
X581398D02*
D03*
X583957D02*
D03*
X586516D02*
D03*
X563484Y316614D02*
D03*
X566043D02*
D03*
X568602D02*
D03*
X571161D02*
D03*
X573721D02*
D03*
X576279D02*
D03*
X578839D02*
D03*
X581398D02*
D03*
X583957D02*
D03*
X586516D02*
D03*
X376516D02*
D03*
X373957D02*
D03*
X371398D02*
D03*
X368839D02*
D03*
X366280D02*
D03*
X363720D02*
D03*
X361161D02*
D03*
X358602D02*
D03*
X356043D02*
D03*
X353484D02*
D03*
X376516Y293386D02*
D03*
X373957D02*
D03*
X371398D02*
D03*
X368839D02*
D03*
X366280D02*
D03*
X363720D02*
D03*
X361161D02*
D03*
X358602D02*
D03*
X356043D02*
D03*
X353484D02*
D03*
D104*
X807224Y430000D02*
D03*
X802500D02*
D03*
X767500D02*
D03*
X772224D02*
D03*
X737394Y405827D02*
D03*
X732670D02*
D03*
X715138Y400500D02*
D03*
X719862D02*
D03*
X852453Y280146D02*
D03*
X847728D02*
D03*
X792361Y221551D02*
D03*
X787637D02*
D03*
X765350Y294935D02*
D03*
X760626D02*
D03*
X759977Y309922D02*
D03*
X755252D02*
D03*
X715154Y277325D02*
D03*
X719878D02*
D03*
X715193Y288228D02*
D03*
X719917D02*
D03*
X764892Y257500D02*
D03*
X760167D02*
D03*
X765362Y300138D02*
D03*
X760638D02*
D03*
X834862Y410815D02*
D03*
X830138D02*
D03*
X732670Y400500D02*
D03*
X737394D02*
D03*
X834862Y405827D02*
D03*
X830138D02*
D03*
D105*
X865000Y229429D02*
D03*
Y220571D02*
D03*
X850000Y355571D02*
D03*
Y364429D02*
D03*
D106*
X862579Y150484D02*
D03*
X822579Y150500D02*
D03*
X855059Y171500D02*
D03*
X830079D02*
D03*
X706283Y150225D02*
D03*
X666283Y150241D02*
D03*
X698763Y171241D02*
D03*
X673783D02*
D03*
D107*
X845067Y171500D02*
D03*
X840079D02*
D03*
X688771Y171241D02*
D03*
X683783D02*
D03*
D108*
X819898Y178205D02*
D03*
D109*
X801000Y189622D02*
D03*
Y166000D02*
D03*
D110*
X715969Y135827D02*
D03*
Y138524D02*
D03*
Y141476D02*
D03*
Y144429D02*
D03*
Y147126D02*
D03*
X710429D02*
D03*
Y144524D02*
D03*
Y141571D02*
D03*
Y138618D02*
D03*
Y135827D02*
D03*
X656000D02*
D03*
Y138547D02*
D03*
Y141500D02*
D03*
Y144453D02*
D03*
Y147126D02*
D03*
X662094Y135827D02*
D03*
Y138547D02*
D03*
Y141500D02*
D03*
Y144453D02*
D03*
Y147126D02*
D03*
X680315Y183039D02*
D03*
X683047D02*
D03*
X686000D02*
D03*
X688953D02*
D03*
X691614D02*
D03*
Y177500D02*
D03*
X688858D02*
D03*
X685906D02*
D03*
X682953D02*
D03*
X680315D02*
D03*
D111*
X669235Y163241D02*
D03*
X703251D02*
D03*
D112*
X669235Y142139D02*
D03*
X703251D02*
D03*
D113*
X462500Y200472D02*
D03*
Y259528D02*
D03*
X487972Y235000D02*
D03*
X547028D02*
D03*
X600472D02*
D03*
X659528D02*
D03*
X685000Y259528D02*
D03*
Y200472D02*
D03*
Y409528D02*
D03*
Y350472D02*
D03*
X654528Y375000D02*
D03*
X595472D02*
D03*
X552044D02*
D03*
X492989D02*
D03*
X462500Y350551D02*
D03*
Y409606D02*
D03*
X722555Y385197D02*
D03*
Y375354D02*
D03*
Y365512D02*
D03*
Y355669D02*
D03*
D114*
X274571Y156244D02*
D03*
X354571D02*
D03*
X414500Y453883D02*
D03*
X374500D02*
D03*
X334500D02*
D03*
X294500D02*
D03*
X502374D02*
D03*
X542374D02*
D03*
X602374D02*
D03*
X642374D02*
D03*
X622445Y156244D02*
D03*
X582445D02*
D03*
X522516Y156216D02*
D03*
X482445Y156244D02*
D03*
X482374Y453883D02*
D03*
X522374D02*
D03*
X582374D02*
D03*
X622374D02*
D03*
X642445Y156244D02*
D03*
X602445D02*
D03*
X542500D02*
D03*
X502417D02*
D03*
X274500Y453883D02*
D03*
X314500D02*
D03*
X354500D02*
D03*
X394500D02*
D03*
X434500D02*
D03*
X434571Y156244D02*
D03*
X414571D02*
D03*
X394571D02*
D03*
X374571D02*
D03*
X334571D02*
D03*
X314571D02*
D03*
X294571D02*
D03*
D115*
X722555Y345827D02*
D03*
D116*
X562374Y453883D02*
D03*
X562445Y156244D02*
D03*
X265039Y192609D02*
D03*
X264968Y417518D02*
D03*
D117*
X795032Y460002D02*
D03*
Y450002D02*
D03*
X785032Y460002D02*
D03*
Y450002D02*
D03*
X775032Y460002D02*
D03*
Y450002D02*
D03*
X805032D02*
D03*
Y460002D02*
D03*
X815032Y450002D02*
D03*
Y460002D02*
D03*
X825032Y450002D02*
D03*
Y460002D02*
D03*
X835032Y450002D02*
D03*
Y460002D02*
D03*
X845032Y450002D02*
D03*
X765032Y460002D02*
D03*
Y450002D02*
D03*
X755032Y460002D02*
D03*
Y450002D02*
D03*
X766115Y160709D02*
D03*
X776115D02*
D03*
X733949D02*
D03*
X723949D02*
D03*
D118*
X845032Y460002D02*
D03*
D119*
X645000Y202500D02*
D03*
X635000D02*
D03*
X655000D02*
D03*
X597500D02*
D03*
X587500D02*
D03*
X607500D02*
D03*
X550000D02*
D03*
X540000D02*
D03*
X560000D02*
D03*
X502374D02*
D03*
X492374D02*
D03*
X512374D02*
D03*
X645000Y407500D02*
D03*
X655000D02*
D03*
X635000D02*
D03*
X597500D02*
D03*
X607500D02*
D03*
X587500D02*
D03*
X550000D02*
D03*
X560000D02*
D03*
X540000D02*
D03*
X502500D02*
D03*
X512500D02*
D03*
X492500D02*
D03*
D120*
X762512Y205000D02*
D03*
X752512D02*
D03*
X742512D02*
D03*
X732512D02*
D03*
X767512Y215000D02*
D03*
X757512D02*
D03*
X737512D02*
D03*
X747512D02*
D03*
D121*
X719540Y192008D02*
D03*
X780524D02*
D03*
D122*
X772532Y180000D02*
D03*
X727532D02*
D03*
D123*
X719862Y416693D02*
D03*
X742500Y423079D02*
D03*
X376516Y285846D02*
D03*
X700220Y316614D02*
D03*
X354921Y285000D02*
D03*
X283500Y326000D02*
D03*
X322750Y286000D02*
D03*
Y293000D02*
D03*
X373957Y324500D02*
D03*
X322618Y324000D02*
D03*
X380500Y323000D02*
D03*
X685413Y314108D02*
D03*
X692000D02*
D03*
X675558Y320000D02*
D03*
X680500Y298297D02*
D03*
X688000Y300864D02*
D03*
X679058Y287500D02*
D03*
X849964Y401893D02*
D03*
X824878Y205000D02*
D03*
X460000Y285953D02*
D03*
X804878Y254500D02*
D03*
X819500Y243000D02*
D03*
X819000Y235500D02*
D03*
X826000Y249500D02*
D03*
X824000Y230000D02*
D03*
X732579Y416693D02*
D03*
X714500Y410500D02*
D03*
X716500Y312539D02*
D03*
X711000Y317362D02*
D03*
X717000Y322000D02*
D03*
X842084Y370584D02*
D03*
X467500Y287477D02*
D03*
X475112Y295026D02*
D03*
X466000Y312359D02*
D03*
X466724Y319224D02*
D03*
X457500Y319857D02*
D03*
X442402Y312638D02*
D03*
X366247Y326977D02*
D03*
X452500Y290000D02*
D03*
X445500Y297500D02*
D03*
X451000Y314000D02*
D03*
X410000Y320500D02*
D03*
X271500Y305000D02*
D03*
X278500Y311500D02*
D03*
X279500Y299000D02*
D03*
X318000Y318000D02*
D03*
X287500Y312449D02*
D03*
X810000Y302468D02*
D03*
X788500Y292572D02*
D03*
X719862Y257500D02*
D03*
D124*
X844303Y244297D02*
D03*
Y239966D02*
D03*
Y235635D02*
D03*
X839972Y244297D02*
D03*
Y239966D02*
D03*
Y235635D02*
D03*
X835642Y244297D02*
D03*
Y239966D02*
D03*
Y235635D02*
D03*
D125*
X746846Y275669D02*
D03*
X742516D02*
D03*
X738185D02*
D03*
X746846Y280000D02*
D03*
X742516D02*
D03*
X738185D02*
D03*
X746846Y284331D02*
D03*
X742516D02*
D03*
X738185D02*
D03*
D127*
X698054Y164855D02*
D03*
X696086D02*
D03*
X694117D02*
D03*
X692149D02*
D03*
X690180D02*
D03*
X688212D02*
D03*
X695102Y159741D02*
D03*
X693133D02*
D03*
X691165D02*
D03*
X689196D02*
D03*
X687227D02*
D03*
X685259D02*
D03*
X683290D02*
D03*
X681322D02*
D03*
X679354D02*
D03*
X677385D02*
D03*
X674432Y164855D02*
D03*
X676401D02*
D03*
X678369D02*
D03*
X680338D02*
D03*
X682306D02*
D03*
X684275D02*
D03*
D128*
X674039Y159741D02*
D03*
X698448Y159735D02*
D03*
D129*
X749508Y345827D02*
D03*
Y350827D02*
D03*
Y355827D02*
D03*
Y360827D02*
D03*
Y365827D02*
D03*
Y370827D02*
D03*
Y375827D02*
D03*
Y380827D02*
D03*
Y385827D02*
D03*
Y390827D02*
D03*
Y395827D02*
D03*
Y400827D02*
D03*
Y405827D02*
D03*
Y410827D02*
D03*
X820492D02*
D03*
Y405827D02*
D03*
Y400827D02*
D03*
Y395827D02*
D03*
Y390827D02*
D03*
Y385827D02*
D03*
Y380827D02*
D03*
Y375827D02*
D03*
Y370827D02*
D03*
Y365827D02*
D03*
Y360827D02*
D03*
Y355827D02*
D03*
Y350827D02*
D03*
Y345827D02*
D03*
D130*
X762500Y416693D02*
D03*
X767500D02*
D03*
X772500D02*
D03*
X777500D02*
D03*
X782500D02*
D03*
X787500D02*
D03*
X792500D02*
D03*
X797500D02*
D03*
X802500D02*
D03*
X807500D02*
D03*
D131*
X785000Y380079D02*
D03*
D132*
X862500Y402224D02*
D03*
X866240Y392776D02*
D03*
X858760D02*
D03*
X790000Y237112D02*
D03*
X793740Y227663D02*
D03*
X786260D02*
D03*
X806000Y227224D02*
D03*
X809740Y217776D02*
D03*
X802260D02*
D03*
X806000Y212224D02*
D03*
X809740Y202776D02*
D03*
X802260D02*
D03*
X862500Y355276D02*
D03*
X858760Y364724D02*
D03*
X866240D02*
D03*
D133*
X839972Y239966D02*
D03*
D134*
X830523Y234061D02*
D03*
Y236029D02*
D03*
Y237998D02*
D03*
Y239966D02*
D03*
Y241934D02*
D03*
Y243903D02*
D03*
Y245871D02*
D03*
X849421D02*
D03*
Y243903D02*
D03*
Y241934D02*
D03*
Y239966D02*
D03*
Y237998D02*
D03*
Y236029D02*
D03*
Y234061D02*
D03*
D135*
X834067Y249415D02*
D03*
X836035D02*
D03*
X838004D02*
D03*
X839972D02*
D03*
X841941D02*
D03*
X843909D02*
D03*
X845878D02*
D03*
Y230517D02*
D03*
X843909D02*
D03*
X841941D02*
D03*
X839972D02*
D03*
X838004D02*
D03*
X836035D02*
D03*
D136*
X834067D02*
D03*
D137*
X751965Y273110D02*
D03*
Y275079D02*
D03*
Y277047D02*
D03*
Y279016D02*
D03*
Y280984D02*
D03*
Y282953D02*
D03*
Y284921D02*
D03*
Y286890D02*
D03*
X733067D02*
D03*
Y284921D02*
D03*
Y282953D02*
D03*
Y280984D02*
D03*
Y279016D02*
D03*
Y277047D02*
D03*
Y275079D02*
D03*
Y273110D02*
D03*
D138*
X749405Y289449D02*
D03*
X747437D02*
D03*
X745469D02*
D03*
X743500D02*
D03*
X741532D02*
D03*
X739563D02*
D03*
X737595D02*
D03*
X735626D02*
D03*
Y270551D02*
D03*
X737595D02*
D03*
X739563D02*
D03*
X741532D02*
D03*
X743500D02*
D03*
X745469D02*
D03*
X747437D02*
D03*
X749405D02*
D03*
D139*
X742516Y280000D02*
D03*
D140*
X620000Y350413D02*
D03*
X610000D02*
D03*
X600000D02*
D03*
X620000Y314587D02*
D03*
X610000D02*
D03*
X660000Y350413D02*
D03*
X650000D02*
D03*
X640000D02*
D03*
X660000Y314587D02*
D03*
X650000D02*
D03*
X640000Y259587D02*
D03*
X650000D02*
D03*
X660000D02*
D03*
X640000Y295413D02*
D03*
X650000D02*
D03*
X600000Y259587D02*
D03*
X610000D02*
D03*
X620000D02*
D03*
X600000Y295413D02*
D03*
X610000D02*
D03*
X527500Y259587D02*
D03*
X537500D02*
D03*
X547500D02*
D03*
X527500Y295413D02*
D03*
X537500D02*
D03*
X487500Y259587D02*
D03*
X497500D02*
D03*
X507500D02*
D03*
X487500Y295413D02*
D03*
X497500D02*
D03*
X507500Y350512D02*
D03*
X497500D02*
D03*
X487500D02*
D03*
X507500Y314685D02*
D03*
X497500D02*
D03*
X547500Y350413D02*
D03*
X537500D02*
D03*
X527500D02*
D03*
X547500Y314587D02*
D03*
X537500D02*
D03*
D141*
X600000D02*
D03*
X640000D02*
D03*
X660000Y295413D02*
D03*
X620000D02*
D03*
X547500D02*
D03*
X507500D02*
D03*
X487500Y314685D02*
D03*
X527500Y314587D02*
D03*
D142*
X571161Y275079D02*
D03*
X578839D02*
D03*
X361087Y274913D02*
D03*
X368764D02*
D03*
X732854Y257500D02*
D03*
X725177D02*
D03*
X758661Y265000D02*
D03*
X766339D02*
D03*
D143*
X836276Y191260D02*
D03*
Y198740D02*
D03*
X845724D02*
D03*
X829677Y271209D02*
D03*
Y267469D02*
D03*
Y263728D02*
D03*
X840504D02*
D03*
Y271209D02*
D03*
X767807Y245349D02*
D03*
X777256Y249089D02*
D03*
Y241609D02*
D03*
D144*
X845724Y192047D02*
D03*
D145*
X862500Y198201D02*
D03*
Y211799D02*
D03*
D146*
X810000Y264791D02*
D03*
Y280146D02*
D03*
D147*
X835307Y279969D02*
D03*
X824874D02*
D03*
D148*
X847559Y263630D02*
D03*
Y271307D02*
D03*
X737516Y298661D02*
D03*
Y306339D02*
D03*
X840000Y352065D02*
D03*
Y344388D02*
D03*
D149*
X855091Y272685D02*
D03*
Y262252D02*
D03*
D150*
X740547Y241330D02*
D03*
D151*
X742516D02*
D03*
X744484D02*
D03*
X746453D02*
D03*
X748421D02*
D03*
X740547Y258810D02*
D03*
X742516D02*
D03*
X744484D02*
D03*
X746453D02*
D03*
X748421D02*
D03*
D152*
X832500Y388421D02*
D03*
Y378579D02*
D03*
%TF.MD5,5b9ca5f2d6fb6deae5c1d4ed06a1c1f6*%
M02*
