%TF.GenerationSoftware,Altium Limited,Altium Designer,18.1.9 (240)*%
G04 Layer_Physical_Order=2*
G04 Layer_Color=16711680*
%FSLAX25Y25*%
%MOIN*%
%TF.FileFunction,Copper,L2,Bot,Signal*%
%TF.Part,Single*%
G01*
G75*
%TA.AperFunction,SMDPad,CuDef*%
%ADD10C,0.03937*%
%ADD13O,0.03150X0.07087*%
%ADD14R,0.03150X0.07087*%
%ADD15R,0.03347X0.02756*%
%ADD27R,0.03347X0.01772*%
%ADD28R,0.12795X0.03740*%
%ADD29R,0.13780X0.07677*%
%ADD30R,0.02953X0.03543*%
%ADD33O,0.01772X0.05512*%
%ADD35R,0.02756X0.03347*%
%ADD39R,0.01772X0.03347*%
%ADD40R,0.03543X0.02953*%
%TA.AperFunction,Conductor*%
%ADD48C,0.01575*%
%ADD49C,0.02362*%
%ADD50C,0.01000*%
%ADD51C,0.01968*%
%ADD52C,0.01181*%
%TA.AperFunction,ComponentPad*%
%ADD54C,0.04724*%
%ADD55O,0.03937X0.04724*%
%ADD56O,0.07087X0.17717*%
%ADD57O,0.17717X0.07087*%
%ADD58O,0.04331X0.08268*%
%ADD59O,0.04331X0.10236*%
%ADD60C,0.06693*%
%ADD61C,0.08661*%
%ADD62R,0.06693X0.06693*%
%TA.AperFunction,ViaPad*%
%ADD63C,0.08661*%
%TA.AperFunction,ComponentPad*%
%ADD64C,0.07087*%
%ADD65R,0.07087X0.07087*%
%ADD66O,0.07874X0.09055*%
%ADD67C,0.06000*%
%ADD68C,0.10630*%
%TA.AperFunction,ViaPad*%
%ADD69C,0.05512*%
%ADD70C,0.03150*%
%ADD71C,0.03937*%
%ADD72C,0.02362*%
%ADD73C,0.02756*%
%TA.AperFunction,SMDPad,CuDef*%
%ADD74R,0.04724X0.08150*%
%ADD75R,0.01575X0.03347*%
%ADD76R,0.03347X0.01575*%
%ADD77O,0.01772X0.06102*%
%TA.AperFunction,Conductor*%
%ADD78C,0.03937*%
%ADD79C,0.01378*%
%ADD80C,0.05906*%
%ADD81R,0.12134X0.12044*%
%ADD82R,0.13000X0.12917*%
D10*
X850000Y145000D02*
D03*
X854957Y422500D02*
D03*
X275000Y277500D02*
D03*
D13*
X301500Y259311D02*
D03*
X311500Y285689D02*
D03*
X301500D02*
D03*
X332496Y259311D02*
D03*
X342496Y285689D02*
D03*
X332496D02*
D03*
X390000Y259311D02*
D03*
X400000Y285689D02*
D03*
X390000D02*
D03*
X421500Y259311D02*
D03*
X431500Y285689D02*
D03*
X421500D02*
D03*
X400000Y324311D02*
D03*
X390000D02*
D03*
X400000Y350689D02*
D03*
X342496Y324311D02*
D03*
X332496D02*
D03*
X342496Y350689D02*
D03*
X431000Y350689D02*
D03*
X421000Y324311D02*
D03*
X431000D02*
D03*
X311000Y324311D02*
D03*
X301000D02*
D03*
X311000Y350689D02*
D03*
D14*
X311500Y259311D02*
D03*
X342496Y259311D02*
D03*
X400000Y259311D02*
D03*
X431500D02*
D03*
X390000Y350689D02*
D03*
X332496Y350689D02*
D03*
X421000Y350689D02*
D03*
X301000Y350689D02*
D03*
D15*
X679263Y152103D02*
D03*
Y147378D02*
D03*
X689196Y152103D02*
D03*
Y147378D02*
D03*
X775032Y210276D02*
D03*
Y215000D02*
D03*
X737487Y197362D02*
D03*
Y192638D02*
D03*
X752500Y192638D02*
D03*
Y197362D02*
D03*
X426000Y317362D02*
D03*
Y312638D02*
D03*
X421000Y312638D02*
D03*
Y317362D02*
D03*
X301000Y312638D02*
D03*
Y317362D02*
D03*
X306000Y317362D02*
D03*
Y312638D02*
D03*
X332496Y312638D02*
D03*
Y317362D02*
D03*
X337500Y317362D02*
D03*
Y312638D02*
D03*
X390000Y312638D02*
D03*
Y317362D02*
D03*
X395000Y317362D02*
D03*
Y312638D02*
D03*
X431500Y297362D02*
D03*
Y292638D02*
D03*
X426500Y292637D02*
D03*
Y297362D02*
D03*
X400000Y297362D02*
D03*
Y292638D02*
D03*
X395000Y292638D02*
D03*
Y297362D02*
D03*
X342496Y297362D02*
D03*
Y292638D02*
D03*
X337500Y292638D02*
D03*
Y297362D02*
D03*
X311500D02*
D03*
Y292638D02*
D03*
X306500D02*
D03*
Y297362D02*
D03*
X755032Y177362D02*
D03*
Y172638D02*
D03*
X744994Y177362D02*
D03*
Y172638D02*
D03*
D27*
X310429Y357500D02*
D03*
X301571D02*
D03*
X341929D02*
D03*
X333071D02*
D03*
X399351Y357429D02*
D03*
X390493D02*
D03*
X430429Y357500D02*
D03*
X421571D02*
D03*
X310929Y252000D02*
D03*
X302071D02*
D03*
X342003D02*
D03*
X333145D02*
D03*
X399351D02*
D03*
X390493D02*
D03*
X430831Y252028D02*
D03*
X421972D02*
D03*
D28*
X294500Y389115D02*
D03*
Y366281D02*
D03*
X334429Y389186D02*
D03*
Y366352D02*
D03*
X374500Y389115D02*
D03*
Y366281D02*
D03*
X414500Y389115D02*
D03*
Y366281D02*
D03*
X470000Y391417D02*
D03*
Y368583D02*
D03*
X455000D02*
D03*
Y391417D02*
D03*
X314429Y421686D02*
D03*
Y398852D02*
D03*
X430500Y243917D02*
D03*
Y221083D02*
D03*
X390500Y243917D02*
D03*
Y221083D02*
D03*
X350500Y243917D02*
D03*
Y221083D02*
D03*
X311000Y243917D02*
D03*
Y221083D02*
D03*
X435000Y188583D02*
D03*
Y211417D02*
D03*
X470000Y218583D02*
D03*
Y241417D02*
D03*
X455000D02*
D03*
Y218583D02*
D03*
X502500Y246417D02*
D03*
Y223583D02*
D03*
X532500D02*
D03*
Y246417D02*
D03*
X612500Y223583D02*
D03*
Y246417D02*
D03*
X645000D02*
D03*
Y223583D02*
D03*
X677500Y218583D02*
D03*
Y241417D02*
D03*
X692500D02*
D03*
Y218583D02*
D03*
X507500Y363583D02*
D03*
Y386417D02*
D03*
X537500D02*
D03*
Y363583D02*
D03*
X610000Y386417D02*
D03*
Y363583D02*
D03*
X640000D02*
D03*
Y386417D02*
D03*
X677500Y391417D02*
D03*
Y368583D02*
D03*
X692500D02*
D03*
Y391417D02*
D03*
X434500Y398781D02*
D03*
Y421615D02*
D03*
X414500Y398781D02*
D03*
Y421615D02*
D03*
X294500Y398863D02*
D03*
Y421698D02*
D03*
X334500Y398781D02*
D03*
Y421615D02*
D03*
X354429Y398781D02*
D03*
Y421615D02*
D03*
X374465Y398816D02*
D03*
Y421651D02*
D03*
X394500Y398781D02*
D03*
Y421615D02*
D03*
X414571Y211417D02*
D03*
Y188583D02*
D03*
X395000Y211417D02*
D03*
Y188583D02*
D03*
X374571Y211417D02*
D03*
Y188583D02*
D03*
X354571Y211347D02*
D03*
Y188512D02*
D03*
X334500Y211417D02*
D03*
Y188583D02*
D03*
X314571Y211347D02*
D03*
Y188512D02*
D03*
X294500Y211417D02*
D03*
Y188583D02*
D03*
D29*
X310500Y370513D02*
D03*
Y384883D02*
D03*
X350429Y370584D02*
D03*
Y384954D02*
D03*
X390500Y370513D02*
D03*
Y384883D02*
D03*
X431000Y370513D02*
D03*
Y384883D02*
D03*
X414500Y225315D02*
D03*
Y239685D02*
D03*
X374571Y225315D02*
D03*
Y239685D02*
D03*
X334500Y225315D02*
D03*
Y239685D02*
D03*
X295071Y225315D02*
D03*
Y239685D02*
D03*
D30*
X837705Y440000D02*
D03*
X842626D02*
D03*
X366280Y282500D02*
D03*
X361358D02*
D03*
D33*
X376516Y293386D02*
D03*
X373957D02*
D03*
X371398D02*
D03*
X368839D02*
D03*
X366280D02*
D03*
X363720D02*
D03*
X361161D02*
D03*
X358602D02*
D03*
X356043D02*
D03*
X353484D02*
D03*
X373957Y316614D02*
D03*
X371398D02*
D03*
X368839D02*
D03*
X366280D02*
D03*
X363720D02*
D03*
X361161D02*
D03*
X358602D02*
D03*
X356043D02*
D03*
X353484D02*
D03*
D35*
X799866Y470000D02*
D03*
X804591D02*
D03*
D39*
X790000Y441854D02*
D03*
Y432996D02*
D03*
D40*
X742500Y197362D02*
D03*
Y192441D02*
D03*
X747500Y197362D02*
D03*
Y192441D02*
D03*
X431000Y317460D02*
D03*
Y312539D02*
D03*
X311000Y317460D02*
D03*
Y312539D02*
D03*
X342500Y317461D02*
D03*
Y312539D02*
D03*
X400000Y317461D02*
D03*
Y312539D02*
D03*
X421500Y292539D02*
D03*
Y297461D02*
D03*
X390000Y292539D02*
D03*
Y297461D02*
D03*
X332496Y292539D02*
D03*
Y297461D02*
D03*
X301500Y292539D02*
D03*
Y297461D02*
D03*
D48*
X431000Y317271D02*
Y325499D01*
X400000Y317271D02*
Y325499D01*
X342496Y317271D02*
Y325499D01*
X311000Y317460D02*
Y325688D01*
X405624Y280187D02*
Y295881D01*
X630000Y285500D02*
Y291226D01*
X375000Y281000D02*
X378500Y277500D01*
X371122Y281000D02*
X375000D01*
X447500Y322688D02*
Y325500D01*
X369946Y277500D02*
X373000D01*
X368840Y278606D02*
X369946Y277500D01*
X362578Y278606D02*
X368840D01*
X369622Y282500D02*
X371122Y281000D01*
X361358Y279826D02*
X362578Y278606D01*
X361358Y279826D02*
Y282500D01*
X349955Y280000D02*
Y295542D01*
X421500Y285689D02*
Y285689D01*
Y285689D02*
X426422D01*
X435303Y281307D02*
Y296467D01*
X366247Y326977D02*
Y327477D01*
Y323170D02*
Y326977D01*
X395078Y324311D02*
X400000D01*
X426078D02*
X431000D01*
X386000Y313696D02*
Y330000D01*
X421500Y285689D02*
Y292539D01*
X390000Y285689D02*
Y292539D01*
Y284311D02*
Y285689D01*
X332496D02*
Y292539D01*
Y285689D02*
Y285689D01*
Y284311D02*
Y285689D01*
X301500Y285689D02*
Y292539D01*
Y284311D02*
Y285689D01*
X306078Y324311D02*
X311000D01*
X337475Y324311D02*
X342397D01*
X390000Y285689D02*
X394922D01*
X301500D02*
X306422D01*
X332496D02*
X337418D01*
X517500Y286764D02*
Y290500D01*
X477500Y319500D02*
Y324709D01*
X517500Y319000D02*
Y324709D01*
X630000Y319654D02*
Y325689D01*
X775032Y205032D02*
Y210276D01*
X778713D01*
X781000Y212563D01*
X757500Y187500D02*
X775032Y205032D01*
X781000Y212563D02*
Y243834D01*
X751505Y293429D02*
X759977Y301901D01*
X743500Y295956D02*
X746027Y293429D01*
X751505D01*
X363720Y320644D02*
X366247Y323170D01*
X363720Y316614D02*
Y320644D01*
X366280Y282500D02*
X369622D01*
X386000Y313696D02*
X387058Y312638D01*
X727920Y269285D02*
X731801D01*
X741528Y182500D02*
X744994D01*
X737487Y186540D02*
X741528Y182500D01*
X737487Y186540D02*
Y192638D01*
X752500Y186492D02*
Y192638D01*
X748508Y182500D02*
X752500Y186492D01*
X744994Y182500D02*
X748508D01*
X442402Y317589D02*
X447500Y322688D01*
X442402Y312638D02*
Y317589D01*
X311000Y325689D02*
X311000D01*
X434408Y297362D02*
X435303Y296467D01*
X431500Y297362D02*
X434408D01*
X404143D02*
X405624Y295881D01*
X400000Y297362D02*
X404143D01*
X342496D02*
X346242D01*
X346287Y297318D02*
X348179D01*
X349955Y295542D01*
X311500Y297362D02*
X316098D01*
X416139Y312638D02*
X421000D01*
X387058D02*
X390000D01*
X297469D02*
X301000D01*
X328039D02*
X332496D01*
X719862Y257500D02*
Y271701D01*
Y249130D02*
Y257500D01*
X759977Y301901D02*
Y304862D01*
X755032Y185032D02*
X757500Y187500D01*
X755032Y177362D02*
Y185032D01*
X774764Y250070D02*
X781000Y243834D01*
X744484Y250070D02*
X774764D01*
X770016Y281010D02*
Y292572D01*
X764675Y275669D02*
X770016Y281010D01*
X772532Y265000D02*
Y267813D01*
X709000Y282563D02*
X719862Y271701D01*
Y249130D02*
X723910Y245082D01*
X729512D01*
X709000Y282563D02*
Y285259D01*
X745000Y187468D02*
X747500Y189968D01*
Y192441D01*
X742500Y189968D02*
X745000Y187468D01*
X742500Y189968D02*
Y192441D01*
X744484Y247669D02*
X746656Y245497D01*
X754497D01*
X734965Y245234D02*
X742050D01*
X744484Y247669D01*
Y250070D01*
Y225619D02*
X759991Y241125D01*
Y245332D01*
X744484Y221235D02*
Y225619D01*
X729512Y240591D02*
X744484Y225619D01*
X729512Y240591D02*
Y245082D01*
X739957Y250070D02*
X744484D01*
X731801Y258226D02*
X739957Y250070D01*
X731801Y258226D02*
Y269285D01*
X738185Y275669D01*
X764675D02*
X772532Y267813D01*
X746846Y275669D02*
X764675D01*
X737487Y292922D02*
Y302500D01*
Y292922D02*
X742516Y287894D01*
Y284331D02*
Y287894D01*
X743500Y295956D02*
Y304122D01*
X741776Y305847D02*
X743500Y304122D01*
X734366Y305847D02*
X741776D01*
X731516Y302996D02*
X734366Y305847D01*
X731516Y294816D02*
Y302996D01*
X728569Y291870D02*
X731516Y294816D01*
X715612Y291870D02*
X728569D01*
X736807Y282953D02*
X738185Y284331D01*
X715662Y282953D02*
X736807D01*
X715612Y291870D02*
Y298410D01*
X709000Y285259D02*
X715612Y291870D01*
D49*
X719862Y416693D02*
X732579D01*
X416139Y312638D02*
Y330000D01*
X810628Y345765D02*
X827500D01*
X802362Y337500D02*
X810628Y345765D01*
X670000Y291500D02*
Y325689D01*
X664000Y285500D02*
X670000Y291500D01*
X381187Y280187D02*
X405624D01*
X378500Y277500D02*
X381187Y280187D01*
X375035Y274035D02*
X378500Y277500D01*
X550333Y285768D02*
X553600Y282500D01*
X477961Y285768D02*
X550333D01*
X553600Y282500D02*
X567500D01*
X717000Y339000D02*
X731895D01*
X732362Y338533D01*
X447500Y325500D02*
X559000D01*
X443000Y330000D02*
X447500Y325500D01*
X416139Y330000D02*
X443000D01*
X367163Y275000D02*
X368128Y274035D01*
X405624Y280187D02*
X434183D01*
X382419Y281000D02*
Y284000D01*
X368128Y274035D02*
X375035D01*
X360882Y275000D02*
X364837D01*
X365000D02*
X367163D01*
X355882Y280000D02*
X360882Y275000D01*
X349955Y280000D02*
X355882D01*
X434183Y280187D02*
X435303Y281307D01*
X473500D01*
X372000Y330000D02*
X386000D01*
X369877Y332123D02*
X372000Y330000D01*
X362623Y332123D02*
X369877D01*
X297000Y280000D02*
X316098D01*
X294820Y282180D02*
X297000Y280000D01*
X294820Y282180D02*
Y297362D01*
X316098Y280000D02*
Y297362D01*
Y280000D02*
X349955D01*
X386000Y330000D02*
X416139D01*
X297469D02*
X328039D01*
X294976Y327507D02*
X297469Y330000D01*
X294976Y313662D02*
Y327507D01*
X348176Y330000D02*
X360500D01*
X362623Y332123D01*
X348176Y315472D02*
Y330000D01*
X328039D02*
X348176D01*
X328039Y312638D02*
Y330000D01*
X591811Y325689D02*
X630000Y325689D01*
X587000Y330500D02*
X591811Y325689D01*
X564000Y330500D02*
X587000D01*
X473500Y281307D02*
X477961Y285768D01*
X567500Y282500D02*
X590730D01*
X593730Y285500D01*
X559000Y325500D02*
X564000Y330500D01*
X630000Y325689D02*
X670000D01*
X591500Y319811D02*
Y325500D01*
X675558Y291000D02*
Y320000D01*
Y291000D02*
X679058Y287500D01*
X630000Y285500D02*
X664000D01*
X593730D02*
X630000D01*
X804878Y254500D02*
X831627D01*
X835307Y258180D01*
X839653Y272504D02*
X862638Y249519D01*
X850799Y209941D02*
Y219000D01*
Y225000D02*
Y235635D01*
X844303D02*
X850799D01*
X835642Y244297D02*
Y250486D01*
Y224500D02*
Y235635D01*
X850799D02*
X857500Y242336D01*
Y246519D01*
X831627Y254500D02*
X835642Y250486D01*
X788500Y292572D02*
Y312081D01*
Y292464D02*
Y292572D01*
X850799Y219000D02*
Y225000D01*
X856336Y229614D02*
X859890D01*
X862638Y232362D01*
X850799Y219000D02*
X855276D01*
X849491Y183509D02*
X855807Y189824D01*
Y204933D01*
X850799Y209941D02*
X855807Y204933D01*
X862638Y232362D02*
Y249519D01*
X824874Y272504D02*
X839653D01*
X835307Y258180D02*
Y267469D01*
X795224Y264154D02*
X804878Y254500D01*
X795224Y264154D02*
Y285740D01*
X788500Y292464D02*
X795224Y285740D01*
X788500Y312081D02*
X802362Y325944D01*
Y337500D01*
X295999Y312639D02*
X297467D01*
X294976Y313662D02*
X295999Y312639D01*
D50*
X815500Y385000D02*
X856370D01*
X805500Y375000D02*
X815500Y385000D01*
X805500Y361890D02*
Y375000D01*
X809453Y366418D02*
X813862Y370827D01*
X809453Y359279D02*
Y366418D01*
X795000Y344827D02*
X809453Y359279D01*
X807500Y369465D02*
X813862Y375827D01*
X807500Y360516D02*
Y369465D01*
X793137Y346153D02*
X807500Y360516D01*
X791007Y347397D02*
X805500Y361890D01*
X803500Y376139D02*
X814361Y387000D01*
X803500Y362828D02*
Y376139D01*
X789007Y348336D02*
X803500Y362828D01*
X791007Y340507D02*
Y347397D01*
X799000Y364500D02*
Y384291D01*
X793231Y358732D02*
X799000Y364500D01*
X779562Y358732D02*
X793231D01*
X811658Y400827D02*
X813862D01*
X796781Y365516D02*
Y385950D01*
X791765Y360500D02*
X796781Y365516D01*
X778850Y360500D02*
X791765D01*
X773785Y352954D02*
X779562Y358732D01*
X773785Y347509D02*
Y352954D01*
X771732Y353382D02*
X778850Y360500D01*
X771732Y348594D02*
Y353382D01*
X770181Y362209D02*
X789162D01*
X767807Y364582D02*
X770181Y362209D01*
X767807Y364582D02*
Y385071D01*
X771732Y365500D02*
Y386230D01*
X762136Y395827D02*
X771732Y386230D01*
X756277Y395827D02*
X762136D01*
X776500Y365500D02*
Y386500D01*
X762173Y400827D02*
X776500Y386500D01*
X756277Y400827D02*
X762173D01*
X774925Y393000D02*
X800315D01*
X763968Y403957D02*
X774925Y393000D01*
X754724Y403957D02*
X763968D01*
X764999Y344278D02*
Y382004D01*
X761176Y385827D02*
X764999Y382004D01*
X756191Y385827D02*
X761176D01*
X741500Y384000D02*
X746279Y388779D01*
X736665Y384000D02*
X741500D01*
X735331Y385334D02*
X736665Y384000D01*
X722709Y385334D02*
X735331D01*
X746279Y388779D02*
X764099D01*
X748744Y355732D02*
Y360756D01*
X746300Y353287D02*
X748744Y355732D01*
X739855Y353287D02*
X746300D01*
X774000Y323500D02*
X791007Y340507D01*
X774000Y307619D02*
Y323500D01*
X789007Y341541D02*
Y348336D01*
X772000Y324533D02*
X789007Y341541D01*
X772000Y306791D02*
Y324533D01*
X770032Y326943D02*
X786000Y342911D01*
X770032Y305885D02*
Y326943D01*
X789162Y362209D02*
X791500Y364547D01*
X588000Y286791D02*
Y292661D01*
X387311Y297461D02*
X390000D01*
X380504Y290654D02*
X387311Y297461D01*
X380504Y289886D02*
Y290654D01*
X376571Y293441D02*
X379978D01*
X376516Y293386D02*
X376571Y293441D01*
X379978D02*
X387432Y300896D01*
X553500Y287500D02*
X558697D01*
X562067Y290870D01*
X685263Y156241D02*
Y162459D01*
X689196Y152103D02*
Y156241D01*
X688771Y165967D02*
Y171241D01*
X685263Y162459D02*
X688771Y165967D01*
X354921Y285000D02*
Y288449D01*
Y284500D02*
Y285000D01*
X353484Y289886D02*
X354921Y288449D01*
X353484Y289886D02*
Y293386D01*
X357979Y288041D02*
X361161D01*
X356043Y289977D02*
X357979Y288041D01*
X356043Y289977D02*
Y293386D01*
X328000Y298417D02*
X331507Y301925D01*
X328000Y291250D02*
Y298417D01*
X322750Y286000D02*
X328000Y291250D01*
X322750Y292250D02*
Y293000D01*
X322618Y312882D02*
Y324000D01*
X322750Y292250D02*
Y300500D01*
X562067Y290870D02*
Y306003D01*
X563776Y286500D02*
Y303776D01*
X569000Y303000D02*
X570500Y304500D01*
X569000Y287000D02*
Y303000D01*
X560358Y307559D02*
X566000Y313201D01*
X560358Y299858D02*
Y307559D01*
X559000Y298500D02*
X560358Y299858D01*
X553579Y298500D02*
X559000D01*
X563776Y303776D02*
X568000Y308000D01*
X567709Y311645D02*
Y321039D01*
X562067Y306003D02*
X567709Y311645D01*
X566000Y313201D02*
Y326000D01*
X580339Y300323D02*
X588000Y292661D01*
X567709Y321039D02*
X569638Y322969D01*
X483296Y321020D02*
X502374D01*
X474634Y312359D02*
X483296Y321020D01*
X466000Y312359D02*
X474634D01*
X580339Y300323D02*
Y327000D01*
X646000Y321016D02*
X654984D01*
X803179Y249500D02*
X826000D01*
X802211Y247500D02*
X821500D01*
X801021Y245497D02*
X817003D01*
X819500Y243000D01*
X808032Y235500D02*
X819000D01*
X742500Y410877D02*
Y423079D01*
X830630Y401893D02*
X849964D01*
X740138Y177500D02*
X740276Y177362D01*
X744994D01*
X723949Y160709D02*
X730740Y167500D01*
X743616D01*
X744994Y168878D01*
Y172638D01*
X759848Y160709D02*
X766115D01*
X755032Y165525D02*
X759848Y160709D01*
X767512Y215000D02*
X775032D01*
X850221Y224500D02*
X850760Y225039D01*
X839972Y239966D02*
X844303Y235635D01*
X835642Y244297D02*
X839972Y239966D01*
X821500Y247500D02*
X824000Y245000D01*
X791077Y261602D02*
X803179Y249500D01*
X791077Y261602D02*
Y281889D01*
X714500Y397500D02*
Y410500D01*
Y397500D02*
X718929Y393071D01*
X722441D01*
X718570Y303500D02*
X760968Y345898D01*
X712284Y303500D02*
X718570D01*
X760968Y345898D02*
Y355803D01*
X711000Y317362D02*
X724696D01*
X724790Y304069D02*
X764999Y344278D01*
X724790Y302291D02*
Y304069D01*
X726499Y303361D02*
X771732Y348594D01*
X726499Y295517D02*
Y303361D01*
X720154Y297654D02*
X724790Y302291D01*
X720154Y295970D02*
Y297654D01*
X717000Y322000D02*
X726704D01*
X736374Y331670D01*
X446500Y290000D02*
X452500D01*
X433438Y303062D02*
X446500Y290000D01*
X421500Y303062D02*
X433438D01*
X421500Y297461D02*
Y303062D01*
X375323D02*
X421500D01*
X437872Y305128D02*
X445500Y297500D01*
X377194Y305128D02*
X437872D01*
X426000Y312449D02*
X430901D01*
X451000Y314000D02*
X451500Y314500D01*
X444211Y307211D02*
X451000Y314000D01*
X426000Y307211D02*
X444211D01*
X426000D02*
Y312449D01*
X379272Y307211D02*
X426000D01*
X410000Y312823D02*
Y320500D01*
X406348Y309171D02*
X410000Y312823D01*
X395000Y309171D02*
X406348D01*
X395000Y312449D02*
X399901D01*
X395000Y309171D02*
Y312449D01*
X380251Y309171D02*
X395000D01*
X390000Y317173D02*
Y325500D01*
X331507Y301925D02*
X337500D01*
X355328D01*
X337500Y297362D02*
Y301925D01*
X278500Y311500D02*
X283760Y306240D01*
X354529Y304191D02*
X361161Y310823D01*
X306500Y304191D02*
X354529D01*
X306500Y297362D02*
Y304191D01*
X284691D02*
X306500D01*
X279500Y299000D02*
X284691Y304191D01*
X306000Y306240D02*
X353546D01*
X283760D02*
X306000D01*
X318000Y318000D02*
X320000Y316000D01*
X337495Y312449D02*
X342397D01*
X320000Y309500D02*
Y316000D01*
X322618Y312882D02*
X327056Y308444D01*
X342500D01*
X351929D01*
X342500D02*
Y312539D01*
X306000Y306240D02*
Y312638D01*
X430792Y218143D02*
Y221374D01*
X435000Y211417D02*
Y213935D01*
X430792Y218143D02*
X435000Y213935D01*
X430500Y221083D02*
X430792Y221374D01*
Y224208D01*
X430831Y240902D02*
Y252028D01*
X422149Y252000D02*
Y253855D01*
X402708Y244037D02*
X410698Y252028D01*
X402708Y218863D02*
Y244037D01*
Y218863D02*
X410153Y211417D01*
X390571Y221083D02*
Y224500D01*
X395000Y211417D02*
Y213919D01*
X390500Y218419D02*
X395000Y213919D01*
X390500Y218419D02*
Y221083D01*
X390571Y241000D02*
Y243917D01*
X394917D02*
X399351Y248351D01*
X362536Y246036D02*
X368500Y252000D01*
X362536Y219035D02*
Y246036D01*
Y219035D02*
X370153Y211417D01*
X350429Y217982D02*
Y221083D01*
X354571Y211347D02*
Y213840D01*
X350429Y217982D02*
X354571Y213840D01*
X350500Y243917D02*
Y249392D01*
X347892Y252000D02*
X350500Y249392D01*
X322483Y219017D02*
Y246483D01*
X311000Y243988D02*
X311071Y243917D01*
Y240500D02*
Y243917D01*
X310929Y244059D02*
Y252000D01*
Y243917D02*
Y244059D01*
X311071Y217723D02*
Y224500D01*
X314571Y211347D02*
Y214223D01*
X311071Y217723D02*
X314571Y214223D01*
X377016Y357500D02*
X390571D01*
X390571Y355500D02*
Y357500D01*
X374500Y360016D02*
Y366281D01*
Y360016D02*
X377016Y357500D01*
X334429Y361962D02*
Y366352D01*
X333071Y360604D02*
X334429Y361962D01*
X333071Y357500D02*
Y360604D01*
X295532Y360930D02*
X300570D01*
X294500Y361962D02*
X295532Y360930D01*
X294500Y361962D02*
Y366281D01*
X319146Y398852D02*
X322618Y395379D01*
Y361486D02*
Y395379D01*
X318632Y357500D02*
X322618Y361486D01*
X399429Y357429D02*
Y358978D01*
Y355422D02*
Y357429D01*
X398492Y398781D02*
X402803Y394470D01*
Y362351D02*
Y394470D01*
X399429Y358978D02*
X402803Y362351D01*
X438730Y398781D02*
X443241Y394269D01*
Y361339D02*
Y394269D01*
X439402Y357500D02*
X443241Y361339D01*
X434500Y398781D02*
X438730D01*
X430429Y357500D02*
X439402D01*
X414500Y360051D02*
X417051Y357500D01*
X414500Y389115D02*
Y398781D01*
X417051Y357500D02*
X421571D01*
X341925Y357429D02*
X361049D01*
X374465Y389115D02*
Y398816D01*
X362685Y359065D02*
Y395242D01*
X334500Y389186D02*
Y398781D01*
X414500Y360051D02*
Y366281D01*
X361049Y357429D02*
X362685Y359065D01*
X394500Y398781D02*
X398492D01*
X399351Y357429D02*
X399429D01*
X341925D02*
Y357500D01*
Y355422D02*
Y357429D01*
X354429Y398781D02*
X359146D01*
X362685Y395242D01*
X310429Y357500D02*
X318632D01*
X314429Y398852D02*
X319146D01*
X301571Y357500D02*
Y359929D01*
X300570Y360930D02*
X301571Y359929D01*
X294500Y389115D02*
Y398863D01*
X301000Y354929D02*
X301571Y355500D01*
Y357500D01*
X310429Y355422D02*
Y357500D01*
Y355422D02*
X311000Y354851D01*
X301000Y349311D02*
Y354929D01*
X311000Y349311D02*
Y354851D01*
X332496Y354929D02*
X333067Y355500D01*
Y357500D01*
X341925Y355422D02*
X342496Y354851D01*
X332496Y349311D02*
Y354929D01*
X342496Y349311D02*
Y354851D01*
X390000Y354929D02*
X390571Y355500D01*
X399429Y355422D02*
X400000Y354851D01*
X390000Y349311D02*
Y354929D01*
X400000Y349311D02*
Y354851D01*
X421000Y354929D02*
X421571Y355500D01*
Y357500D01*
X430429Y355422D02*
Y357500D01*
Y355422D02*
X431000Y354851D01*
X421000Y349311D02*
Y354929D01*
X431000Y349311D02*
Y354851D01*
X295444Y384883D02*
X310500D01*
X294500Y369540D02*
X294500Y366281D01*
X294500Y369540D02*
X295473Y370513D01*
X310500D01*
X294500Y385827D02*
X295444Y384883D01*
X294500Y385827D02*
Y389115D01*
X335373Y384954D02*
X350429D01*
X334429Y369611D02*
X334429Y366352D01*
X334429Y369611D02*
X335402Y370584D01*
X350429D01*
X334429Y385898D02*
X335373Y384954D01*
X334429Y385898D02*
Y389186D01*
X374500Y385827D02*
Y389115D01*
Y385827D02*
X375444Y384883D01*
X375473Y370513D02*
X390500D01*
X374500Y369540D02*
X375473Y370513D01*
X374500Y369540D02*
X374500Y366281D01*
X375444Y384883D02*
X390500D01*
X414500Y366281D02*
Y369818D01*
X415195Y370513D01*
X431000D01*
X414500Y385827D02*
Y389115D01*
Y385827D02*
X415444Y384883D01*
X431000D01*
X431500Y254815D02*
Y260689D01*
X430831Y254146D02*
X431500Y254815D01*
X430831Y252028D02*
Y254146D01*
X410698Y252028D02*
X421972D01*
X310929Y252000D02*
Y254000D01*
X311500Y254571D01*
Y260689D01*
X302071Y252000D02*
Y254007D01*
X301500Y254578D02*
X302071Y254007D01*
X301500Y254578D02*
Y260689D01*
X311000Y243917D02*
Y243988D01*
X310929Y244059D02*
X311000Y243988D01*
X328000Y252000D02*
X333145D01*
X322483Y246483D02*
X328000Y252000D01*
X322483Y219017D02*
X330083Y211417D01*
X286930Y252000D02*
X302071D01*
X282500Y247570D02*
X286930Y252000D01*
X282500Y218500D02*
Y247570D01*
X342003Y252000D02*
X347892D01*
X368500Y252000D02*
X390493D01*
X390571Y243917D02*
X394917D01*
X429614Y239685D02*
X430831Y240902D01*
X414500Y239685D02*
X429614D01*
X410153Y211417D02*
X414571D01*
X399351Y248351D02*
Y252000D01*
X370153Y211417D02*
X374571D01*
X330083Y211417D02*
X334500D01*
X421500Y254504D02*
Y260689D01*
Y254504D02*
X422149Y253855D01*
X390000Y254504D02*
Y260689D01*
Y254504D02*
X390649Y253855D01*
Y252000D02*
Y253855D01*
X399507Y252000D02*
Y254007D01*
X400000Y254500D01*
Y260689D01*
X342496Y254500D02*
Y260689D01*
X342003Y254007D02*
X342496Y254500D01*
X342003Y252000D02*
Y254007D01*
X333145Y252000D02*
Y253855D01*
X332496Y254504D02*
X333145Y253855D01*
X332496Y254504D02*
Y260689D01*
X374571Y239685D02*
X389256D01*
X390571Y241000D01*
X350500Y221083D02*
Y224500D01*
Y241000D02*
Y243917D01*
X349185Y239685D02*
X350500Y241000D01*
X334500Y239685D02*
X349185D01*
X429685Y225315D02*
X430792Y224208D01*
X414500Y225315D02*
X429685D01*
X374571D02*
X389756D01*
X389756Y225315D02*
X390571Y224500D01*
X349685Y225315D02*
X350500Y224500D01*
X334500Y225315D02*
X349685D01*
X289583Y211417D02*
X294500D01*
X282500Y218500D02*
X289583Y211417D01*
X295571Y239685D02*
X310256D01*
X311071Y240500D01*
X295071Y225315D02*
X310256D01*
X310256Y225315D02*
X311071Y224500D01*
X764099Y388779D02*
X767807Y385071D01*
X739098Y387000D02*
Y402425D01*
X736374Y349807D02*
X739855Y353287D01*
X739412Y347000D02*
X742094Y349682D01*
X739412Y332078D02*
Y347000D01*
X724696Y317362D02*
X739412Y332078D01*
X736374Y331670D02*
Y349807D01*
X734000Y375500D02*
X748744Y360756D01*
X809453Y390827D02*
X813862D01*
X801363Y363733D02*
Y382737D01*
X794630Y357000D02*
X801363Y363733D01*
X780715Y357000D02*
X794630D01*
X775764Y352048D02*
X780715Y357000D01*
X722441Y385311D02*
X722555Y385197D01*
X727559Y398098D02*
Y401929D01*
X726961Y397500D02*
X727559Y398098D01*
X725000Y397500D02*
X726961D01*
X850760Y225039D02*
X850799Y225000D01*
X795224Y240592D02*
Y245776D01*
X779709Y261291D02*
X795224Y245776D01*
X779709Y261291D02*
Y276994D01*
X785353Y258179D02*
X808032Y235500D01*
X785353Y258179D02*
Y279396D01*
X755000Y449970D02*
X755032Y450002D01*
X830630Y398780D02*
Y401893D01*
X768323Y330036D02*
X785638Y347351D01*
X768323Y305177D02*
Y330036D01*
Y305177D02*
X777362Y296138D01*
X785638Y347351D02*
Y350096D01*
X790000Y326500D02*
X793137Y329637D01*
Y346153D01*
X795000Y327000D02*
Y344827D01*
X791000Y323000D02*
X795000Y327000D01*
X775764Y346488D02*
Y352048D01*
X750063Y320787D02*
X775764Y346488D01*
X750063Y310000D02*
Y320787D01*
X782677Y347340D02*
Y354000D01*
X765000Y329662D02*
X782677Y347340D01*
X765000Y301944D02*
Y329662D01*
X778968Y346811D02*
Y350860D01*
X763215Y331058D02*
X778968Y346811D01*
X763215Y302223D02*
Y331058D01*
X826023Y406500D02*
X830630Y401893D01*
X790000Y427449D02*
Y432996D01*
X810949Y406500D02*
X826023D01*
X790000Y427449D02*
X810949Y406500D01*
X812000Y410000D02*
X815048D01*
X815078Y409970D01*
X786500Y323000D02*
X791000D01*
X717183Y307126D02*
X756256Y346199D01*
X717998Y305418D02*
X759260Y346679D01*
X719080Y301500D02*
X762985Y345404D01*
X756256Y346199D02*
Y350687D01*
X759260Y346679D02*
Y354856D01*
X762985Y345404D02*
Y378822D01*
X739098Y402425D02*
X742500Y405827D01*
X747804Y410877D02*
X754724Y403957D01*
X742500Y410877D02*
X747804D01*
X742500Y400500D02*
X751268D01*
X754724Y403957D01*
X760980Y380827D02*
X762985Y378822D01*
X756116Y380827D02*
X760980D01*
X756402Y360370D02*
Y370827D01*
Y360370D02*
X760968Y355803D01*
X527500Y362224D02*
X528500Y363224D01*
X411840Y290960D02*
Y293587D01*
X404532Y300896D02*
X411840Y293587D01*
X387432Y300896D02*
X404532D01*
X368839Y309547D02*
X375323Y303062D01*
X372322Y310000D02*
X377194Y305128D01*
X373957Y312527D02*
X379272Y307211D01*
X373957Y312527D02*
Y316614D01*
X377040Y298410D02*
X380429D01*
X370032Y305417D02*
X377040Y298410D01*
X361819Y305417D02*
X370032D01*
X356043Y308736D02*
Y316614D01*
X353546Y306240D02*
X356043Y308736D01*
X366280Y312876D02*
Y316614D01*
X355328Y301925D02*
X366280Y312876D01*
X353484Y297082D02*
X361819Y305417D01*
X353484Y293386D02*
Y297082D01*
X528500Y363224D02*
X537142D01*
X537500Y363583D01*
X311000Y325689D02*
X311000Y325688D01*
X311000Y325689D02*
X311000Y325689D01*
X346242Y297362D02*
X346287Y297318D01*
X297467Y312639D02*
X297469Y312638D01*
X367735Y302468D02*
X369946D01*
X373957Y298457D01*
Y293386D02*
Y298457D01*
X363885Y299296D02*
X366538D01*
X368839Y296995D01*
Y293386D02*
Y296995D01*
Y309547D02*
Y316614D01*
X361161Y288041D02*
Y293386D01*
Y282697D02*
Y288041D01*
X376516Y312906D02*
X380251Y309171D01*
X376516Y312906D02*
Y316614D01*
X361161Y310823D02*
Y316614D01*
X353484Y310000D02*
Y316614D01*
X351929Y308444D02*
X353484Y310000D01*
X426000Y312449D02*
Y312638D01*
X395000Y312449D02*
Y312638D01*
X366280Y287943D02*
Y293386D01*
Y282500D02*
Y287943D01*
X364577D02*
X366280D01*
X363720Y288799D02*
X364577Y287943D01*
X363720Y288799D02*
Y293386D01*
X361161Y282697D02*
X361358Y282500D01*
X366280Y282500D02*
X366280Y282500D01*
X431500Y284311D02*
Y292638D01*
X426500D02*
X431500D01*
X421500Y297461D02*
X426402D01*
X400000Y284311D02*
Y292638D01*
X395000D02*
X400000D01*
X390000Y297461D02*
X394902D01*
X342496Y284311D02*
Y292638D01*
X337496D02*
X342496D01*
X332496Y297461D02*
X337398D01*
X306402D02*
X306500Y297362D01*
X301500Y297461D02*
X306402D01*
X421000Y317173D02*
Y325500D01*
X421000Y317173D02*
X425999D01*
X390000D02*
X394999D01*
X332496Y317173D02*
Y325499D01*
X332496Y317173D02*
X337495D01*
X310901Y312638D02*
X311000Y312539D01*
X306000Y312638D02*
X310901D01*
X305999Y317362D02*
X306000Y317362D01*
X301000Y317362D02*
X305999D01*
X301000Y317362D02*
X301000Y317362D01*
X301000Y317362D02*
Y325689D01*
X306500Y292638D02*
X306500Y292638D01*
X311500D01*
Y284311D02*
Y292638D01*
X815078Y409970D02*
X817500Y412392D01*
X800315Y393000D02*
X811272Y403957D01*
X815043D01*
X854957Y390536D02*
Y397457D01*
X853421Y389000D02*
X854957Y390536D01*
X819984Y389000D02*
X853421D01*
X817402Y391582D02*
X819984Y389000D01*
X817402Y391582D02*
Y401598D01*
X815043Y403957D02*
X817402Y401598D01*
X817500Y412392D02*
Y419673D01*
X822591Y424764D01*
Y436769D01*
X820449Y417457D02*
X825000Y422008D01*
X858733Y377500D02*
Y382638D01*
X856370Y385000D02*
X858733Y382638D01*
X855188Y387000D02*
X866228Y398039D01*
X814361Y387000D02*
X855188D01*
X772000Y306791D02*
X781110Y297681D01*
X774000Y307619D02*
X783110Y298509D01*
X781110Y289027D02*
Y297681D01*
X783110Y289855D02*
Y298509D01*
Y289855D02*
X791077Y281889D01*
X781110Y289027D02*
X789077Y281060D01*
X770032Y305885D02*
X779071Y296846D01*
Y288094D02*
Y296846D01*
X777362Y287386D02*
Y296138D01*
X779071Y288094D02*
X787061Y280103D01*
X777362Y287386D02*
X785353Y279396D01*
X787061Y259456D02*
X801021Y245497D01*
X787061Y259456D02*
Y280103D01*
X789077Y260634D02*
X802211Y247500D01*
X824000Y230000D02*
Y245000D01*
X789077Y260634D02*
Y281060D01*
X759977Y298985D02*
X763215Y302223D01*
X759977Y280187D02*
Y298985D01*
X773138Y283565D02*
Y293806D01*
X765000Y301944D02*
X773138Y293806D01*
Y283565D02*
X779709Y276994D01*
X776291Y258490D02*
Y270141D01*
Y258490D02*
X783929Y250853D01*
X773000Y273432D02*
X776291Y270141D01*
X785638Y207106D02*
Y251817D01*
X778000Y259454D02*
X785638Y251817D01*
X778000Y259454D02*
Y273638D01*
X773138Y278500D02*
X778000Y273638D01*
X783929Y207814D02*
Y250853D01*
X763003Y179500D02*
Y184471D01*
X759991Y174209D02*
Y183876D01*
X783929Y207814D01*
X763003Y184471D02*
X785638Y207106D01*
X766887Y234662D02*
X768516Y236291D01*
X758162Y234662D02*
X766887D01*
X755660Y232160D02*
X758162Y234662D01*
X757512Y231343D02*
X759073Y232904D01*
X757512Y215000D02*
Y231343D01*
X755660Y220379D02*
Y232160D01*
X752500Y217219D02*
X755660Y220379D01*
X755032Y165525D02*
Y172638D01*
X704410Y295626D02*
X712284Y303500D01*
X713290Y301500D02*
X719080D01*
X706216Y294426D02*
X713290Y301500D01*
X706216Y279817D02*
Y294426D01*
X704410Y277265D02*
Y295626D01*
X707194Y301564D02*
X711048Y305418D01*
X707194Y301510D02*
Y301564D01*
X705563Y299880D02*
X707194Y301510D01*
X705509Y299880D02*
X705563D01*
X702701Y297072D02*
X705509Y299880D01*
X711048Y305418D02*
X717998D01*
X702701Y275038D02*
Y297072D01*
X708874Y307126D02*
X717183D01*
X704410Y302663D02*
X708874Y307126D01*
X745862Y300024D02*
Y319586D01*
X773785Y347509D01*
X735516Y265000D02*
X755000D01*
X706216Y279817D02*
X712500Y273534D01*
Y271110D02*
Y273534D01*
X704410Y277265D02*
X707719Y273956D01*
X702701Y275038D02*
X709975Y267764D01*
X747500Y197362D02*
X752500D01*
X737487Y197362D02*
X742500D01*
X752500Y204988D02*
X752512Y205000D01*
X752500Y197362D02*
Y204988D01*
X743099Y210587D02*
X747512Y215000D01*
X740507Y210587D02*
X743099D01*
X737487Y207567D02*
X740507Y210587D01*
X737487Y197362D02*
Y207567D01*
X759073Y232904D02*
X777555D01*
X721778Y230846D02*
X723584Y232652D01*
X727537D01*
X735512Y224677D01*
Y220215D02*
Y224677D01*
X732512Y217215D02*
X735512Y220215D01*
X732512Y205000D02*
Y217215D01*
X715419Y234621D02*
X728397D01*
X737512Y225505D01*
Y215000D02*
Y225505D01*
X752500Y212354D02*
Y217219D01*
X750146Y210000D02*
X752500Y212354D01*
X747512Y210000D02*
X750146D01*
X742512Y205000D02*
X747512Y210000D01*
X709975Y267764D02*
X715791D01*
X745862Y300024D02*
X749386Y296500D01*
X756191Y355827D02*
X758289D01*
X759260Y354856D01*
X756191Y350687D02*
Y350827D01*
Y350687D02*
X756256D01*
X796781Y385950D02*
X811658Y400827D01*
X799000Y384291D02*
X810535Y395827D01*
X813862D01*
X801363Y382737D02*
X809453Y390827D01*
X827500Y345765D02*
Y362461D01*
X787000Y465500D02*
X790000Y462500D01*
X780530Y465500D02*
X787000D01*
X775032Y460002D02*
X780530Y465500D01*
X830087Y437425D02*
X833012Y434500D01*
X841096D01*
X842626Y436030D01*
Y440000D01*
X830087Y437425D02*
X830925D01*
X845032Y450002D02*
Y460002D01*
X774803Y432996D02*
Y435685D01*
X773138Y437350D02*
X774803Y435685D01*
X790000Y441854D02*
Y462500D01*
X797000Y430000D02*
X799866D01*
X803000Y437425D02*
X804665Y435760D01*
Y433071D02*
Y435760D01*
X799866Y430000D02*
Y441929D01*
Y425713D02*
Y430000D01*
Y425713D02*
X802500Y423079D01*
X779921Y441854D02*
X783146D01*
X785032Y439968D01*
Y430000D02*
Y439968D01*
X825000Y422008D02*
Y440000D01*
X822933Y442067D02*
X825000Y440000D01*
X819835Y442067D02*
X822933D01*
X821154Y438206D02*
X822591Y436769D01*
X811196Y438206D02*
X821154D01*
X809783Y439618D02*
X811196Y438206D01*
X809783Y439618D02*
Y441929D01*
X816459Y436498D02*
X817276Y435681D01*
X807224Y436498D02*
X816459D01*
X807224Y433071D02*
Y436498D01*
X817276Y433209D02*
Y435681D01*
X807224Y436498D02*
Y446115D01*
X814717Y428130D02*
Y433209D01*
X819835Y454805D02*
X825032Y460002D01*
X819835Y442067D02*
Y454805D01*
X805032Y448308D02*
Y450002D01*
Y448308D02*
X807224Y446115D01*
X804591Y460443D02*
X805032Y460002D01*
X804591Y460443D02*
Y470000D01*
X799866Y441929D02*
Y470000D01*
Y441929D02*
X804665D01*
X809784Y454754D02*
X815032Y460002D01*
X809784Y441929D02*
Y454754D01*
X809783Y441929D02*
X809784Y441929D01*
X777362Y432996D02*
Y446557D01*
X775032Y448887D02*
X777362Y446557D01*
X775032Y448887D02*
Y450002D01*
X770000Y454970D02*
X775032Y460002D01*
X770000Y444500D02*
Y454970D01*
Y444500D02*
X772646Y441854D01*
X774803D01*
X779921Y454891D02*
X785032Y460002D01*
X779921Y441854D02*
Y454891D01*
X842626Y440000D02*
Y443934D01*
X845032Y446340D01*
Y450002D01*
X837705Y440000D02*
Y443114D01*
X835032Y445787D02*
X837705Y443114D01*
X835032Y445787D02*
Y450002D01*
D51*
X652000Y177441D02*
X667528Y192968D01*
X652000Y147000D02*
Y177441D01*
X645000Y140000D02*
X652000Y147000D01*
X672464Y150540D02*
Y154741D01*
Y150540D02*
X675625Y147378D01*
X679263D01*
X666283Y150241D02*
X669235Y147288D01*
Y142139D02*
Y147288D01*
X703251Y147193D02*
X706283Y150225D01*
X703251Y142139D02*
Y147193D01*
X669235Y142139D02*
X703251D01*
X703330Y157371D02*
Y163225D01*
Y157371D02*
X706283Y154418D01*
Y150225D02*
Y154418D01*
X669235Y157387D02*
Y163241D01*
X666283Y154434D02*
X669235Y157387D01*
X666283Y150241D02*
Y154434D01*
X694763Y167241D02*
X698763Y171241D01*
X694763Y149241D02*
Y167241D01*
X692901Y147378D02*
X694763Y149241D01*
X689196Y147378D02*
X692901D01*
X679263D02*
X689196D01*
X667528Y192968D02*
X677496D01*
X685000Y200472D01*
X627445Y140000D02*
X645000D01*
X414571Y188512D02*
X417834D01*
X374500Y188583D02*
X377763D01*
X421472Y181028D02*
Y184873D01*
Y181028D02*
X425071Y177429D01*
X381401Y181099D02*
Y184944D01*
Y181099D02*
X385000Y177500D01*
X341401Y181099D02*
Y184944D01*
Y181099D02*
X345000Y177500D01*
X301401Y181099D02*
X305000Y177500D01*
X301401Y181099D02*
Y184944D01*
X414642Y156173D02*
Y177440D01*
X374642Y156244D02*
Y177511D01*
X334571Y156244D02*
Y177511D01*
X294571Y156244D02*
Y177511D01*
X394571Y156244D02*
Y188512D01*
X434571Y156244D02*
Y188512D01*
X394571Y156244D02*
Y188512D01*
X354571Y156244D02*
Y188512D01*
X314571Y156244D02*
Y188512D01*
X424000Y432698D02*
X427599Y429099D01*
Y425254D02*
Y429099D01*
Y425254D02*
X431237Y421615D01*
X434500D01*
X384000Y432698D02*
X387599Y429099D01*
Y425254D02*
Y429099D01*
Y425254D02*
X391237Y421615D01*
X394500D01*
X343929Y432698D02*
X347528Y429099D01*
Y425254D02*
Y429099D01*
Y425254D02*
X351167Y421615D01*
X354429D01*
X303929Y432769D02*
X307528Y429170D01*
Y425325D02*
Y429170D01*
Y425325D02*
X311167Y421686D01*
X314429D01*
X314429Y432687D02*
Y453954D01*
X414500Y421615D02*
Y453883D01*
X374500Y421615D02*
Y453883D01*
X334500Y421615D02*
Y453883D01*
X294500Y421615D02*
Y453883D01*
X334500Y421615D02*
Y453883D01*
X434500Y432616D02*
Y453883D01*
X394500Y432616D02*
Y453883D01*
X354429Y432616D02*
Y453883D01*
X417834Y188512D02*
X421472Y184873D01*
X377763Y188583D02*
X381401Y184944D01*
X334500Y188583D02*
X337763D01*
X341401Y184944D01*
X297763Y188583D02*
X301401Y184944D01*
X294500Y188583D02*
X297763D01*
X665590Y350559D02*
X677500Y362469D01*
X633500Y350559D02*
X665590D01*
X593500D02*
Y361000D01*
X685000Y350472D02*
X692500Y357972D01*
Y368583D01*
X677500Y362469D02*
Y368583D01*
X596083Y363583D02*
X610000D01*
X593500Y361000D02*
X596083Y363583D01*
X487535Y359957D02*
Y364308D01*
X483260Y368583D02*
X487535Y364308D01*
X470000Y368583D02*
X483260D01*
X502374Y156287D02*
X502417Y156244D01*
X671150Y409528D02*
X685000D01*
X669123Y407500D02*
X671150Y409528D01*
X655000Y407500D02*
X669123D01*
X502374Y453883D02*
Y462500D01*
X496874Y468000D02*
X502374Y462500D01*
X472500Y468000D02*
X496874D01*
X462500Y458000D02*
X472500Y468000D01*
X462500Y409606D02*
Y458000D01*
X502500Y399500D02*
Y407500D01*
X494417Y391417D02*
X502500Y399500D01*
X470000Y391417D02*
X494417D01*
X677500D02*
X692500D01*
X654083D02*
X677500D01*
X645000Y400500D02*
X654083Y391417D01*
X645000Y400500D02*
Y407500D01*
X537500Y386417D02*
X546000D01*
X550000Y390417D01*
Y407500D01*
X601000Y386417D02*
X610000D01*
X597500Y389917D02*
X601000Y386417D01*
X597500Y389917D02*
Y407500D01*
X610000Y386417D02*
X640000D01*
X654528Y366528D02*
Y375000D01*
X651583Y363583D02*
X654528Y366528D01*
X640000Y363583D02*
X651583D01*
X552044Y375000D02*
X560000Y382956D01*
Y407500D01*
X507500Y386417D02*
X537500D01*
X492989Y367500D02*
Y375000D01*
Y367500D02*
X496906Y363583D01*
X507500D01*
X455000Y358051D02*
X462500Y350551D01*
X455000Y358051D02*
Y368583D01*
Y391417D02*
X470000D01*
Y241417D02*
Y249500D01*
X480028Y259528D01*
X455000Y241417D02*
Y252028D01*
X622445Y145000D02*
Y156244D01*
Y145000D02*
X627445Y140000D01*
X645000Y202500D02*
Y211917D01*
X648083Y215000D01*
X661500D01*
X665083Y218583D01*
X677500D01*
X597500Y202500D02*
Y218000D01*
X603083Y223583D01*
X612500D01*
X587500Y202500D02*
Y229000D01*
X593500Y235000D01*
X600472D01*
X645000Y246417D02*
X655583D01*
X659528Y242472D01*
Y235000D02*
Y242472D01*
X487972Y235000D02*
Y242972D01*
X491417Y246417D01*
X502500D01*
X685000Y259528D02*
X692500Y252028D01*
Y241417D02*
Y252028D01*
X677500Y218583D02*
X692500D01*
X666500Y259528D02*
X677500Y248528D01*
Y241417D02*
Y248528D01*
X618500Y259528D02*
X626500D01*
X612500Y253528D02*
X618500Y259528D01*
X612500Y246417D02*
Y253528D01*
Y223583D02*
X645000D01*
X537528Y259528D02*
X554000D01*
X532500Y254500D02*
X537528Y259528D01*
X532500Y246417D02*
Y254500D01*
X514000Y259528D02*
X515000D01*
X480028D02*
X514000D01*
X455000Y252028D02*
X462500Y259528D01*
X455000Y218583D02*
X470000D01*
X469472Y181528D02*
X482445D01*
X462500Y188500D02*
X469472Y181528D01*
X462500Y188500D02*
Y200472D01*
X502374Y202500D02*
Y212126D01*
X500000Y214500D02*
X502374Y212126D01*
X488000Y214500D02*
X500000D01*
X483917Y218583D02*
X488000Y214500D01*
X470000Y218583D02*
X483917D01*
X550000Y202500D02*
Y218000D01*
X544417Y223583D02*
X550000Y218000D01*
X532500Y223583D02*
X544417D01*
X502500D02*
X532500D01*
D52*
X679263Y152103D02*
Y170103D01*
X725000Y409114D02*
X732579Y416693D01*
X725000Y401929D02*
Y409114D01*
X735413Y366528D02*
X737394Y364547D01*
X731382Y366528D02*
X735413D01*
X722555Y375354D02*
X731382Y366528D01*
X737394Y359834D02*
Y364547D01*
X722441Y385311D02*
Y393071D01*
X739287Y357941D02*
X741984D01*
X737394Y359834D02*
X739287Y357941D01*
D54*
X862579Y150484D02*
D03*
X822579Y150500D02*
D03*
X855059Y171500D02*
D03*
X830079D02*
D03*
X706283Y150225D02*
D03*
X666283Y150241D02*
D03*
X698763Y171241D02*
D03*
X673783D02*
D03*
D55*
X845067Y171500D02*
D03*
X840079D02*
D03*
X688771Y171241D02*
D03*
X683783D02*
D03*
D56*
X819898Y178205D02*
D03*
D57*
X801000Y189622D02*
D03*
Y166000D02*
D03*
D58*
X669235Y163241D02*
D03*
X703251D02*
D03*
D59*
X669235Y142139D02*
D03*
X703251D02*
D03*
D60*
X462500Y200472D02*
D03*
Y259528D02*
D03*
X487972Y235000D02*
D03*
X547028D02*
D03*
X600472D02*
D03*
X659528D02*
D03*
X685000Y259528D02*
D03*
Y200472D02*
D03*
Y409528D02*
D03*
Y350472D02*
D03*
X654528Y375000D02*
D03*
X595472D02*
D03*
X552044D02*
D03*
X492989D02*
D03*
X462500Y350551D02*
D03*
Y409606D02*
D03*
X722555Y385197D02*
D03*
Y375354D02*
D03*
Y365512D02*
D03*
Y355669D02*
D03*
D61*
X274571Y156244D02*
D03*
X354571D02*
D03*
X414500Y453883D02*
D03*
X374500D02*
D03*
X334500D02*
D03*
X294500D02*
D03*
X502374D02*
D03*
X542374D02*
D03*
X602374D02*
D03*
X642374D02*
D03*
X622445Y156244D02*
D03*
X582445D02*
D03*
X522516Y156216D02*
D03*
X482445Y156244D02*
D03*
X482374Y453883D02*
D03*
X522374D02*
D03*
X582374D02*
D03*
X622374D02*
D03*
X642445Y156244D02*
D03*
X602445D02*
D03*
X542500D02*
D03*
X502417D02*
D03*
X274500Y453883D02*
D03*
X314500D02*
D03*
X354500D02*
D03*
X394500D02*
D03*
X434500D02*
D03*
X434571Y156244D02*
D03*
X414571D02*
D03*
X394571D02*
D03*
X374571D02*
D03*
X334571D02*
D03*
X314571D02*
D03*
X294571D02*
D03*
D62*
X722555Y345827D02*
D03*
D63*
X562374Y453883D02*
D03*
X562445Y156244D02*
D03*
X265039Y192609D02*
D03*
X264968Y417518D02*
D03*
D64*
X795032Y460002D02*
D03*
Y450002D02*
D03*
X785032Y460002D02*
D03*
Y450002D02*
D03*
X775032Y460002D02*
D03*
Y450002D02*
D03*
X805032D02*
D03*
Y460002D02*
D03*
X815032Y450002D02*
D03*
Y460002D02*
D03*
X825032Y450002D02*
D03*
Y460002D02*
D03*
X835032Y450002D02*
D03*
Y460002D02*
D03*
X845032Y450002D02*
D03*
X765032Y460002D02*
D03*
Y450002D02*
D03*
X755032Y460002D02*
D03*
Y450002D02*
D03*
X766115Y160709D02*
D03*
X776115D02*
D03*
X733949D02*
D03*
X723949D02*
D03*
D65*
X845032Y460002D02*
D03*
D66*
X645000Y202500D02*
D03*
X635000D02*
D03*
X655000D02*
D03*
X597500D02*
D03*
X587500D02*
D03*
X607500D02*
D03*
X550000D02*
D03*
X540000D02*
D03*
X560000D02*
D03*
X502374D02*
D03*
X492374D02*
D03*
X512374D02*
D03*
X645000Y407500D02*
D03*
X655000D02*
D03*
X635000D02*
D03*
X597500D02*
D03*
X607500D02*
D03*
X587500D02*
D03*
X550000D02*
D03*
X560000D02*
D03*
X540000D02*
D03*
X502500D02*
D03*
X512500D02*
D03*
X492500D02*
D03*
D67*
X762512Y205000D02*
D03*
X752512D02*
D03*
X742512D02*
D03*
X732512D02*
D03*
X767512Y215000D02*
D03*
X757512D02*
D03*
X737512D02*
D03*
X747512D02*
D03*
D68*
X719540Y192008D02*
D03*
X780524D02*
D03*
D69*
X719862Y416693D02*
D03*
X742500Y423079D02*
D03*
X376516Y285846D02*
D03*
X700220Y316614D02*
D03*
X354921Y285000D02*
D03*
X283500Y326000D02*
D03*
X322750Y286000D02*
D03*
Y293000D02*
D03*
X373957Y324500D02*
D03*
X322618Y324000D02*
D03*
X380500Y323000D02*
D03*
X685413Y314108D02*
D03*
X692000D02*
D03*
X675558Y320000D02*
D03*
X680500Y298297D02*
D03*
X688000Y300864D02*
D03*
X679058Y287500D02*
D03*
X849964Y401893D02*
D03*
X824878Y205000D02*
D03*
X460000Y285953D02*
D03*
X804878Y254500D02*
D03*
X819500Y243000D02*
D03*
X819000Y235500D02*
D03*
X826000Y249500D02*
D03*
X824000Y230000D02*
D03*
X732579Y416693D02*
D03*
X714500Y410500D02*
D03*
X716500Y312539D02*
D03*
X711000Y317362D02*
D03*
X717000Y322000D02*
D03*
X842084Y370584D02*
D03*
X467500Y287477D02*
D03*
X475112Y295026D02*
D03*
X466000Y312359D02*
D03*
X466724Y319224D02*
D03*
X457500Y319857D02*
D03*
X442402Y312638D02*
D03*
X366247Y326977D02*
D03*
X452500Y290000D02*
D03*
X445500Y297500D02*
D03*
X451000Y314000D02*
D03*
X410000Y320500D02*
D03*
X271500Y305000D02*
D03*
X278500Y311500D02*
D03*
X279500Y299000D02*
D03*
X318000Y318000D02*
D03*
X287500Y312449D02*
D03*
X810000Y302468D02*
D03*
X788500Y292572D02*
D03*
X719862Y257500D02*
D03*
D70*
X756277Y395827D02*
D03*
X759848Y392500D02*
D03*
X670000Y291500D02*
D03*
X630000Y291226D02*
D03*
X588000Y286791D02*
D03*
X380504Y289886D02*
D03*
X553500Y287500D02*
D03*
X685263Y156241D02*
D03*
X672464Y154741D02*
D03*
X693939Y170959D02*
D03*
X679263Y170103D02*
D03*
X689196Y156241D02*
D03*
X717000Y339000D02*
D03*
X373000Y277500D02*
D03*
X382419Y284000D02*
D03*
X365000Y275000D02*
D03*
X426422Y285689D02*
D03*
X395078Y324311D02*
D03*
X426078D02*
D03*
X322750Y300500D02*
D03*
X306078Y324311D02*
D03*
X337475Y324311D02*
D03*
X394922Y285689D02*
D03*
X306422D02*
D03*
X337418D02*
D03*
X567500Y282500D02*
D03*
X517500Y290500D02*
D03*
X563776Y286500D02*
D03*
X553579Y298500D02*
D03*
X570500Y304500D02*
D03*
X568000Y308000D02*
D03*
X566000Y326000D02*
D03*
X569638Y322969D02*
D03*
X517500Y319000D02*
D03*
X502374Y321020D02*
D03*
X580339Y327000D02*
D03*
X670000Y325689D02*
D03*
X646000Y321016D02*
D03*
X740138Y177500D02*
D03*
X835642Y224500D02*
D03*
X654984Y321016D02*
D03*
X320000Y309500D02*
D03*
X727920Y269285D02*
D03*
X856336Y229614D02*
D03*
X739098Y387000D02*
D03*
X742094Y349682D02*
D03*
X776500Y365500D02*
D03*
X791500Y364547D02*
D03*
X734000Y375500D02*
D03*
X725000Y397500D02*
D03*
X857500Y246519D02*
D03*
X855276Y219000D02*
D03*
X849491Y183509D02*
D03*
X824874Y272504D02*
D03*
X795224Y240592D02*
D03*
X835307Y267469D02*
D03*
X830630Y398780D02*
D03*
X802362Y337500D02*
D03*
X786000Y342911D02*
D03*
X785638Y350096D02*
D03*
X778968Y350860D02*
D03*
X782677Y354000D02*
D03*
X812000Y410000D02*
D03*
X786500Y323000D02*
D03*
X742500Y405827D02*
D03*
X771732Y365500D02*
D03*
X756191Y385827D02*
D03*
X756402Y370827D02*
D03*
X790000Y326500D02*
D03*
X477500Y319500D02*
D03*
X591500Y319811D02*
D03*
X630000Y319654D02*
D03*
X569000Y287000D02*
D03*
X405627Y286764D02*
D03*
X348176Y315472D02*
D03*
X411840Y290960D02*
D03*
X294820Y297362D02*
D03*
X316098D02*
D03*
X416000Y312638D02*
D03*
X367735Y302468D02*
D03*
X363885Y299296D02*
D03*
X371822Y310500D02*
D03*
X380429Y298410D02*
D03*
X328039Y312638D02*
D03*
X813862Y370827D02*
D03*
Y375827D02*
D03*
X854957Y397457D02*
D03*
X820406Y417414D02*
D03*
X742500Y400500D02*
D03*
Y410877D02*
D03*
X866228Y398039D02*
D03*
X858733Y377500D02*
D03*
X773138Y278500D02*
D03*
X773000Y273432D02*
D03*
X763003Y179500D02*
D03*
X759991Y174209D02*
D03*
X756277Y400827D02*
D03*
X757500Y187500D02*
D03*
X772432Y264900D02*
D03*
X755000Y265000D02*
D03*
X744994Y182500D02*
D03*
X745000Y187468D02*
D03*
X734965Y245234D02*
D03*
X754497Y245497D02*
D03*
X759991Y245332D02*
D03*
X729512Y245082D02*
D03*
X744484Y221235D02*
D03*
X721778Y230846D02*
D03*
X715419Y234621D02*
D03*
X768516Y236291D02*
D03*
X777555Y232904D02*
D03*
X744484Y250070D02*
D03*
X715791Y267764D02*
D03*
X707719Y273956D02*
D03*
X712500Y271110D02*
D03*
X770016Y292572D02*
D03*
X759977Y280187D02*
D03*
X750063Y310000D02*
D03*
X737487Y302500D02*
D03*
X715612Y298410D02*
D03*
X715662Y282953D02*
D03*
X709000Y282563D02*
D03*
X704410Y302663D02*
D03*
X759977Y304862D02*
D03*
X743500Y295956D02*
D03*
X720154Y295970D02*
D03*
X813862Y390862D02*
D03*
Y395827D02*
D03*
Y400784D02*
D03*
X756191Y350687D02*
D03*
X756191Y355827D02*
D03*
X756116Y380827D02*
D03*
X749386Y296500D02*
D03*
X726499Y295517D02*
D03*
X735516Y265000D02*
D03*
X827500Y362461D02*
D03*
Y345765D02*
D03*
X773138Y437350D02*
D03*
X797000Y430000D02*
D03*
X803000Y437425D02*
D03*
X802500Y423079D02*
D03*
X785032Y430000D02*
D03*
X830087Y437425D02*
D03*
X814717Y428130D02*
D03*
D71*
X425071Y177429D02*
D03*
X385000Y177500D02*
D03*
X345000D02*
D03*
X305000D02*
D03*
X414642Y177440D02*
D03*
X374642Y177511D02*
D03*
X334571Y177511D02*
D03*
X294571D02*
D03*
X424000Y432698D02*
D03*
X384000D02*
D03*
X343929Y432698D02*
D03*
X303929Y432769D02*
D03*
X434500Y432616D02*
D03*
X394500D02*
D03*
X354429Y432616D02*
D03*
X314429Y432687D02*
D03*
X732421Y338474D02*
D03*
X633500Y350559D02*
D03*
X593500D02*
D03*
X527500Y363224D02*
D03*
X487535Y359957D02*
D03*
X666500Y259528D02*
D03*
X626500D02*
D03*
X554000D02*
D03*
X514000D02*
D03*
D72*
X844303Y244297D02*
D03*
Y239966D02*
D03*
Y235635D02*
D03*
X839972Y244297D02*
D03*
Y239966D02*
D03*
Y235635D02*
D03*
X835642Y244297D02*
D03*
Y239966D02*
D03*
Y235635D02*
D03*
D73*
X746846Y275669D02*
D03*
X742516D02*
D03*
X738185D02*
D03*
X746846Y280000D02*
D03*
X742516D02*
D03*
X738185D02*
D03*
X746846Y284331D02*
D03*
X742516D02*
D03*
X738185D02*
D03*
D74*
X792866Y178000D02*
D03*
X811134D02*
D03*
D75*
X722441Y401929D02*
D03*
X725000D02*
D03*
X727559D02*
D03*
Y393071D02*
D03*
X722441D02*
D03*
X809783Y433071D02*
D03*
X807224D02*
D03*
X804665D02*
D03*
Y441929D02*
D03*
X809783D02*
D03*
X819835Y433209D02*
D03*
X817276D02*
D03*
X814717D02*
D03*
Y442067D02*
D03*
X819835D02*
D03*
X779921Y432996D02*
D03*
X777362D02*
D03*
X774803D02*
D03*
Y441854D02*
D03*
X779921D02*
D03*
D76*
X741984Y363059D02*
D03*
Y360500D02*
D03*
Y357941D02*
D03*
X733126D02*
D03*
Y363059D02*
D03*
D77*
X376516Y316614D02*
D03*
D78*
X802000Y164500D02*
Y173705D01*
X806011Y178000D02*
X811134D01*
X802000Y182011D02*
X806011Y178000D01*
X802000Y182011D02*
Y189622D01*
X792866Y178000D02*
X797705D01*
X802000Y173705D01*
D79*
X745209Y355185D02*
X746846Y356823D01*
X731913Y355185D02*
X745209D01*
X722555Y345827D02*
X731913Y355185D01*
X746846Y356823D02*
Y359177D01*
X745524Y360500D02*
X746846Y359177D01*
X741984Y360500D02*
X745524D01*
X722555Y355669D02*
X727500D01*
X729772Y357941D01*
X733126D01*
X729837Y363059D02*
X733126D01*
X722555Y365512D02*
X727384D01*
X729837Y363059D01*
D80*
X492374Y191457D02*
Y202500D01*
X482445Y181528D02*
X492374Y191457D01*
X482445Y156244D02*
Y181528D01*
X502374Y156287D02*
Y202500D01*
X522516Y185016D02*
X540000Y202500D01*
X522516Y156216D02*
Y185016D01*
X587500Y188500D02*
Y202500D01*
X582445Y183445D02*
X587500Y188500D01*
X582445Y156244D02*
Y183445D01*
X597500Y189000D02*
Y202500D01*
Y189000D02*
X602445Y184055D01*
Y156244D02*
Y184055D01*
X635000Y193000D02*
Y202500D01*
X622445Y180445D02*
X635000Y193000D01*
X622445Y156244D02*
Y180445D01*
X542500Y156244D02*
Y176000D01*
X550000Y183500D01*
Y202500D01*
X642445Y156244D02*
Y175445D01*
X645000Y178000D01*
Y202500D01*
X522374Y445126D02*
Y453883D01*
Y445126D02*
X550000Y417500D01*
X542374Y444626D02*
Y453883D01*
Y444626D02*
X560000Y427000D01*
Y407500D02*
Y427000D01*
X622374Y441626D02*
X645000Y419000D01*
Y407500D02*
Y419000D01*
X622374Y441626D02*
Y453883D01*
X502374Y444020D02*
Y453883D01*
Y444020D02*
X512500Y433894D01*
Y407500D02*
Y433894D01*
X642374Y440209D02*
Y453883D01*
Y440209D02*
X655000Y427583D01*
Y407500D02*
Y427583D01*
X582374Y439626D02*
Y453883D01*
Y439626D02*
X597500Y424500D01*
Y407500D02*
Y424500D01*
X602374Y440626D02*
Y453883D01*
Y440626D02*
X607500Y435500D01*
Y407500D02*
Y435500D01*
X482374Y440626D02*
Y453883D01*
Y440626D02*
X502500Y420500D01*
Y407500D02*
Y420500D01*
X550000Y407500D02*
Y417500D01*
D81*
X742441Y279978D02*
D03*
D82*
X840000Y239959D02*
D03*
%TF.MD5,15b8109c61e961dd25d52b5ec9d753db*%
M02*
